<svg id="Режим_изоляции" data-name="Режим изоляции" xmlns="http://www.w3.org/2000/svg" viewBox="0 0 107.69999 105.73363"><defs><style>.cls-1{fill:#ef8993;}.cls-2{fill:#ffd2d7;}</style></defs><path class="cls-1" d="M98.7,777.5H96l-.3-1.2-.1-.1-.1.1a5.703,5.703,0,0,1-3.9,1.5,7.30068,7.30068,0,0,1,0-14.6,5.703,5.703,0,0,1,3.9,1.5l.1.1.1-.1v-9.8h3Zm-7-11.6a4.30319,4.30319,0,0,0-4.4,4.6c0,2.5,1.5,4.6,4.3,4.6a4.40235,4.40235,0,0,0,4.3-4.6A4.1013,4.1013,0,0,0,91.7,765.9Z" transform="translate(-84.4 -681.96639)"/><path class="cls-1" d="M102.3,763.5H105l.3,1.2.1.1.1-.1a4.29788,4.29788,0,0,1,3.3-1.5,5.35309,5.35309,0,0,1,5.7,5.7v8.6h-3v-8.6c-.1-1.9-1-3-3-3a3.30917,3.30917,0,0,0-3.3,3.2v8.5h-3Z" transform="translate(-84.4 -681.96639)"/><path class="cls-1" d="M131.2,777.5h-2.7l-.3-1.2-.1-.1-.1.1a5.703,5.703,0,0,1-3.9,1.5,7.30068,7.30068,0,0,1,0-14.6,5.703,5.703,0,0,1,3.9,1.5l.1.1.1-.1.3-1.2h2.7Zm-7-11.6a4.30319,4.30319,0,0,0-4.4,4.6c0,2.5,1.5,4.6,4.3,4.6a4.40235,4.40235,0,0,0,4.3-4.6A4.1494,4.1494,0,0,0,124.2,765.9Z" transform="translate(-84.4 -681.96639)"/><path class="cls-1" d="M148.2,777.5h-2.7l-.3-1.2-.1-.1-.1.1a5.70293,5.70293,0,0,1-3.9,1.5,7.30068,7.30068,0,0,1,0-14.6,5.70293,5.70293,0,0,1,3.9,1.5l.1.1.1-.1v-9.8h3Zm-7-11.6a4.30319,4.30319,0,0,0-4.4,4.6c0,2.5,1.5,4.6,4.3,4.6a4.40235,4.40235,0,0,0,4.3-4.6A4.20478,4.20478,0,0,0,141.2,765.9Z" transform="translate(-84.4 -681.96639)"/><path class="cls-1" d="M151.8,763.5h2.7l.3,1.5.1.1.1-.1a4.14528,4.14528,0,0,1,3.3-1.8,2.7047,2.7047,0,0,1,1.5.3v2.7H158a3.30918,3.30918,0,0,0-3.3,3.2v8.2h-3Z" transform="translate(-84.4 -681.96639)"/><path class="cls-1" d="M167.8,763.2a7.3,7.3,0,1,1-7.3,7.3A7.21248,7.21248,0,0,1,167.8,763.2Zm0,12c2.8,0,4.3-2.1,4.3-4.6s-1.5-4.6-4.3-4.6-4.3,2.1-4.3,4.6A4.11943,4.11943,0,0,0,167.8,775.2Z" transform="translate(-84.4 -681.96639)"/><path class="cls-1" d="M177.7,763.5h2.7l.3,1.2.2.1.1-.1a5.70293,5.70293,0,0,1,3.9-1.5,7.30068,7.30068,0,0,1,0,14.6,5.70293,5.70293,0,0,1-3.9-1.5l-.1-.1-.2.1v7.5h-3Zm7,11.7c2.8,0,4.3-2.1,4.3-4.6s-1.5-4.6-4.3-4.6a4.61044,4.61044,0,0,0,0,9.19995Z" transform="translate(-84.4 -681.96639)"/><path class="cls-1" d="M111.4,781.8c0-.1-.1-.2-.2-.3a1.07234,1.07234,0,0,0-.6-.2c-.5,0-.7.3-.7.6,0,.2.1.4.6.6l.5.2c1,.4,1.2.9,1.2,1.5a1.62752,1.62752,0,0,1-1.7,1.7,1.36381,1.36381,0,0,1-1.2-.5,1.43266,1.43266,0,0,1-.4-1l.8-.2a1.44545,1.44545,0,0,0,.2.7.77852.77852,0,0,0,.7.3.89628.89628,0,0,0,.9-.9.96154.96154,0,0,0-.8-.9l-.5-.2c-.4-.2-1.1-.5-1.1-1.3a1.45375,1.45375,0,0,1,1.5-1.4,1.41746,1.41746,0,0,1,1.1.4,2.18026,2.18026,0,0,1,.4.5Z" transform="translate(-84.4 -681.96639)"/><path class="cls-1" d="M116.5,784.2a1.7925,1.7925,0,0,1-1.8,1.8,1.73262,1.73262,0,0,1-1.8-1.8,1.8,1.8,0,0,1,3.6,0Zm-.8,0a1.00454,1.00454,0,1,0-2,0,1.00454,1.00454,0,1,0,2,0Z" transform="translate(-84.4 -681.96639)"/><path class="cls-1" d="M117.3,782.5h.8v.3a1.03168,1.03168,0,0,1,1.7.1,1.2167,1.2167,0,0,1,1-.5.93742.93742,0,0,1,.9.5,1.29217,1.29217,0,0,1,.2.8v2.1h-.8V784c0-.4,0-.5-.1-.6a.44639.44639,0,0,0-.4-.3.76368.76368,0,0,0-.5.2,1.884,1.884,0,0,0-.2.8v1.7h-.8V784c0-.4,0-.5-.1-.6a.44639.44639,0,0,0-.4-.3.76368.76368,0,0,0-.5.2,1.884,1.884,0,0,0-.2.8v1.7h-.8V782.5Z" transform="translate(-84.4 -681.96639)"/><path class="cls-1" d="M125.8,785.1a.90151.90151,0,0,1-.6.6,1.68928,1.68928,0,0,1-1,.3,1.50364,1.50364,0,0,1-1.1-.4,1.901,1.901,0,0,1-.5-1.3,2.38936,2.38936,0,0,1,.5-1.4,1.43267,1.43267,0,0,1,1.1-.5,1.59906,1.59906,0,0,1,1.1.4,2.18478,2.18478,0,0,1,.5,1.4v.1h-2.4a1.08027,1.08027,0,0,0,.3.7.7347.7347,0,0,0,.6.2c.2,0,.4,0,.5-.2a1.38022,1.38022,0,0,0,.3-.4Zm-.7-1.4c0-.2-.1-.3-.2-.5a.764.764,0,0,0-.5-.2.58752.58752,0,0,0-.5.2.75793.75793,0,0,0-.2.4h1.4Z" transform="translate(-84.4 -681.96639)"/><path class="cls-1" d="M127.5,783.2v2.6h-.8v-2.6h-.3v-.7h.3v-1.2h.8v1.2h.6v.7Z" transform="translate(-84.4 -681.96639)"/><path class="cls-1" d="M128.6,780.1h.8v2.7a1.39422,1.39422,0,0,1,.9-.4,1.05955,1.05955,0,0,1,1,.5,1.64457,1.64457,0,0,1,.2.9v2h-.8v-2a1.268,1.268,0,0,0-.1-.6.51962.51962,0,0,0-.4-.2.60466.60466,0,0,0-.6.3,1.54908,1.54908,0,0,0-.2.8v1.6h-.8v-5.6Z" transform="translate(-84.4 -681.96639)"/><path class="cls-1" d="M132.8,780.7a.5.5,0,1,1-.5.5A.47239.47239,0,0,1,132.8,780.7Zm.4,1.8v3.3h-.8v-3.3Z" transform="translate(-84.4 -681.96639)"/><path class="cls-1" d="M134.2,782.5h.8v.3a1.02329,1.02329,0,0,1,.9-.4,1.05955,1.05955,0,0,1,1,.5,1.69032,1.69032,0,0,1,.2.9v2h-.8V784c0-.8-.3-.9-.6-.9s-.7,0-.7,1.1v1.6h-.8V782.5Z" transform="translate(-84.4 -681.96639)"/><path class="cls-1" d="M140.4,782.5h.8v3.1a2.1755,2.1755,0,0,1-.5,1.7,1.59911,1.59911,0,0,1-1.1.4,1.50374,1.50374,0,0,1-1.1-.4,2.34456,2.34456,0,0,1-.5-1h.8a.76381.76381,0,0,0,.2.5,1,1,0,0,0,1.2,0,.91236.91236,0,0,0,.3-.8v-.4a1.15668,1.15668,0,0,1-1,.5,1.27385,1.27385,0,0,1-1.1-.5,1.901,1.901,0,0,1-.5-1.3,1.72752,1.72752,0,0,1,.5-1.3,1.606,1.606,0,0,1,1.1-.5,1.21673,1.21673,0,0,1,1,.5v-.5Zm-1.4.9a1.13551,1.13551,0,0,0-.3.8c0,.3.1.7.3.8a1.07231,1.07231,0,0,0,.6.2.71273.71273,0,0,0,.6-.3,1.13552,1.13552,0,0,0,.3-.8.98428.98428,0,0,0-.3-.8.73469.73469,0,0,0-.6-.2A.60457.60457,0,0,0,139,783.4Z" transform="translate(-84.4 -681.96639)"/><path class="cls-1" d="M144.8,783.2v2.6H144v-2.6h-.3v-.7h.3v-1.2h.8v1.2h.6v.7Z" transform="translate(-84.4 -681.96639)"/><path class="cls-1" d="M146.3,780.7a.5.5,0,1,1-.5.5A.53572.53572,0,0,1,146.3,780.7Zm.4,1.8v3.3H146v-3.3Z" transform="translate(-84.4 -681.96639)"/><path class="cls-1" d="M147.7,782.5h.8v.3a1.03168,1.03168,0,0,1,1.7.1,1.21669,1.21669,0,0,1,1-.5.93741.93741,0,0,1,.9.5,1.2921,1.2921,0,0,1,.2.8v2.1h-.8V784c0-.4,0-.5-.1-.6a.44639.44639,0,0,0-.4-.3.76374.76374,0,0,0-.5.2,1.884,1.884,0,0,0-.2.8v1.7h-.8V784c0-.4,0-.5-.1-.6a.44639.44639,0,0,0-.4-.3.76374.76374,0,0,0-.5.2,1.884,1.884,0,0,0-.2.8v1.7h-.8V782.5Z" transform="translate(-84.4 -681.96639)"/><path class="cls-1" d="M156.2,785.1a.90155.90155,0,0,1-.6.6,1.68932,1.68932,0,0,1-1,.3,1.50373,1.50373,0,0,1-1.1-.4,1.901,1.901,0,0,1-.5-1.3,2.38943,2.38943,0,0,1,.5-1.4,1.43273,1.43273,0,0,1,1.1-.5,1.59915,1.59915,0,0,1,1.1.4,2.18484,2.18484,0,0,1,.5,1.4v.1h-2.4a1.08028,1.08028,0,0,0,.3.7.73467.73467,0,0,0,.6.2c.2,0,.4,0,.5-.2a1.38,1.38,0,0,0,.3-.4Zm-.7-1.4c0-.2-.1-.3-.2-.5a.764.764,0,0,0-.5-.2.58753.58753,0,0,0-.5.2.75791.75791,0,0,0-.2.4h1.4Z" transform="translate(-84.4 -681.96639)"/><path class="cls-1" d="M157.8,780.1v5.8H157v-5.8Z" transform="translate(-84.4 -681.96639)"/><path class="cls-1" d="M161.8,785.1a.90151.90151,0,0,1-.6.6,1.68934,1.68934,0,0,1-1,.3,1.5037,1.5037,0,0,1-1.1-.4,1.901,1.901,0,0,1-.5-1.3,2.38943,2.38943,0,0,1,.5-1.4,1.43271,1.43271,0,0,1,1.1-.5,1.5991,1.5991,0,0,1,1.1.4,2.18478,2.18478,0,0,1,.5,1.4v.1h-2.4a1.08032,1.08032,0,0,0,.3.7.7347.7347,0,0,0,.6.2c.2,0,.4,0,.5-.2a1.38,1.38,0,0,0,.3-.4Zm-.8-1.4c0-.2-.1-.3-.2-.5a.764.764,0,0,0-.5-.2.58753.58753,0,0,0-.5.2.75791.75791,0,0,0-.2.4H161Z" transform="translate(-84.4 -681.96639)"/><path class="cls-1" d="M164.1,783.4a.6235.6235,0,0,0-.5-.3c-.1,0-.2,0-.2.1a.349.349,0,0,0-.1.2c0,.1,0,.1.1.2a.774.774,0,0,1,.3.1l.4.2c.2.1.3.2.5.3a.73476.73476,0,0,1,.2.6,1.13551,1.13551,0,0,1-.3.8,1.22161,1.22161,0,0,1-.9.4.952.952,0,0,1-.7-.2c-.2-.1-.3-.4-.4-.6l.6-.3c0,.1.1.3.2.3a1.00749,1.00749,0,0,0,.3.1.42569.42569,0,0,0,.3-.69995c-.1-.1-.2-.2-.3-.2l-.3-.1c-.2-.1-.3-.2-.5-.3-.2-.2-.2-.3-.2-.6a.90791.90791,0,0,1,.3-.7c.1-.2.4-.3.8-.3a.73473.73473,0,0,1,.6.2c.1.1.3.2.4.4Z" transform="translate(-84.4 -681.96639)"/><path class="cls-1" d="M166.9,783.4a.62346.62346,0,0,0-.5-.3c-.1,0-.2,0-.2.1a.349.349,0,0,0-.1.2c0,.1,0,.1.1.2a.77407.77407,0,0,1,.3.1l.4.2c.2.1.3.2.5.3a.73473.73473,0,0,1,.2.6,1.13555,1.13555,0,0,1-.3.8,1.22163,1.22163,0,0,1-.9.4.952.952,0,0,1-.7-.2c-.2-.1-.3-.4-.4-.6l.6-.3c0,.1.1.3.2.3a1.00738,1.00738,0,0,0,.3.1.42569.42569,0,0,0,.3-.69995c-.1-.1-.2-.2-.3-.2l-.3-.1c-.2-.1-.3-.2-.5-.3-.2-.2-.2-.3-.2-.6a.90791.90791,0,0,1,.3-.7c.1-.2.4-.3.8-.3a.73473.73473,0,0,1,.6.2c.1.1.3.2.4.4Z" transform="translate(-84.4 -681.96639)"/><path class="cls-2" d="M143.3,739.8c-.2.1-.3.5-.2.9s.5.7.7.6a.09794.09794,0,0,0,.1-.1.36731.36731,0,0,0-.1-.3.51953.51953,0,0,1-.2-.4.75587.75587,0,0,1-.1-.4c0-.1,0-.3-.1-.3Zm.5,1.4c-.2.1-.5-.2-.7-.6-.1-.4-.1-.8.2-.9h.1a.43786.43786,0,0,1,.1.3,1.08736,1.08736,0,0,0,.1.5c.1.2.1.3.2.4,0,.19995.1.19995,0,.3Z" transform="translate(-84.4 -681.96639)"/><path class="cls-2" d="M143.2,738.9h0a1.3125,1.3125,0,0,0-.5,1.7,1.8337,1.8337,0,0,0,1,1.1c.2,0,.3,0,.4-.1a.86438.86438,0,0,0,.3-.6,1.61317,1.61317,0,0,0-.3-.9l-.3-.6c-.1-.3-.3-.6-.4-.6ZM144,741.6h-.2a1.83376,1.83376,0,0,1-1-1.1,1.41975,1.41975,0,0,1,.4-1.6c.1-.1.1-.1.2-.1.2,0,.3.3.4.6l.3.6a1.19434,1.19434,0,0,1,0,1.5Z" transform="translate(-84.4 -681.96639)"/><path class="cls-2" d="M143.2,738c-.1,0-.1.1-.2.1a2.27,2.27,0,0,0-.7,2.4,2.64554,2.64554,0,0,0,1.5,1.6c.2,0,.4,0,.5-.2a1.73665,1.73665,0,0,0,.3-2.3c-.2-.2-.3-.5-.5-.7-.3-.5-.5-.9-.8-.9C143.3,737.9,143.2,737.9,143.2,738Zm1,4h-.3a2.64549,2.64549,0,0,1-1.5-1.6,2.024,2.024,0,0,1,.6-2.3.36745.36745,0,0,1,.3-.1c.3,0,.5.5.8.9a5.58394,5.58394,0,0,1,.5.8,1.61052,1.61052,0,0,1-.3,2.2Z" transform="translate(-84.4 -681.96639)"/><path class="cls-2" d="M143.1,737.1a.21506.21506,0,0,0-.2.2,2.76223,2.76223,0,0,0-.9,3.1c.4,1,1.3,2,2,2.1.3,0,.5,0,.6-.2l.1-.1c.5-.7,1.3-1.8.5-2.9-.2-.3-.5-.6-.7-.9-.4-.6-.8-1.2-1.2-1.2C143.3,737,143.2,737,143.1,737.1ZM144.4,742.4h-.3a3.224,3.224,0,0,1-2-2.1,2.7622,2.7622,0,0,1,.9-3.1.75836.75836,0,0,1,.4-.2c.4,0,.8.6,1.2,1.2a5.49764,5.49764,0,0,0,.7.9,1.43235,1.43235,0,0,1,.3,1.5c-.2.5-.5.9-.7,1.3l-.1.1C144.6,742.3,144.5,742.4,144.4,742.4Z" transform="translate(-84.4 -681.96639)"/><path class="cls-2" d="M143.1,736.1c-.1,0-.2.1-.3.2a3.84608,3.84608,0,0,0-1.1,1.6,2.80133,2.80133,0,0,0,0,2.2,3.94051,3.94051,0,0,0,2.6,2.6,1.13546,1.13546,0,0,0,.8-.3c.1-.1.2-.3.3-.4.7-.9,1.6-2.2.5-3.4a4.44006,4.44006,0,0,1-.8-1.1c-.6-.8-1.1-1.5-1.6-1.5A.75567.75567,0,0,1,143.1,736.1Zm1.5,6.7h-.4c-.9-.1-2.1-1.4-2.5-2.6a2.79857,2.79857,0,0,1,0-2.2,4.18813,4.18813,0,0,1,1.1-1.6.64632.64632,0,0,1,.5-.2c.5,0,1,.7,1.6,1.5.3.4.5.7.8,1.1a1.74717,1.74717,0,0,1,.3,1.7,8.27365,8.27365,0,0,1-.9,1.6c-.1.1-.2.3-.3.4C144.9,742.6,144.7,742.7,144.6,742.8Z" transform="translate(-84.4 -681.96639)"/><path class="cls-2" d="M143.1,735.2a.53576.53576,0,0,0-.4.3,6.09459,6.09459,0,0,0-1.4,2,4.15074,4.15074,0,0,0,0,2.7,6.66179,6.66179,0,0,0,1.3,2.1,3.74559,3.74559,0,0,0,1.7,1.1.97468.97468,0,0,0,.9-.4c.1-.2.3-.4.5-.7a7.24016,7.24016,0,0,0,1.1-1.9,2.04625,2.04625,0,0,0-.4-2,6.42144,6.42144,0,0,1-1-1.3c-.7-1-1.4-1.8-2-1.8A.36763.36763,0,0,0,143.1,735.2Zm1.7,8c-.1,0-.3.1-.4,0a3.4267,3.4267,0,0,1-1.7-1,5.24375,5.24375,0,0,1-1.3-2.1,3.865,3.865,0,0,1,0-2.6,5.79473,5.79473,0,0,1,1.4-1.9.86428.86428,0,0,1,.6-.3c.6,0,1.2.9,2,1.8.3.4.7.9,1,1.3,1.1,1.3.1,2.7-.7,3.8-.2.2-.3.5-.5.7A1.38177,1.38177,0,0,1,144.8,743.2Z" transform="translate(-84.4 -681.96639)"/><path class="cls-2" d="M143,734.3c-.2.1-.3.2-.5.3a6.41582,6.41582,0,0,0-1.6,2.3,4.152,4.152,0,0,0,0,3.1c.6,1.7,2.4,3.5,3.6,3.7a.82523.82523,0,0,0,1-.5l.6-.9c.9-1.3,2.1-2.9.8-4.4a17.41416,17.41416,0,0,0-1.2-1.4c-.9-1.1-1.7-2.1-2.4-2.1A.36761.36761,0,0,0,143,734.3Zm2,9.3a.44644.44644,0,0,1-.5,0c-1.2-.1-3-1.9-3.6-3.6a3.89144,3.89144,0,0,1,0-3,7.401,7.401,0,0,1,1.6-2.3.82906.82906,0,0,1,.8-.3c.7,0,1.5,1.1,2.4,2.1a17.41614,17.41614,0,0,0,1.2,1.4c1.3,1.4.2,3-.8,4.3l-.6.9A1.205,1.205,0,0,1,145,743.6Z" transform="translate(-84.4 -681.96639)"/><path class="cls-2" d="M143,733.4a.99824.99824,0,0,0-.5.4,7.37848,7.37848,0,0,0-1.8,2.6,4.26912,4.26912,0,0,0,0,3.5c.7,2,2.7,4,4.1,4.2a1.07384,1.07384,0,0,0,1.2-.6c.2-.3.5-.7.8-1.1,1.1-1.5,2.4-3.3.9-4.9-.5-.5-.9-1.1-1.4-1.6-1-1.3-1.9-2.4-2.8-2.4A1.33771,1.33771,0,0,0,143,733.4Zm2.3,10.5a.90172.90172,0,0,1-.5.1,4.46232,4.46232,0,0,1-2.3-1.4,7.08059,7.08059,0,0,1-1.8-2.8,5.25417,5.25417,0,0,1,0-3.5,7.47091,7.47091,0,0,1,1.8-2.6,1.22162,1.22162,0,0,1,.9-.4c.8,0,1.8,1.2,2.8,2.4a20.021,20.021,0,0,0,1.4,1.6,2.278,2.278,0,0,1,.5,2.5,11.57483,11.57483,0,0,1-1.4,2.4c-.3.4-.6.8-.8,1.1Q145.6,743.9,145.3,743.9Z" transform="translate(-84.4 -681.96639)"/><path class="cls-2" d="M142.9,732.5a2.09177,2.09177,0,0,0-.6.4c-1.6,1.7-3.2,3.9-2.1,6.9a8.67816,8.67816,0,0,0,2,3.1,5.38783,5.38783,0,0,0,2.6,1.6,1.20941,1.20941,0,0,0,1.3-.7,10.1419,10.1419,0,0,1,.9-1.3,9.18608,9.18608,0,0,0,1.6-2.7,2.44261,2.44261,0,0,0-.6-2.8c-.5-.6-1.1-1.2-1.6-1.8-1.1-1.4-2.2-2.7-3.2-2.7C143.2,732.4,143.1,732.5,142.9,732.5Zm2.6,11.8a1.26857,1.26857,0,0,1-.6.1,5.07631,5.07631,0,0,1-2.6-1.5,8.6785,8.6785,0,0,1-2-3.1c-1-3,.5-5.1,2.1-6.8a1.3887,1.3887,0,0,1,1-.5c1,0,2,1.3,3.2,2.7.5.6,1,1.2,1.6,1.8a2.69222,2.69222,0,0,1,.6,2.7,12.75362,12.75362,0,0,1-1.6,2.7,7.70533,7.70533,0,0,0-.9,1.3A2.09673,2.09673,0,0,1,145.5,744.3Z" transform="translate(-84.4 -681.96639)"/><path class="cls-2" d="M142.9,731.6a1.53112,1.53112,0,0,0-.7.5,10.77,10.77,0,0,0-2.3,3.3,5.80148,5.80148,0,0,0-.1,4.3,9.23037,9.23037,0,0,0,2.3,3.5,5.60043,5.60043,0,0,0,2.9,1.7,1.2859,1.2859,0,0,0,1.4-.8,7.16519,7.16519,0,0,1,1.1-1.5,11.397,11.397,0,0,0,1.8-3,2.71808,2.71808,0,0,0-.6-3,16.31719,16.31719,0,0,1-1.7-2c-1.3-1.5-2.5-3-3.6-3A.44643.44643,0,0,0,142.9,731.6Zm2.8,13.1a1.2687,1.2687,0,0,1-.6.1,5.59986,5.59986,0,0,1-2.9-1.7,9.88074,9.88074,0,0,1-2.2-3.4,5.80142,5.80142,0,0,1,.1-4.3,9.75042,9.75042,0,0,1,2.3-3.2,1.27379,1.27379,0,0,1,1.1-.5c1.1,0,2.3,1.5,3.6,3,.6.7,1.1,1.4,1.7,2a2.71806,2.71806,0,0,1,.6,3,9.958,9.958,0,0,1-1.8,2.9c-.4.6-.8,1.1-1.1,1.6A2.17735,2.17735,0,0,1,145.7,744.7Z" transform="translate(-84.4 -681.96639)"/><path class="cls-2" d="M142.8,730.7a1.79309,1.79309,0,0,0-.7.5c-2.1,2.2-3.8,4.8-2.6,8.3a11.39055,11.39055,0,0,0,2.5,3.8,6.12531,6.12531,0,0,0,3.2,1.9,1.54527,1.54527,0,0,0,1.6-.8q.45-.75,1.2-1.8a15.49425,15.49425,0,0,0,2-3.2,3.05241,3.05241,0,0,0-.7-3.3,19.99826,19.99826,0,0,1-1.9-2.2c-1.4-1.7-2.8-3.3-4-3.3A1.26711,1.26711,0,0,0,142.8,730.7Zm3.1,14.4a1.483,1.483,0,0,1-.7.1,6.12443,6.12443,0,0,1-3.2-1.9,11.39055,11.39055,0,0,1-2.5-3.8c-1.2-3.5.5-6.1,2.6-8.3a1.72849,1.72849,0,0,1,1.2-.6c1.2,0,2.5,1.6,3.9,3.3.6.7,1.3,1.5,1.9,2.2a2.93113,2.93113,0,0,1,.7,3.2,12.169,12.169,0,0,1-2,3.2,9.39211,9.39211,0,0,0-1.2,1.8A.96876.96876,0,0,1,145.9,745.1Z" transform="translate(-84.4 -681.96639)"/><path class="cls-2" d="M142.8,729.8a2.09676,2.09676,0,0,0-.8.6,13.57606,13.57606,0,0,0-2.7,3.9,7.17038,7.17038,0,0,0-.1,5.2,13.0213,13.0213,0,0,0,2.7,4.2,6.65,6.65,0,0,0,3.5,2.1,1.6815,1.6815,0,0,0,1.7-.9,10.51652,10.51652,0,0,1,1.4-2,14.14547,14.14547,0,0,0,2.1-3.5,3.21311,3.21311,0,0,0-.8-3.6c-.7-.7-1.4-1.5-2.1-2.3-1.6-1.8-3.1-3.6-4.4-3.6C143.1,729.7,143,729.7,142.8,729.8Zm3.4,15.7a1.94984,1.94984,0,0,1-.8.1,6.72517,6.72517,0,0,1-3.5-2,11.68321,11.68321,0,0,1-2.7-4.1,6.8932,6.8932,0,0,1,.1-5.1,13.57747,13.57747,0,0,1,2.7-3.9,1.7602,1.7602,0,0,1,1.3-.6c1.3,0,2.8,1.8,4.3,3.6.7.8,1.4,1.6,2.1,2.3a3.03054,3.03054,0,0,1,.7,3.5,14.14468,14.14468,0,0,1-2.1,3.5c-.5.7-1,1.4-1.4,2A1.208,1.208,0,0,1,146.2,745.5Z" transform="translate(-84.4 -681.96639)"/><path class="cls-2" d="M142.7,728.9a2.36094,2.36094,0,0,0-.9.6c-.7.8-1.2,1.4-1.7,2a8.94216,8.94216,0,0,0-1.3,2.3,7.71054,7.71054,0,0,0-.1,5.6,12.36528,12.36528,0,0,0,2.9,4.5,6.91179,6.91179,0,0,0,3.8,2.2,1.67643,1.67643,0,0,0,1.8-1,12.312,12.312,0,0,1,1.5-2.2,13.79386,13.79386,0,0,0,2.3-3.8,3.32289,3.32289,0,0,0-.8-3.8c-.8-.8-1.5-1.7-2.3-2.5-1.7-2-3.3-3.9-4.8-3.9C143.1,728.8,142.9,728.8,142.7,728.9Zm3.7,17a1.95,1.95,0,0,1-.8.1c-2.2-.2-5.6-3.5-6.7-6.7a7.45871,7.45871,0,0,1,.1-5.5,18.3936,18.3936,0,0,1,2.9-4.2,1.74622,1.74622,0,0,1,1.4-.7c1.4,0,3,1.9,4.7,3.9a27.24357,27.24357,0,0,0,2.3,2.5,3.35865,3.35865,0,0,1,.8,3.8,13.79288,13.79288,0,0,1-2.3,3.8,12.312,12.312,0,0,0-1.5,2.2A2.3605,2.3605,0,0,1,146.4,745.9Z" transform="translate(-84.4 -681.96639)"/><path class="cls-2" d="M142.7,728a1.84841,1.84841,0,0,0-.9.7,15.16472,15.16472,0,0,0-3.2,4.6,8.26382,8.26382,0,0,0-.1,6,13.04,13.04,0,0,0,3.2,4.8,7.44108,7.44108,0,0,0,4.1,2.4,1.87986,1.87986,0,0,0,2-1.1c.4-.7,1-1.5,1.6-2.4a19.59757,19.59757,0,0,0,2.5-4.1,3.49754,3.49754,0,0,0-.9-4.1,30.83,30.83,0,0,1-2.4-2.7c-1.9-2.2-3.6-4.2-5.2-4.2A1.48321,1.48321,0,0,0,142.7,728Zm3.9,18.3a2.48331,2.48331,0,0,1-.9.1c-2.4-.2-6-3.8-7.2-7.2-1.6-4.6.8-7.8,3.3-10.5a1.76224,1.76224,0,0,1,1.5-.7c1.5,0,3.3,2.1,5.1,4.2.8.9,1.6,1.9,2.4,2.7a3.66534,3.66534,0,0,1,.9,4,16.74174,16.74174,0,0,1-2.5,4,22.17706,22.17706,0,0,0-1.7,2.4A1.50341,1.50341,0,0,1,146.6,746.3Z" transform="translate(-84.4 -681.96639)"/><path class="cls-2" d="M142.4,727.1a2.361,2.361,0,0,0-.9.6,14.21107,14.21107,0,0,0-3.4,4.8,8.02514,8.02514,0,0,0-.6,3,11.1961,11.1961,0,0,0,.6,3.5,14.18494,14.18494,0,0,0,3.4,5.2,7.97039,7.97039,0,0,0,4.4,2.6,2.013,2.013,0,0,0,2.1-1.1c.4-.7,1-1.5,1.6-2.4a18.16835,18.16835,0,0,0,2.6-4.4,3.97564,3.97564,0,0,0-1-4.5q-1.2-1.35-2.4-2.7c-2-2.4-3.9-4.6-5.6-4.7A1.95181,1.95181,0,0,0,142.4,727.1Zm4.3,19.5a2.76915,2.76915,0,0,1-.9.1c-2.6-.2-6.4-4.1-7.7-7.7a10.6091,10.6091,0,0,1-.6-3.4,8.02494,8.02494,0,0,1,.6-3,11.92615,11.92615,0,0,1,3.4-4.7,2.342,2.342,0,0,1,1.7-.7c1.7.1,3.6,2.3,5.6,4.6q1.2,1.35,2.4,2.7a3.9924,3.9924,0,0,1,.9,4.4,18.1684,18.1684,0,0,1-2.6,4.4c-.6.9-1.2,1.7-1.6,2.4C147.5,746.1,147.2,746.5,146.7,746.6Z" transform="translate(-84.4 -681.96639)"/><path class="cls-2" d="M142.1,726.3a2.361,2.361,0,0,0-.9.6,12.98612,12.98612,0,0,0-3.6,5,9.93984,9.93984,0,0,0,.1,7,17.2145,17.2145,0,0,0,3.6,5.6c1.6,1.6,3.3,2.7,4.6,2.8a2.15321,2.15321,0,0,0,2.2-1.1c.4-.7,1-1.5,1.6-2.4a17.69634,17.69634,0,0,0,2.8-4.7,4.61678,4.61678,0,0,0-1-4.9c-.8-.9-1.6-1.8-2.3-2.7-2.2-2.6-4.2-5-6.1-5.1A1.21143,1.21143,0,0,0,142.1,726.3Zm4.8,20.7a3.08343,3.08343,0,0,1-1,.1,8.038,8.038,0,0,1-4.6-2.8,15.86116,15.86116,0,0,1-3.6-5.5,10.23392,10.23392,0,0,1-.1-6.9,12.98571,12.98571,0,0,1,3.6-5,2.74312,2.74312,0,0,1,1.8-.7c1.9.2,3.9,2.6,6,5.1.7.9,1.5,1.8,2.3,2.7a4.49114,4.49114,0,0,1,1,4.8,16.25888,16.25888,0,0,1-2.8,4.7c-.6.9-1.2,1.7-1.6,2.4A1.83373,1.83373,0,0,1,146.9,747Z" transform="translate(-84.4 -681.96639)"/><path class="cls-2" d="M141.7,725.5a4.05171,4.05171,0,0,0-.9.5,12.30577,12.30577,0,0,0-3.8,5.2,10.30017,10.30017,0,0,0-.6,3.5,11.64124,11.64124,0,0,0,.7,4,16.53808,16.53808,0,0,0,3.8,5.9,9.83926,9.83926,0,0,0,4.9,3,2.21635,2.21635,0,0,0,2.3-1.2c.4-.7,1-1.5,1.6-2.4a18.60377,18.60377,0,0,0,2.9-5.1,4.9305,4.9305,0,0,0-1.1-5.3,27.46428,27.46428,0,0,1-2.2-2.6,34.313,34.313,0,0,0-4.4-4.7,3.70317,3.70317,0,0,0-2.1-.9A1.44811,1.44811,0,0,0,141.7,725.5Zm5.3,21.8a3.75029,3.75029,0,0,1-1.1.1c-1.4-.1-3.1-1.2-4.8-2.9a16.53781,16.53781,0,0,1-3.8-5.9,11.25,11.25,0,0,1-.7-4,10.29973,10.29973,0,0,1,.6-3.5,11.71931,11.71931,0,0,1,3.7-5.2c1.2-.9,2.5-.8,4,.3a25.40858,25.40858,0,0,1,4.4,4.7c.7.9,1.5,1.8,2.2,2.6a4.95669,4.95669,0,0,1,1.1,5.2,21.60406,21.60406,0,0,1-2.9,5.1c-.6.9-1.2,1.7-1.6,2.4C147.8,746.8,147.5,747.2,147,747.3Z" transform="translate(-84.4 -681.96639)"/><path class="cls-2" d="M141.4,724.6a4.05187,4.05187,0,0,0-.9.5,10.86935,10.86935,0,0,0-4,5.4,11.93382,11.93382,0,0,0-.6,3.7,12.49469,12.49469,0,0,0,.8,4.2,18.08365,18.08365,0,0,0,4,6.3c1.8,1.8,3.7,3,5.2,3.2a2.19939,2.19939,0,0,0,1.4-.2,1.94955,1.94955,0,0,0,1-1c.4-.7,1-1.5,1.6-2.4a20.95841,20.95841,0,0,0,3.1-5.4,5.60675,5.60675,0,0,0-1.2-5.8c-.7-.8-1.4-1.7-2.1-2.5a40.4064,40.4064,0,0,0-4.7-5.1,5.34613,5.34613,0,0,0-2.3-1.1A5.85385,5.85385,0,0,0,141.4,724.6Zm5.7,23.1a2.251,2.251,0,0,1-1.2.1,9.854,9.854,0,0,1-5.1-3.1,18.266,18.266,0,0,1-4-6.2,12.49458,12.49458,0,0,1-.8-4.2,11.47553,11.47553,0,0,1,.6-3.7,10.69037,10.69037,0,0,1,3.9-5.4,5.89963,5.89963,0,0,1,.8-.4c1.1-.4,2.2-.1,3.5.9a28.79851,28.79851,0,0,1,4.7,5c.7.8,1.4,1.7,2.1,2.5a5.61236,5.61236,0,0,1,1.1,5.7,19.422,19.422,0,0,1-3.1,5.4c-.6.8-1.1,1.6-1.6,2.4C148,747.2,147.6,747.5,147.1,747.7Z" transform="translate(-84.4 -681.96639)"/><path class="cls-2" d="M141,723.8a2.993,2.993,0,0,0-.8.4,11.31105,11.31105,0,0,0-4.2,5.6,13.8061,13.8061,0,0,0,.3,8.5,18.9161,18.9161,0,0,0,4.2,6.6c1.9,1.9,3.9,3.2,5.4,3.3a2.62187,2.62187,0,0,0,1.5-.2,2.591,2.591,0,0,0,1.1-1c.4-.7,1-1.5,1.5-2.3a21.9475,21.9475,0,0,0,3.2-5.8,6.31769,6.31769,0,0,0-1.2-6.2c-.7-.8-1.4-1.6-2-2.4a40.08468,40.08468,0,0,0-5-5.5,5.36951,5.36951,0,0,0-2.4-1.2A4.6793,4.6793,0,0,0,141,723.8Zm6.2,24.3a2.462,2.462,0,0,1-1.2.1c-1.5-.2-3.5-1.4-5.4-3.3a18.05551,18.05551,0,0,1-4.2-6.6,13.49213,13.49213,0,0,1-.3-8.4,10.59057,10.59057,0,0,1,4.1-5.6,2.99478,2.99478,0,0,1,.8-.4,4.07616,4.07616,0,0,1,3.9,1,33.46678,33.46678,0,0,1,5,5.4c.7.8,1.3,1.6,2,2.4a6.13537,6.13537,0,0,1,1.2,6.1,23.62975,23.62975,0,0,1-3.2,5.8,22.21643,22.21643,0,0,0-1.5,2.3A2.03042,2.03042,0,0,1,147.2,748.1Z" transform="translate(-84.4 -681.96639)"/><path class="cls-2" d="M140.7,723a2.99334,2.99334,0,0,0-.8.4,10.46,10.46,0,0,0-4.4,5.8,14.69288,14.69288,0,0,0,.4,9,21.07277,21.07277,0,0,0,4.4,7c2,2.1,4.1,3.3,5.7,3.5a2.40434,2.40434,0,0,0,1.5-.2,2.54451,2.54451,0,0,0,1.2-1.1,14.31867,14.31867,0,0,1,1.5-2.2,23.06157,23.06157,0,0,0,3.4-6.1,6.7936,6.7936,0,0,0-1.3-6.7c-.6-.8-1.3-1.6-1.9-2.3a46.14087,46.14087,0,0,0-5.3-5.9,5.77019,5.77019,0,0,0-2.6-1.3A2.787,2.787,0,0,0,140.7,723Zm6.7,25.4a2.76889,2.76889,0,0,1-1.3.1c-1.6-.2-3.7-1.5-5.6-3.5a19.22493,19.22493,0,0,1-4.4-6.9,14.40189,14.40189,0,0,1-.4-8.9,10.31187,10.31187,0,0,1,4.3-5.8c1.6-.9,3.2-.7,5.1.8a31.63644,31.63644,0,0,1,5.3,5.9c.6.8,1.2,1.5,1.9,2.3a6.80071,6.80071,0,0,1,1.3,6.6,22.749,22.749,0,0,1-3.4,6.1c-.5.8-1.1,1.5-1.5,2.3A2.43017,2.43017,0,0,1,147.4,748.4Z" transform="translate(-84.4 -681.96639)"/><path class="cls-2" d="M140.3,722.1c-.2.1-.5.2-.7.3a9.72362,9.72362,0,0,0-4.6,6.1,13.25579,13.25579,0,0,0-.5,4.5,17.76482,17.76482,0,0,0,1,5,20.718,20.718,0,0,0,4.7,7.3c2.1,2.2,4.3,3.5,6,3.7a2.85091,2.85091,0,0,0,1.6-.2,2.54451,2.54451,0,0,0,1.2-1.1c.4-.7.9-1.4,1.4-2.2a24.42939,24.42939,0,0,0,3.6-6.5,7.04512,7.04512,0,0,0-1.4-7.1c-.6-.7-1.2-1.5-1.7-2.2a40.22521,40.22521,0,0,0-5.7-6.3,7.02087,7.02087,0,0,0-2.8-1.5A7.49135,7.49135,0,0,0,140.3,722.1Zm7.2,26.7a3.21026,3.21026,0,0,1-1.4.1c-1.7-.2-3.8-1.5-5.9-3.7a19.9074,19.9074,0,0,1-4.6-7.3,17.76454,17.76454,0,0,1-1-5,12.95969,12.95969,0,0,1,.5-4.4,10.01288,10.01288,0,0,1,4.5-6c1.7-.9,3.4-.6,5.4,1a40.06841,40.06841,0,0,1,5.6,6.3c.6.7,1.2,1.5,1.7,2.2a7.38883,7.38883,0,0,1,1.4,7,24.42883,24.42883,0,0,1-3.6,6.5c-.5.8-1,1.5-1.4,2.2A2.16322,2.16322,0,0,1,147.5,748.8Z" transform="translate(-84.4 -681.96639)"/><path class="cls-2" d="M139.9,721.3l-.6.3a8.60907,8.60907,0,0,0-2.9,2.5,11.14985,11.14985,0,0,0-1.8,3.8,14.7597,14.7597,0,0,0-.5,4.7,17.31045,17.31045,0,0,0,1.1,5.3,22.28219,22.28219,0,0,0,4.9,7.7c2.2,2.3,4.4,3.7,6.2,3.9a2.73353,2.73353,0,0,0,1.6-.2,3.339,3.339,0,0,0,1.3-1.1c.4-.7.9-1.3,1.4-2.1a28.91925,28.91925,0,0,0,3.8-6.9,8.01522,8.01522,0,0,0-1.4-7.6c-.5-.7-1.1-1.4-1.6-2-2.1-2.7-4-5.2-6-6.7a7.69951,7.69951,0,0,0-2.9-1.6A3.8561,3.8561,0,0,0,139.9,721.3Zm7.7,27.9a3.21033,3.21033,0,0,1-1.4.1c-1.8-.2-4-1.6-6.2-3.9a21.595,21.595,0,0,1-4.8-7.6,15.96972,15.96972,0,0,1-1-5.2,14.76017,14.76017,0,0,1,.5-4.7,10.64274,10.64274,0,0,1,1.8-3.7,8.60922,8.60922,0,0,1,2.9-2.5l.6-.3c1.6-.6,3.3-.1,5.2,1.5a51.85419,51.85419,0,0,1,6,6.7c.5.7,1.1,1.4,1.6,2a7.53714,7.53714,0,0,1,1.4,7.5,24.61862,24.61862,0,0,1-3.8,6.9c-.5.7-1,1.4-1.4,2.1A3.00694,3.00694,0,0,1,147.6,749.2Z" transform="translate(-84.4 -681.96639)"/><path class="cls-2" d="M139.5,720.5c-.2.1-.3.1-.5.2a9.26014,9.26014,0,0,0-3.1,2.5,11.81876,11.81876,0,0,0-1.9,3.9,15.70912,15.70912,0,0,0-.5,4.9,21.47708,21.47708,0,0,0,1.1,5.5,23.1094,23.1094,0,0,0,5.1,8c2.3,2.4,4.6,3.9,6.5,4.1a3.21,3.21,0,0,0,1.7-.2,2.765,2.765,0,0,0,1.3-1.1c.4-.6.8-1.3,1.3-2a28.80443,28.80443,0,0,0,4-7.3,8.48622,8.48622,0,0,0-1.5-8.1,13.30258,13.30258,0,0,1-1.4-1.9,52.97825,52.97825,0,0,0-6.3-7.2,7.41382,7.41382,0,0,0-3.1-1.7A8.42138,8.42138,0,0,0,139.5,720.5Zm8.3,29a2.44935,2.44935,0,0,1-1.5.1c-1.8-.2-4.2-1.7-6.4-4.1a24.067,24.067,0,0,1-5.1-8,21.47689,21.47689,0,0,1-1.1-5.5,15.70879,15.70879,0,0,1,.5-4.9,10.154,10.154,0,0,1,1.9-3.9,7.9007,7.9007,0,0,1,3-2.5c.2-.1.3-.1.5-.2,4.1-1.4,7.7,3.3,11.9,8.8a13.30211,13.30211,0,0,1,1.4,1.9,8.25088,8.25088,0,0,1,1.5,8,28.20229,28.20229,0,0,1-4,7.2,22.63037,22.63037,0,0,0-1.3,2A2.76461,2.76461,0,0,1,147.8,749.5Z" transform="translate(-84.4 -681.96639)"/><path class="cls-2" d="M139.1,719.7a.75778.75778,0,0,0-.4.2,7.8634,7.8634,0,0,0-3.2,2.6,12.07075,12.07075,0,0,0-2,4.1,19.08735,19.08735,0,0,0,.7,11,23.77059,23.77059,0,0,0,5.3,8.4c2.4,2.5,4.8,4,6.8,4.3a3.45862,3.45862,0,0,0,1.8-.2,3.12571,3.12571,0,0,0,1.4-1.2l1.2-1.8a28.29115,28.29115,0,0,0,4.2-7.6,8.927,8.927,0,0,0-1.6-8.5c-.4-.6-.9-1.1-1.3-1.7C147.5,723.2,143.6,718.1,139.1,719.7Zm8.8,30.2a2.85573,2.85573,0,0,1-1.6.1c-1.9-.3-4.3-1.8-6.7-4.3a24.31643,24.31643,0,0,1-5.3-8.3,18.70963,18.70963,0,0,1-.7-10.9,12.90219,12.90219,0,0,1,1.9-4.1,7.03566,7.03566,0,0,1,3.2-2.5c.1-.1.3-.1.4-.2,4.4-1.5,8.3,3.5,12.7,9.4.4.5.8,1.1,1.3,1.7a8.83523,8.83523,0,0,1,1.6,8.4c-.8,2.7-2.6,5.3-4.1,7.6-.4.6-.9,1.3-1.2,1.8A3.02032,3.02032,0,0,1,147.9,749.9Z" transform="translate(-84.4 -681.96639)"/><path class="cls-2" d="M138.7,718.8c-.1,0-.2.1-.3.1a8.4016,8.4016,0,0,0-3.4,2.6,11.39465,11.39465,0,0,0-2,4.3,20.03936,20.03936,0,0,0,.8,11.5,24.60371,24.60371,0,0,0,5.5,8.7c2.5,2.6,5,4.2,7,4.5a3.45866,3.45866,0,0,0,1.8-.2,2.68861,2.68861,0,0,0,1.4-1.2c.4-.6.8-1.1,1.2-1.7,3.3-4.8,7.4-10.9,2.7-17-.4-.5-.7-1-1.1-1.5a49.21293,49.21293,0,0,0-7-8.1,9.424,9.424,0,0,0-3.4-2A4.41518,4.41518,0,0,0,138.7,718.8Zm9.3,31.5a2.85585,2.85585,0,0,1-1.6.1c-2-.3-4.5-1.9-7-4.4a27.13212,27.13212,0,0,1-5.5-8.7,19.65732,19.65732,0,0,1-.8-11.4,10.93447,10.93447,0,0,1,2-4.2,7.52432,7.52432,0,0,1,3.3-2.6c.1,0,.2-.1.3-.1,2.1-.7,4.2-.1,6.6,1.9,2.3,1.9,4.5,4.9,6.9,8.1.4.5.7,1,1.1,1.5a9.225,9.225,0,0,1,1.6,8.9c-.8,2.9-2.7,5.6-4.3,8-.4.6-.8,1.2-1.2,1.7A2.36457,2.36457,0,0,1,148,750.3Z" transform="translate(-84.4 -681.96639)"/><path class="cls-2" d="M138.2,718a.09794.09794,0,0,0-.1.1,7.57919,7.57919,0,0,0-3.5,2.7,13.4137,13.4137,0,0,0-2.1,4.5,20.94854,20.94854,0,0,0,.9,12,27.71636,27.71636,0,0,0,5.7,9.1c2.5,2.7,5.2,4.4,7.3,4.7a3.995,3.995,0,0,0,1.9-.2,3.49112,3.49112,0,0,0,1.5-1.2c.3-.5.7-1,1.1-1.6,3.5-5.1,7.8-11.4,2.9-17.9q-.45-.6-.9-1.2c-2.5-3.4-4.9-6.6-7.3-8.6a12.02088,12.02088,0,0,0-3.6-2.2A4.59939,4.59939,0,0,0,138.2,718Zm9.9,32.6a3.21858,3.21858,0,0,1-1.7.1c-2.1-.3-4.7-2-7.2-4.6a27.71677,27.71677,0,0,1-5.7-9.1,22.38616,22.38616,0,0,1-.9-11.9,11.86814,11.86814,0,0,1,2-4.4,7.78967,7.78967,0,0,1,3.4-2.6.09793.09793,0,0,0,.1-.1c2.3-.8,4.6-.2,7.1,2.1,2.4,2.1,4.7,5.2,7.3,8.6q.45.6.9,1.2a10.00079,10.00079,0,0,1,1.7,9.4c-.9,3-2.8,5.8-4.5,8.4-.4.6-.7,1.1-1.1,1.6A1.85409,1.85409,0,0,1,148.1,750.6Z" transform="translate(-84.4 -681.96639)"/><path class="cls-2" d="M137.8,717.2a7.83037,7.83037,0,0,0-3.6,2.7,11.44336,11.44336,0,0,0-2.1,4.6,18.92974,18.92974,0,0,0-.4,5.9,24.36712,24.36712,0,0,0,1.4,6.5,28.31975,28.31975,0,0,0,5.9,9.5c2.6,2.8,5.4,4.6,7.6,4.9a4.42087,4.42087,0,0,0,2-.2,3.10751,3.10751,0,0,0,1.5-1.3,13.03,13.03,0,0,1,1-1.5c3.6-5.3,8.1-11.9,3-18.8-.2-.3-.5-.7-.7-1-2.6-3.6-5.1-7-7.6-9.1a10.4417,10.4417,0,0,0-3.8-2.3A6.6672,6.6672,0,0,0,137.8,717.2ZM148.3,751a3.52556,3.52556,0,0,1-1.8.1c-2.1-.3-4.9-2.1-7.5-4.8a27.93412,27.93412,0,0,1-5.9-9.4,25.22886,25.22886,0,0,1-1.4-6.5,22.526,22.526,0,0,1,.4-5.9,11.44308,11.44308,0,0,1,2.1-4.6,7.8303,7.8303,0,0,1,3.6-2.7c2.5-.9,4.9-.2,7.7,2.2,2.5,2.2,5,5.6,7.6,9.1a8.6471,8.6471,0,0,1,.7,1,10.69124,10.69124,0,0,1,1.8,9.9c-.9,3.1-3,6.1-4.8,8.7-.3.5-.7,1-1,1.5A2.5274,2.5274,0,0,1,148.3,751Z" transform="translate(-84.4 -681.96639)"/><path class="cls-1" d="M158.5,714.1c-.1,0-.2,0-.2-.1-.1-.1,0-.3,0-.5a.90142.90142,0,0,0,.1-.5v-.6c0-.2-.1-.4,0-.5s.1-.1.2-.1c.4,0,.7.5.6,1.2C159.3,713.7,158.9,714.2,158.5,714.1Zm0-.19995h0c.3,0,.6-.4.6-.8,0-.5-.2-.9-.4-.9h0v.3c0,.2.1.4,0,.6,0,.2-.1.4-.1.6Z" transform="translate(-84.4 -681.96639)"/><path class="cls-1" d="M158.4,714.7h-.2c-.5-.3-.6-1.1-.3-2.2.1-.3.1-.6.2-.8.1-.4.1-.8.3-.9.1-.1.2-.1.4,0a1.51209,1.51209,0,0,1,1,1.8,3.28517,3.28517,0,0,1-1.1,2.1Zm.3-3.9h-.1a1.29215,1.29215,0,0,0-.2.8,2.92056,2.92056,0,0,1-.2.9c-.4,1.2-.2,1.8.2,2h.3a2.59766,2.59766,0,0,0,1-2c.1-.9-.2-1.4-.9-1.6Z" transform="translate(-84.4 -681.96639)"/><path class="cls-1" d="M158.2,715.2a.36743.36743,0,0,1-.3-.1,2.95057,2.95057,0,0,1-.6-3.3,7.59667,7.59667,0,0,0,.4-1.1c.2-.7.3-1.2.7-1.3a.62935.62935,0,0,1,.6,0,2.83651,2.83651,0,0,1,1.1.8,2.03517,2.03517,0,0,1,.3,1.6,4.67465,4.67465,0,0,1-.6,1.9c-.4.7-.8,1.2-1.2,1.3A.39926.39926,0,0,1,158.2,715.2Zm.5-5.7h-.2c-.3.1-.4.6-.6,1.2a7.59455,7.59455,0,0,1-.4,1.1,2.709,2.709,0,0,0,.5,3.1.44648.44648,0,0,0,.5,0c.7-.3,1.6-2,1.7-3.1a1.9484,1.9484,0,0,0-1.3-2.3Z" transform="translate(-84.4 -681.96639)"/><path class="cls-1" d="M158,715.7c-.1,0-.3-.1-.4-.1a3.56383,3.56383,0,0,1-1.1-1.9,4.57123,4.57123,0,0,1,.2-2.6,7.83955,7.83955,0,0,0,.5-1.4c.3-.9.6-1.6,1-1.8a.63136.63136,0,0,1,.7.1,2.7855,2.7855,0,0,1,1.9,3.1,8.07076,8.07076,0,0,1-.9,2.6,4.13857,4.13857,0,0,1-1.6,1.8C158.3,715.7,158.2,715.7,158,715.7Zm.7-7.6h-.2c-.4.2-.6.9-.9,1.7-.2.4-.3.9-.5,1.4a3.67146,3.67146,0,0,0,.8,4.2.63769.63769,0,0,0,.6,0c1-.4,2.3-2.7,2.4-4.3a2.60639,2.60639,0,0,0-1.8-3C158.9,708.2,158.8,708.1,158.7,708.1Z" transform="translate(-84.4 -681.96639)"/><path class="cls-1" d="M157.9,716.3c-.2,0-.3-.1-.5-.2a5.02237,5.02237,0,0,1-1.2-5.5,11.10958,11.10958,0,0,0,.7-1.6c.4-1.1.8-2,1.4-2.2a.97221.97221,0,0,1,.9.1c1.6.8,2.5,1.5,2.3,3.8a8.90057,8.90057,0,0,1-1.2,3.3,5.311,5.311,0,0,1-2.1,2.3C158.2,716.2,158,716.3,157.9,716.3Zm.8-9.5h-.3c-.5.2-.9,1.1-1.3,2.1-.2.5-.4,1.1-.7,1.7a4.80634,4.80634,0,0,0,1.1,5.3.61586.61586,0,0,0,.7.1,5.46169,5.46169,0,0,0,2-2.2,7.63721,7.63721,0,0,0,1.1-3.2,3.45352,3.45352,0,0,0-.5-2.4,5.86037,5.86037,0,0,0-1.7-1.3A.60164.60164,0,0,0,158.7,706.8Z" transform="translate(-84.4 -681.96639)"/><path class="cls-1" d="M157.7,716.8a.76365.76365,0,0,1-.5-.2,6.97723,6.97723,0,0,1-1.7-2.9,4.709,4.709,0,0,1,.3-3.8c.3-.6.6-1.3.9-1.9.5-1.3,1-2.4,1.7-2.7a1.16708,1.16708,0,0,1,1.1.2h0c1.8,1,3,1.7,2.7,4.5a10.67938,10.67938,0,0,1-1.4,4,6.383,6.383,0,0,1-2.5,2.8Zm1-11.4h-.4c-.7.2-1.1,1.3-1.6,2.6a16.32244,16.32244,0,0,1-.9,1.9,4.83138,4.83138,0,0,0-.2,3.7,5.74991,5.74991,0,0,0,1.7,2.8.72165.72165,0,0,0,.9.1,6.536,6.536,0,0,0,2.4-2.7,10.89491,10.89491,0,0,0,1.4-3.9,3.91821,3.91821,0,0,0-.6-2.8,7.09016,7.09016,0,0,0-2.1-1.5h0A4.17134,4.17134,0,0,1,158.7,705.4Z" transform="translate(-84.4 -681.96639)"/><path class="cls-1" d="M157.5,717.3a.86429.86429,0,0,1-.6-.3,7.69733,7.69733,0,0,1-2-3.4,5.7416,5.7416,0,0,1,.3-4.4,21.40144,21.40144,0,0,0,1-2.2c.7-1.5,1.2-2.8,2.1-3.1a1.32259,1.32259,0,0,1,1.2.2l.2.1c2,1.1,3.3,1.9,3,5a12.276,12.276,0,0,1-1.7,4.7,7.68607,7.68607,0,0,1-2.9,3.2A.73475.73475,0,0,1,157.5,717.3Zm1.2-13.2h-.4c-.8.3-1.4,1.5-2,3a21.397,21.397,0,0,1-1,2.2,5.97352,5.97352,0,0,0-.3,4.3,7.93418,7.93418,0,0,0,2,3.3.91888.91888,0,0,0,1,.2,7.012,7.012,0,0,0,2.8-3.2,12.66347,12.66347,0,0,0,1.6-4.6c.2-3.1-1-3.8-2.9-4.9l-.2-.1A1.42193,1.42193,0,0,0,158.7,704.1Z" transform="translate(-84.4 -681.96639)"/><path class="cls-1" d="M157.3,717.9a.90775.90775,0,0,1-.7-.3c-1.7-1.7-3.8-5.6-2-8.8.4-.8.8-1.6,1.2-2.5.8-1.7,1.4-3.2,2.4-3.5a1.80677,1.80677,0,0,1,1.4.2c.1.1.2.1.3.2a7.79711,7.79711,0,0,1,2.6,2,4.997,4.997,0,0,1,.7,3.6,13.13968,13.13968,0,0,1-1.9,5.3,9.47305,9.47305,0,0,1-3.3,3.7C157.7,717.8,157.5,717.9,157.3,717.9Zm1.4-15.1a.90165.90165,0,0,0-.5.1c-.9.3-1.6,1.8-2.4,3.5-.4.8-.7,1.6-1.2,2.5-1.7,3.2.3,7,2,8.7a1.03257,1.03257,0,0,0,1.2.2c1-.4,2.2-1.7,3.3-3.6a13.66648,13.66648,0,0,0,1.9-5.3c.3-3.4-1.1-4.2-3.2-5.5-.1-.1-.2-.1-.3-.2A1.19565,1.19565,0,0,0,158.7,702.8Z" transform="translate(-84.4 -681.96639)"/><path class="cls-1" d="M157.1,718.4a1.23444,1.23444,0,0,1-.8-.4,11.8177,11.8177,0,0,1-2.6-4.3,6.93806,6.93806,0,0,1,.3-5.6c.5-.9.9-1.8,1.3-2.7.9-1.9,1.7-3.6,2.8-4a1.94329,1.94329,0,0,1,1.6.3c.2.1.3.2.5.3a8.06275,8.06275,0,0,1,2.8,2.2,5.995,5.995,0,0,1,.8,4,15.82583,15.82583,0,0,1-2.2,6c-1.3,2.2-2.7,3.8-3.8,4.2Zm1.6-17a.74954.74954,0,0,0-.5.1c-1.1.3-1.8,2-2.7,3.9-.4.9-.8,1.8-1.3,2.7a6.70432,6.70432,0,0,0-.3,5.5,11.0417,11.0417,0,0,0,2.6,4.3,1.38425,1.38425,0,0,0,1.4.3c1.1-.4,2.5-1.9,3.7-4.1a17.739,17.739,0,0,0,2.2-6c.3-3.8-1.1-4.7-3.5-6.1-.2-.1-.3-.2-.5-.3A3.03365,3.03365,0,0,0,158.7,701.4Z" transform="translate(-84.4 -681.96639)"/><path class="cls-1" d="M156.9,718.9a1.79673,1.79673,0,0,1-.9-.4,13.40785,13.40785,0,0,1-3-4.8,7.37459,7.37459,0,0,1,.3-6.2c.6-1,1-2,1.5-3,1-2.2,1.9-4,3.2-4.4a1.8278,1.8278,0,0,1,1.7.3,2.09151,2.09151,0,0,1,.6.4,8.34681,8.34681,0,0,1,3,2.4,6.35139,6.35139,0,0,1,.8,4.4,18.19361,18.19361,0,0,1-2.4,6.7c-1.4,2.5-3,4.2-4.2,4.6ZM158.7,700.1a1.26863,1.26863,0,0,0-.6.1c-1.2.4-2.1,2.2-3.1,4.4-.5,1-.9,2-1.5,3-2.2,3.8.4,8.6,2.6,10.9a1.359,1.359,0,0,0,1.5.3c1.2-.4,2.7-2.1,4.1-4.6a18.19312,18.19312,0,0,0,2.4-6.7c.3-4.2-1.2-5.1-3.8-6.7a2.09142,2.09142,0,0,1-.6-.4A1.92982,1.92982,0,0,0,158.7,700.1Z" transform="translate(-84.4 -681.96639)"/><path class="cls-1" d="M156.7,719.5a1.38863,1.38863,0,0,1-1-.5,17.39819,17.39819,0,0,1-3.3-5.3,10.60945,10.60945,0,0,1-.6-3.4,6.65055,6.65055,0,0,1,.9-3.4c.6-1.1,1.2-2.2,1.7-3.3,1.1-2.4,2.1-4.4,3.5-4.9a2.00151,2.00151,0,0,1,1.9.4,2.50708,2.50708,0,0,0,.7.4,11.19167,11.19167,0,0,1,3.3,2.6c.8,1.1,1.1,2.6.9,4.8a21.03283,21.03283,0,0,1-2.7,7.4c-1.6,2.7-3.3,4.6-4.6,5.1C157.2,719.4,157,719.5,156.7,719.5Zm2-20.8a1.26874,1.26874,0,0,0-.6.1c-1.4.4-2.3,2.4-3.5,4.8a25.85942,25.85942,0,0,1-1.7,3.3,6.396,6.396,0,0,0-.9,3.4,10.60921,10.60921,0,0,0,.6,3.4,15.2942,15.2942,0,0,0,3.3,5.3,1.33592,1.33592,0,0,0,1.7.3c1.3-.5,3-2.4,4.6-5.1a20.63224,20.63224,0,0,0,2.7-7.3c.4-4.6-1.3-5.6-4.2-7.3-.2-.1-.5-.3-.7-.4A3.625,3.625,0,0,0,158.7,698.7Z" transform="translate(-84.4 -681.96639)"/><path class="cls-1" d="M156.6,720a1.38863,1.38863,0,0,1-1-.5,17.60572,17.60572,0,0,1-3.6-5.8,8.22338,8.22338,0,0,1-.6-3.7,7.87349,7.87349,0,0,1,1-3.7,39.06271,39.06271,0,0,0,1.8-3.5c1.3-2.6,2.3-4.8,3.9-5.3a2.19082,2.19082,0,0,1,2,.4,4.05254,4.05254,0,0,0,.9.5,10.06277,10.06277,0,0,1,3.5,2.8c.9,1.2,1.2,2.8,1,5.2a23.46643,23.46643,0,0,1-2.9,8.1c-1.7,3-3.6,5-5,5.6A4.59259,4.59259,0,0,0,156.6,720Zm2.1-22.6a1.70225,1.70225,0,0,0-.7.1c-1.5.4-2.6,2.7-3.8,5.3-.6,1.2-1.1,2.4-1.8,3.6-2.8,4.8.9,10.7,3.2,13.2a1.69546,1.69546,0,0,0,1.8.4c1.4-.5,3.3-2.6,5-5.5,1.6-2.9,2.8-5.9,2.9-8,.4-4.9-1.4-6-4.5-7.9-.3-.2-.6-.3-.9-.5A1.54577,1.54577,0,0,0,158.7,697.4Z" transform="translate(-84.4 -681.96639)"/><path class="cls-1" d="M156.4,720.5a1.38187,1.38187,0,0,1-1.1-.6,18.93341,18.93341,0,0,1-3.9-6.3,11.64114,11.64114,0,0,1-.7-4,8.01666,8.01666,0,0,1,1.1-4c.7-1.3,1.4-2.6,2-3.8,1.4-2.8,2.6-5.3,4.2-5.7a2.59767,2.59767,0,0,1,2.2.4c.3.2.7.4,1,.6a13.28085,13.28085,0,0,1,3.8,3c.9,1.3,1.2,3,1,5.5a23.34834,23.34834,0,0,1-3.2,8.7c-1.8,3.2-3.9,5.5-5.5,6A1.82662,1.82662,0,0,1,156.4,720.5Zm2.3-24.5a2.20231,2.20231,0,0,0-.8.1c-1.6.5-2.8,2.9-4.2,5.7-.6,1.3-1.3,2.6-2,3.8a7.74229,7.74229,0,0,0-1.1,4,11.64116,11.64116,0,0,0,.7,4,17.9867,17.9867,0,0,0,3.9,6.3,1.64745,1.64745,0,0,0,2,.4c1.6-.6,3.6-2.8,5.4-6a23.34793,23.34793,0,0,0,3.2-8.7c.4-5.3-1.5-6.5-4.8-8.5a8.78778,8.78778,0,0,0-1-.6A3.49371,3.49371,0,0,0,158.7,696Z" transform="translate(-84.4 -681.96639)"/><path class="cls-1" d="M156.2,721.1a1.42555,1.42555,0,0,1-1.2-.6,20.26267,20.26267,0,0,1-4.2-6.8,14.06668,14.06668,0,0,1-.8-4.3,7.963,7.963,0,0,1,1.2-4.3,31.67789,31.67789,0,0,0,2.1-4.1c1.5-3,2.8-5.7,4.6-6.2a2.8084,2.8084,0,0,1,2.4.5,10.54032,10.54032,0,0,1,1.1.7c1.7,1.1,3.1,1.9,4,3.2,1,1.4,1.3,3.2,1.1,5.9a25.112,25.112,0,0,1-3.4,9.4c-2,3.5-4.2,5.9-5.9,6.5C156.8,721,156.5,721.1,156.2,721.1Zm2.5-26.4a2.20252,2.20252,0,0,0-.8.1c-1.8.5-3.1,3.1-4.5,6.1-.7,1.4-1.4,2.7-2.1,4.1a8.93945,8.93945,0,0,0-1.2,4.3,11.24916,11.24916,0,0,0,.8,4.3,19.32892,19.32892,0,0,0,4.2,6.8,1.85793,1.85793,0,0,0,2.1.5c1.7-.6,3.9-3,5.9-6.5a25.11157,25.11157,0,0,0,3.4-9.4c.4-5.7-1.6-7-5.1-9.1a6.72887,6.72887,0,0,1-1.1-.7A3.67653,3.67653,0,0,0,158.7,694.7Z" transform="translate(-84.4 -681.96639)"/><path class="cls-1" d="M156.2,721.6a2.23252,2.23252,0,0,1-1.3-.6,20.62576,20.62576,0,0,1-4.4-7.1,12.03748,12.03748,0,0,1-.9-4.5,11.30215,11.30215,0,0,1,.9-4.5c.3-.7.6-1.4.9-2a50.49947,50.49947,0,0,1,2.8-5.7,7.34286,7.34286,0,0,1,3.3-3.3,3.27688,3.27688,0,0,1,2.7.3c2.1,1.2,4,2.2,5.2,3.8a6.58211,6.58211,0,0,1,1.3,2.8,14.09364,14.09364,0,0,1,.2,4.2,25.90589,25.90589,0,0,1-3.5,9.8c-2,3.5-4.3,6-6.1,6.7C156.9,721.5,156.5,721.6,156.2,721.6Zm2.3-27.9a4.8701,4.8701,0,0,0-1.2.1A7.029,7.029,0,0,0,154,697a50.49717,50.49717,0,0,0-2.8,5.7c-.3.7-.6,1.4-.9,2a11.302,11.302,0,0,0-.9,4.5,12.85388,12.85388,0,0,0,.9,4.5,21.73343,21.73343,0,0,0,4.4,7.1,2.13307,2.13307,0,0,0,2.3.5c1.8-.6,4-3.1,6-6.6a24.9605,24.9605,0,0,0,3.5-9.7,14.0934,14.0934,0,0,0-.2-4.2A6.582,6.582,0,0,0,165,698c-1.2-1.6-3.1-2.6-5.2-3.8A2.541,2.541,0,0,0,158.5,693.7Z" transform="translate(-84.4 -681.96639)"/><path class="cls-1" d="M156.2,722.1a2.101,2.101,0,0,1-1.4-.7,21.77517,21.77517,0,0,1-4.7-7.3,15.87612,15.87612,0,0,1-1-4.6,12.68851,12.68851,0,0,1,.6-4.8c1.5-4.3,3.8-10.3,7.1-11.6a3.73324,3.73324,0,0,1,3.1.1c2.4,1.2,4.3,2.3,5.6,4.1,1.4,1.9,1.9,4.4,1.7,7.8-.2,2.8-1.6,6.6-3.6,10.1a26.12585,26.12585,0,0,1-3.1,4.4,7.2338,7.2338,0,0,1-3.2,2.4A4.48564,4.48564,0,0,1,156.2,722.1Zm2.2-29.3a3.416,3.416,0,0,0-1.7.3c-3.2,1.4-5.6,7.3-7,11.6a12.68891,12.68891,0,0,0-.6,4.8,15.2056,15.2056,0,0,0,1,4.6,20.82822,20.82822,0,0,0,4.7,7.3,2.278,2.278,0,0,0,2.5.5c1.8-.7,4.2-3.2,6.2-6.8a30.15713,30.15713,0,0,0,2.4-5.2,28.82212,28.82212,0,0,0,1.2-4.9c.3-3.4-.3-5.9-1.6-7.7a14.16315,14.16315,0,0,0-5.6-4A2.97653,2.97653,0,0,0,158.4,692.8Z" transform="translate(-84.4 -681.96639)"/><path class="cls-1" d="M156.2,722.6a2.12668,2.12668,0,0,1-1.5-.7,21.63139,21.63139,0,0,1-4.9-7.6,21.09532,21.09532,0,0,1-1.2-4.8,14.63649,14.63649,0,0,1,.3-5.1,31.5302,31.5302,0,0,1,2.7-7.3,11.80493,11.80493,0,0,1,4.3-4.9,4.03166,4.03166,0,0,1,3.7-.1,13.68414,13.68414,0,0,1,6,4.3c1.5,2.1,2.1,4.9,1.8,8.5a27.50863,27.50863,0,0,1-3.6,10.4,35.03062,35.03062,0,0,1-3.1,4.5,9.53695,9.53695,0,0,1-3.3,2.5A1.38294,1.38294,0,0,1,156.2,722.6Zm2.1-30.8a3.86716,3.86716,0,0,0-2.3.5,11.19371,11.19371,0,0,0-4.3,4.9,31.5283,31.5283,0,0,0-2.7,7.3,14.35218,14.35218,0,0,0-.3,5.1,16.90751,16.90751,0,0,0,1.2,4.8,21.22474,21.22474,0,0,0,4.9,7.5,2.38853,2.38853,0,0,0,2.7.5,8.49612,8.49612,0,0,0,3.2-2.5,19.74816,19.74816,0,0,0,3.1-4.5,27.50847,27.50847,0,0,0,3.6-10.4c.3-3.6-.3-6.4-1.8-8.5-1.2-1.8-3.1-3.1-6-4.3A4.95359,4.95359,0,0,0,158.3,691.8Z" transform="translate(-84.4 -681.96639)"/><path class="cls-1" d="M156.1,723.1a2.25424,2.25424,0,0,1-1.6-.8,22.01835,22.01835,0,0,1-5.1-7.8,20.44729,20.44729,0,0,1-1.3-10.3,21.61479,21.61479,0,0,1,2.5-7.4,13.52161,13.52161,0,0,1,4.5-5.3,4.95682,4.95682,0,0,1,4.4-.5,13.13874,13.13874,0,0,1,6.4,4.6,10.381,10.381,0,0,1,1.6,3.9,22.60678,22.60678,0,0,1,.3,5.3,27.24219,27.24219,0,0,1-3.7,10.8,28.47718,28.47718,0,0,1-3.2,4.6,9.34775,9.34775,0,0,1-3.4,2.6A1.817,1.817,0,0,1,156.1,723.1ZM158.2,690.9a4.86941,4.86941,0,0,0-3,.8,13.88726,13.88726,0,0,0-4.5,5.2,22.15042,22.15042,0,0,0-2.4,7.4,19.5262,19.5262,0,0,0,1.3,10.3,22.94633,22.94633,0,0,0,5.1,7.8,2.5704,2.5704,0,0,0,2.9.5,9.12776,9.12776,0,0,0,3.3-2.6,29.6634,29.6634,0,0,0,6.9-15.2,15.187,15.187,0,0,0-.3-5.3,11.43086,11.43086,0,0,0-1.6-3.9,12.83787,12.83787,0,0,0-6.3-4.6A2.734,2.734,0,0,0,158.2,690.9Z" transform="translate(-84.4 -681.96639)"/><path class="cls-1" d="M156.1,723.7a2.46469,2.46469,0,0,1-1.7-.8,22.39794,22.39794,0,0,1-5.3-8,22.69534,22.69534,0,0,1-1.4-5.1,25.97254,25.97254,0,0,1-.3-5.6,19.47313,19.47313,0,0,1,2.2-7.5,15.40429,15.40429,0,0,1,4.6-5.6,5.75072,5.75072,0,0,1,5.1-1,12.46565,12.46565,0,0,1,6.8,4.9c1.7,2.6,2.4,5.9,2,10a28.22567,28.22567,0,0,1-3.8,11.1,29.78592,29.78592,0,0,1-3.3,4.7,9.57889,9.57889,0,0,1-3.5,2.6A3.19563,3.19563,0,0,1,156.1,723.7Zm2.1-33.8a5.97,5.97,0,0,0-3.9,1.2,15.55673,15.55673,0,0,0-4.6,5.6,19.2723,19.2723,0,0,0-2.1,7.5,25.97109,25.97109,0,0,0,.3,5.6,29.58563,29.58563,0,0,0,1.4,5.1,22.39794,22.39794,0,0,0,5.3,8,2.71769,2.71769,0,0,0,3.1.5,9.34846,9.34846,0,0,0,3.4-2.6,24.78884,24.78884,0,0,0,3.3-4.6,29.93074,29.93074,0,0,0,3.8-11.1,16.53435,16.53435,0,0,0-2-10,12.58329,12.58329,0,0,0-6.7-4.9A11.13922,11.13922,0,0,0,158.2,689.9Z" transform="translate(-84.4 -681.96639)"/><path class="cls-1" d="M156.1,724.2a2.97847,2.97847,0,0,1-1.8-.8,22.36808,22.36808,0,0,1-5.5-8.2,29.01911,29.01911,0,0,1-2.1-11.2,17.94157,17.94157,0,0,1,6.4-13.4c2-1.5,4.1-2.1,6-1.5a12.26078,12.26078,0,0,1,7.1,5.2A12.12988,12.12988,0,0,1,168,699a20.16393,20.16393,0,0,1,.3,6.1,30.6342,30.6342,0,0,1-3.8,11.4,25.76712,25.76712,0,0,1-3.3,4.7,8.93239,8.93239,0,0,1-3.5,2.7A4.53036,4.53036,0,0,1,156.1,724.2Zm2-35.3a7.50505,7.50505,0,0,0-4.9,1.7,16.01285,16.01285,0,0,0-4.6,5.8,17.53264,17.53264,0,0,0-1.8,7.5,28.87032,28.87032,0,0,0,2.1,11.1,22.77149,22.77149,0,0,0,5.5,8.2,2.83845,2.83845,0,0,0,3.3.5,8.93233,8.93233,0,0,0,3.5-2.7,29.78528,29.78528,0,0,0,3.3-4.7,29.45037,29.45037,0,0,0,3.8-11.4,19.50268,19.50268,0,0,0-.3-6,15.77182,15.77182,0,0,0-1.8-4.6,12.58334,12.58334,0,0,0-7.1-5.2C158.8,689,158.4,689,158.1,688.9Z" transform="translate(-84.4 -681.96639)"/><path class="cls-1" d="M156.1,724.7a3.06538,3.06538,0,0,1-1.9-.9,22.34946,22.34946,0,0,1-5.7-8.5,36.05452,36.05452,0,0,1-2.5-11.6,14.64537,14.64537,0,0,1,1.5-7.5,18.63284,18.63284,0,0,1,4.5-6.1c2.3-2,4.8-2.7,7-2.2a12.0027,12.0027,0,0,1,7.5,5.5,16.898,16.898,0,0,1,2,5,22.40086,22.40086,0,0,1,.3,6.4,23.37075,23.37075,0,0,1-1.3,5.9,44.07009,44.07009,0,0,1-2.6,5.9,26.91972,26.91972,0,0,1-3.4,4.8,11.75065,11.75065,0,0,1-3.6,2.8A2.1933,2.1933,0,0,1,156.1,724.7Zm2-36.7c-1.9-.2-4,.7-6,2.3a18.21527,18.21527,0,0,0-4.5,6,14.48217,14.48217,0,0,0-1.5,7.4c.6,8.8,3.4,15.5,8.2,20a3.206,3.206,0,0,0,3.5.6,9.54123,9.54123,0,0,0,3.6-2.8,25.55355,25.55355,0,0,0,3.4-4.8,34.17552,34.17552,0,0,0,2.6-5.9,28.72019,28.72019,0,0,0,1.3-5.9,22.40032,22.40032,0,0,0-.3-6.4,14.88251,14.88251,0,0,0-1.9-5,12.00273,12.00273,0,0,0-7.5-5.5Q158.55,688,158.1,688Z" transform="translate(-84.4 -681.96639)"/><path class="cls-1" d="M156.1,725.2a4.02459,4.02459,0,0,1-2-.9c-4.8-4.4-7.6-10.8-8.9-20.7a14.10673,14.10673,0,0,1,1.2-7.4,18.16135,18.16135,0,0,1,4.3-6.2,13.28482,13.28482,0,0,1,3.9-2.6,6.54364,6.54364,0,0,1,4.1-.4,11.34519,11.34519,0,0,1,4.5,2,12.40736,12.40736,0,0,1,3.4,3.8c2,3.2,2.8,7.5,2.4,12.2a24.768,24.768,0,0,1-1.3,6.1,35.63446,35.63446,0,0,1-2.7,6,28.10327,28.10327,0,0,1-3.5,4.9,9.75891,9.75891,0,0,1-3.7,2.8A2.09025,2.09025,0,0,1,156.1,725.2ZM158,687a8.05389,8.05389,0,0,0-3.3.5,12.88085,12.88085,0,0,0-3.9,2.5,19.17727,19.17727,0,0,0-4.3,6.2,14.10644,14.10644,0,0,0-1.2,7.4c1.3,9.9,4.1,16.3,8.9,20.7a3.31911,3.31911,0,0,0,3.7.6,10.93361,10.93361,0,0,0,3.7-2.8,28.101,28.101,0,0,0,3.5-4.9,35.63286,35.63286,0,0,0,2.7-6,24.7693,24.7693,0,0,0,1.3-6.1,20.806,20.806,0,0,0-2.4-12.2,13.83932,13.83932,0,0,0-3.4-3.8,11.503,11.503,0,0,0-4.5-2A2.201,2.201,0,0,0,158,687Z" transform="translate(-84.4 -681.96639)"/><path class="cls-1" d="M156.1,725.8a3.98074,3.98074,0,0,1-2.1-.9c-5.5-4.9-7.7-11.8-9.5-21.4a14.37118,14.37118,0,0,1,.8-7.3,18.52888,18.52888,0,0,1,4.1-6.3,14.91962,14.91962,0,0,1,4.5-3.2,8.001,8.001,0,0,1,4.7-.7,11.56194,11.56194,0,0,1,4.7,2,13.14222,13.14222,0,0,1,3.6,4.1,19.98822,19.98822,0,0,1,2.2,5.8,24.13848,24.13848,0,0,1,.4,7.2,32.18078,32.18078,0,0,1-4.1,12.5c-2.3,4.1-5,7-7.4,7.9A6.27682,6.27682,0,0,1,156.1,725.8ZM158,686a8.429,8.429,0,0,0-4,.8,16.047,16.047,0,0,0-4.4,3.1,18.52888,18.52888,0,0,0-4.1,6.3,12.24758,12.24758,0,0,0-.8,7.2c1.8,9.5,4,16.4,9.5,21.3a3.466,3.466,0,0,0,3.9.6,11.64516,11.64516,0,0,0,3.8-2.9,24.48831,24.48831,0,0,0,3.5-5,31.75784,31.75784,0,0,0,4.1-12.4,23.6669,23.6669,0,0,0-.4-7.1,16.94373,16.94373,0,0,0-2.2-5.7,13.93911,13.93911,0,0,0-3.6-4,11.56194,11.56194,0,0,0-4.7-2A.735.735,0,0,0,158,686Z" transform="translate(-84.4 -681.96639)"/><path class="cls-1" d="M156.1,726.3a4.00845,4.00845,0,0,1-2.2-1,23.90272,23.90272,0,0,1-6.3-9.2,82.14158,82.14158,0,0,1-3.8-12.9,13.82446,13.82446,0,0,1,.5-7.2,17.8231,17.8231,0,0,1,3.9-6.4,16.20274,16.20274,0,0,1,5-3.8,9.4572,9.4572,0,0,1,5.3-1c3.5.5,6.6,2.8,8.7,6.4a23.36575,23.36575,0,0,1,2.3,6.1,26.62187,26.62187,0,0,1,.4,7.5,32.94325,32.94325,0,0,1-4.1,12.8c-2.3,4.2-5.1,7.1-7.5,8.1A3.86475,3.86475,0,0,1,156.1,726.3ZM158,685a9.66339,9.66339,0,0,0-4.8,1,17.46187,17.46187,0,0,0-5,3.8,19.98709,19.98709,0,0,0-3.9,6.3,12.51432,12.51432,0,0,0-.5,7.1,80.80881,80.80881,0,0,0,3.8,12.8,24.29028,24.29028,0,0,0,6.3,9.1,3.96218,3.96218,0,0,0,4.2.6c2.4-1,5.2-3.9,7.5-8.1a32.43234,32.43234,0,0,0,4.1-12.8,26.41521,26.41521,0,0,0-.4-7.5,19.32234,19.32234,0,0,0-2.3-6.1c-2.1-3.6-5.1-5.8-8.6-6.3A.60112.60112,0,0,1,158,685Z" transform="translate(-84.4 -681.96639)"/><path class="cls-1" d="M156.1,726.8a4.29593,4.29593,0,0,1-2.3-1c-5.8-5.1-7.6-11.5-10.4-21.2-.1-.5-.3-1-.4-1.5a11.98266,11.98266,0,0,1,.2-7,20.51745,20.51745,0,0,1,3.6-6.4,19.44845,19.44845,0,0,1,5.5-4.5,10.27406,10.27406,0,0,1,5.9-1.3c3.7.5,6.9,2.8,9.1,6.7a25.74347,25.74347,0,0,1,2.8,14.4,33.9649,33.9649,0,0,1-4.2,13.1c-2.3,4.2-5.1,7.2-7.7,8.3A3.19014,3.19014,0,0,1,156.1,726.8Zm1.8-42.8a10.54913,10.54913,0,0,0-5.5,1.3,19.06426,19.06426,0,0,0-5.5,4.4,18.69952,18.69952,0,0,0-3.6,6.4,11.99864,11.99864,0,0,0-.2,7c.1.5.3,1,.4,1.5,2.8,9.7,4.6,16.1,10.3,21.2a3.99584,3.99584,0,0,0,2.3,1,3.94771,3.94771,0,0,0,2.1-.4c2.5-1,5.3-4,7.6-8.2a33.96527,33.96527,0,0,0,4.2-13.1,25.74364,25.74364,0,0,0-2.8-14.4c-2.2-3.8-5.4-6.2-9-6.6A.36727.36727,0,0,0,157.9,684Z" transform="translate(-84.4 -681.96639)"/><path class="cls-1" d="M156.1,727.3h-.2a3.71929,3.71929,0,0,1-2.2-1,24.03581,24.03581,0,0,1-6.1-8.1,76.12053,76.12053,0,0,1-4-11c-.4-1.4-.9-2.8-1.4-4.2a11.59332,11.59332,0,0,1,0-6.9,18.08718,18.08718,0,0,1,3.4-6.4c3.5-4.3,8.4-7,12.3-6.7h.2c3.8.4,7.2,2.9,9.5,7a26.67474,26.67474,0,0,1,2.9,15.2,33.77864,33.77864,0,0,1-4.3,13.5c-2.4,4.3-5.2,7.4-7.8,8.4A5.99912,5.99912,0,0,1,156.1,727.3Zm1.8-44.3c-3.9-.3-8.7,2.4-12.2,6.7a18.08654,18.08654,0,0,0-3.4,6.4,11.59336,11.59336,0,0,0,0,6.9c.5,1.5.9,2.9,1.4,4.2,2.8,8.6,4.6,14.3,10,19a4.21937,4.21937,0,0,0,4.6.6c2.6-1.1,5.4-4.1,7.8-8.4a35.53421,35.53421,0,0,0,4.3-13.4,27.34906,27.34906,0,0,0-2.9-15.1c-2.3-4.1-5.6-6.5-9.4-6.9Z" transform="translate(-84.4 -681.96639)"/><path class="cls-1" d="M156.1,727.9h-.2a4.7702,4.7702,0,0,1-2.4-1.1,23.54332,23.54332,0,0,1-5.9-7.6,71.31,71.31,0,0,1-3.9-10.1c-.7-2-1.4-4-2.2-6.3a11.19585,11.19585,0,0,1-.3-6.8,16.08557,16.08557,0,0,1,3.2-6.4,21.7338,21.7338,0,0,1,6.4-5.7,12.48063,12.48063,0,0,1,7.1-1.9,10.85567,10.85567,0,0,1,5.6,2.2,15.568,15.568,0,0,1,4.3,5.1,23.72776,23.72776,0,0,1,2.6,7.2,31.39109,31.39109,0,0,1,.5,8.7,35.07589,35.07589,0,0,1-4.3,13.8c-2.4,4.4-5.3,7.5-8,8.6A11.34528,11.34528,0,0,1,156.1,727.9Zm1.8-45.9a12.37259,12.37259,0,0,0-7,1.9,21.73389,21.73389,0,0,0-6.4,5.7,17.24872,17.24872,0,0,0-3.1,6.4,11.19567,11.19567,0,0,0,.3,6.8c.8,2.3,1.5,4.3,2.2,6.3a83.88235,83.88235,0,0,0,3.9,10,23.54347,23.54347,0,0,0,5.9,7.6,4.40958,4.40958,0,0,0,4.8.7c2.6-1.1,5.5-4.2,7.9-8.5a35.07682,35.07682,0,0,0,4.3-13.8,30.44992,30.44992,0,0,0-.5-8.6,22.79474,22.79474,0,0,0-2.6-7.2,16.67068,16.67068,0,0,0-4.3-5.1A9.21405,9.21405,0,0,0,157.9,682Z" transform="translate(-84.4 -681.96639)"/></svg>