<svg fill="#ffffff" id="Режим_изоляции" data-name="Режим изоляции" xmlns="http://www.w3.org/2000/svg" viewBox="0 0 144.60002 110.90002"><polygon points="31.3 62.9 30.7 13.1 27.9 13.2 28.5 62.9 31.3 62.9"/><path d="M168.1,567l-.6-50.7,3.8-.1.6,50.7Zm.4-49.7.6,48.7h1.8l-.6-48.7Z" transform="translate(-140.09999 -503.59998)"/><path d="M169.5,521.6c-2.2,0-4.2-7.5-4.2-11-.1-3.6,1.7-6.5,4-6.5,2.2,0,4.1,2.8,4.2,6.4C173.5,514,171.8,521.6,169.5,521.6Z" transform="translate(-140.09999 -503.59998)"/><path d="M169.5,522.1c-2.8,0-4.7-8.1-4.7-11.5-.1-3.9,1.9-7,4.5-7a3.77807,3.77807,0,0,1,3.3,2.1,9.28421,9.28421,0,0,1,1.3,4.8c.1,3.40006-1.6,11.6-4.4,11.6Zm-.2-17.5h0c-2,0-3.6,2.8-3.5,6,.1,4,2.2,10.6,3.7,10.6h0c1.6,0,3.5-6.6,3.4-10.7a7.72437,7.72437,0,0,0-1.2-4.3A2.8638,2.8638,0,0,0,169.3,504.6Z" transform="translate(-140.09999 -503.59998)"/><path d="M213,599.8a29.37491,29.37491,0,0,1-5.4-4.2c-2.5-3.2-4.8-8-6.8-12.2a50.91475,50.91475,0,0,0-3.5-6.6c-2.3-3-10.3-10-13.8-12-2.3-1.3-5.4-4.8-7.7-7.4a20.95392,20.95392,0,0,0-2.7-2.9c-.1,0-.3.1-.6.4-1,1.3-1.4,4.3,1.4,7l.1.1s3,4.5,4.8,5.6l-.5.9c-2-1.1-4.8-5.3-5.1-5.8-3.2-3.2-2.6-6.8-1.5-8.3.7-.9,1.4-1,1.9-.7a22.0881,22.0881,0,0,1,3,3.1c2.2,2.5,5.2,6,7.4,7.2,3.5,2,11.7,9.1,14.1,12.2a43.53182,43.53182,0,0,1,3.6,6.8c1.9,4,4.2,8.9,6.7,12,.6.8,2.4,2.1,5.1,4Z" transform="translate(-140.09999 -503.59998)"/><path d="M180.1,579.6a17.96474,17.96474,0,0,1-4.6-.9c-2.7-.8-4.5-1.4-5.8-1.9a6.83278,6.83278,0,0,0-2.7-.7l-.1-1c.8-.1,1.6.2,3.2.8,1.3.5,3.1,1.1,5.7,1.9,3.9,1.1,4.9.8,5.1.8v-.1c.5-.9-.2-4.2-.9-6.4l1-.3c.3.9,1.6,5.5.8,7.1a.536.536,0,0,1-.3.4A2.41941,2.41941,0,0,1,180.1,579.6Z" transform="translate(-140.09999 -503.59998)"/><path d="M201.2,614.1c-1.7-1.6-3-2.8-3.6-3.4-4.2-4.3-16.8-8.8-16.9-8.8-3-1.1-7.5-2.8-11.8-4.3-6.4-2.3-10.4-3.7-11-4.1-1.4-.8-6.1-13.5-5.2-15.5s9.9-8.5,10.7-8.8,8.1-1.4,9-1.6c8.9-.5,12.2.8,12.3.8l.4.1-.1.4c-.4,3-7.8,4.6-8.6,4.8q-.9.15-2.1.3a38.29123,38.29123,0,0,0-4.2.8,12.79366,12.79366,0,0,0-4.5,2.4c-1.2,1-2.3,2-2.3,2.8.1,2.3,1.1,2.9,1.4,3a42.905,42.905,0,0,1,35.8,7.6l-.6.8a41.82318,41.82318,0,0,0-35-7.3h-.2c-.1,0-2.1-.4-2.3-4-.1-1.2,1-2.3,2.6-3.6a11.83861,11.83861,0,0,1,4.9-2.6c1.5-.3,3-.6,4.3-.8q1.05-.15,2.1-.3c2.7-.6,6.9-2,7.7-3.6-1.1-.3-4.6-1-11.4-.6-3.1.5-8.2,1.3-8.7,1.5-.8.3-9.4,6.6-10.1,8.2-.7,1.5,3.7,13.4,4.7,14.3.6.3,5.8,2.2,10.8,4,4.3,1.6,8.8,3.2,11.8,4.3.5.2,12.9,4.6,17.3,9.1.7.7,1.9,1.8,3.6,3.4Z" transform="translate(-140.09999 -503.59998)"/><path d="M153,578.5c-1.6-1-3.3-2.1-3.8-3.4-.4-1.1,0-2.3.5-3.8a23.566,23.566,0,0,0,.9-3.6c.1-.5,1.1-4.2,2.3-4.6,3.4-1.3,11.4-7.1,11.4-7.2,2.6-2.2,3.4-2.4,3.9-2a.9199.9199,0,0,1,.1,1.2c.6,4.6-7.1,10.5-7.4,10.7-1.3,1.3-2,2.5-1.9,3.7a2.95946,2.95946,0,0,0,1,2l-.6.8a3.65541,3.65541,0,0,1-1.4-2.8c-.1-1.5.7-3,2.3-4.5.1-.1,7.8-5.9,7-10v-.2h0a15.05726,15.05726,0,0,0-2.4,1.8c-.4.3-8.2,6-11.7,7.3-.5.2-1.5,3-1.6,3.8a25.11882,25.11882,0,0,1-.9,3.7c-.4,1.4-.8,2.4-.5,3.2.3,1,2.1,2.1,3.3,2.9Z" transform="translate(-140.09999 -503.59998)"/><path d="M147.4,579.2a13.166,13.166,0,0,1-4.3-7.3,7.08382,7.08382,0,0,1,.4-6.3,105.61679,105.61679,0,0,0,10.1-15.6c.6-1.4,1.2-2.2,2-2.4a1.25487,1.25487,0,0,1,1.1.2l.1.2c2.6,4.9-3.1,15.4-3.3,15.8l-.9-.5c.1-.1,5.6-10.3,3.4-14.7h-.2c-.2.1-.7.4-1.3,1.8-1.2,2.9-7.8,13.1-10.2,15.8a6.52094,6.52094,0,0,0-.2,5.4v.1a11.88448,11.88448,0,0,0,4,6.7Z" transform="translate(-140.09999 -503.59998)"/><path d="M154.7,586.5c-1.3-1-3-2.1-4.9-3.3-3.3-2.1-6.8-4.3-8.1-6.4-2-3.4-1.4-11.7-1.3-12.1.7-5-.2-14.9-.2-15l-.1-.7.7.2c7.3,2.1,6,13.3,5.9,13.8l-1-.1c0-.1,1.2-10-4.5-12.4.2,2.5.7,10.1.1,14.4,0,.1-.6,8.4,1.2,11.5,1.2,2,4.5,4.1,7.8,6.1a47.67084,47.67084,0,0,1,5,3.4Z" transform="translate(-140.09999 -503.59998)"/><path d="M260.6,594.3c-2.7,0-6.2-1.7-9.9-4.8-5.8-4.9-11.6-13.1-11.7-20.5-.1-8.6,6-17.4,11.1-23.2A95.48507,95.48507,0,0,1,261.3,535l.2-.2.2.1a13.44212,13.44212,0,0,0,4.8.3,1.76533,1.76533,0,0,1,1.7.7c1.5,1.6,2,6.3.2,11.7l-.2.5c-2.2,6.4-8.7,25.7-4,31.5,3.1,3.7,4.2,7.7,3.1,10.7-.6,1.5-2.1,3.5-5.8,4.1A2.7696,2.7696,0,0,0,260.6,594.3Zm1.2-58.4c-2.2,1.7-21.9,18-21.7,33.1.1,7.1,5.7,15,11.3,19.8,3.8,3.2,7.5,4.9,10,4.5,2.6-.4,4.3-1.6,5-3.5,1-2.6-.1-6.3-2.9-9.7-5.1-6.2,1.4-25.2,3.9-32.4l.2-.5c1.8-5.3,1.1-9.5,0-10.7-.4-.4-.7-.4-.8-.3A12.22492,12.22492,0,0,1,261.8,535.9Z" transform="translate(-140.09999 -503.59998)"/><path d="M259.9,584.4c-1.6,0-3.9-1.1-7.1-3.5-9.1-6.6-12-11.6-10.3-17.6,1.3-4.6,11.5-18.9,17.4-19.3a3.27944,3.27944,0,0,1,3.3,2.2v.2l.4,4.7-.7-.2c-4.9-1.6-11.6,1.3-11.6,1.3l-.2-.5c-3.7,4.3-7,9.5-7.6,11.8-1.6,5.6,1.2,10.2,9.9,16.6,5.1,3.7,6.8,3.4,7.3,3.1.6-.4.5-1.4.5-1.4l1-.1a2.54227,2.54227,0,0,1-1,2.4A2.76844,2.76844,0,0,1,259.9,584.4Zm.3-39.4H260c-2.2.1-5.3,2.7-8.2,5.9,2-.7,6.7-2.2,10.7-1.2l-.3-3.2A2.09473,2.09473,0,0,0,260.2,545Z" transform="translate(-140.09999 -503.59998)"/><path d="M266.3,536.1c-3.8-2.9-3-5.9-3-6l1,.3c0,.1-.6,2.5,2.6,5Z" transform="translate(-140.09999 -503.59998)"/><path d="M249.5,614.5a76.38475,76.38475,0,0,1-17-2.3l.2-1c12.8,3,28.8,4.5,32-5l.1-.2c.5-1.3-.1-3-.9-5.4-.2-.8-.5-1.6-.8-2.5-1.2-4.1.9-5.1.9-5.2l.4.9s-1.4.7-.4,4c.3.9.5,1.7.8,2.4.8,2.6,1.5,4.5.9,6.1l-.1.2C263.6,612.5,257.1,614.5,249.5,614.5Z" transform="translate(-140.09999 -503.59998)"/><path d="M259.8,579a82.76659,82.76659,0,0,1,2.8-27.3l1,.3c0,.1-4,13-2.8,26.9Z" transform="translate(-140.09999 -503.59998)"/><path d="M253.9,581.2c-2.4-13-11.6-13.3-12-13.3v-1c.1,0,10.4.3,13,14.2Z" transform="translate(-140.09999 -503.59998)"/><polyline points="144.4 42.3 116.2 57.2 115.2 55.2 143.3 40.3"/><polygon points="116 57.9 114.5 55 143.1 39.8 143.6 40.7 115.8 55.4 116.5 56.5 144.2 41.9 144.6 42.8 116 57.9"/><path d="M259.3,557.9c.9,1.6-3.9,5.9-6.5,7.3s-5.4,1.2-6.3-.5c-.9-1.6.5-4.1,3.1-5.5S258.5,556.2,259.3,557.9Z" transform="translate(-140.09999 -503.59998)"/><path d="M249.4,566.6a3.4519,3.4519,0,0,1-3.3-1.7c-1-1.9.5-4.6,3.3-6.1A21.66121,21.66121,0,0,1,255,557c2.6-.5,4.2-.2,4.7.7.5,1-.2,2.4-2.1,4.3a21.06535,21.06535,0,0,1-4.7,3.6A7.75483,7.75483,0,0,1,249.4,566.6Zm7.9-8.9a20.61274,20.61274,0,0,0-2.1.2,19.40863,19.40863,0,0,0-5.3,1.7c-2.3,1.2-3.7,3.4-2.9,4.8.7,1.4,3.3,1.5,5.6.3a21.74419,21.74419,0,0,0,4.4-3.4c1.6-1.6,2.1-2.7,1.9-3.1h0C258.8,557.9,258.2,557.7,257.3,557.7Z" transform="translate(-140.09999 -503.59998)"/></svg>