<svg fill="#ffffff" id="Режим_изоляции" data-name="Режим изоляции" xmlns="http://www.w3.org/2000/svg" viewBox="0 0 202.00002 193.40002"><path d="M301.2,499.3h-3V483.6h4.1a8.1,8.1,0,0,0,0-16.2H245.5a8.1,8.1,0,1,0,0,16.2h4.1v15.7h-3V486.6h-1.1a11.1,11.1,0,1,1,0-22.2h56.8a11.1,11.1,0,0,1,0,22.2h-1.1Z" transform="translate(-111.4 -464.39997)"/><path d="M273.9,657.8a27.3351,27.3351,0,0,1-27.3-27.3V507.3h3V630.5a24.3,24.3,0,0,0,48.6,0V507.3h3V630.5A27.33505,27.33505,0,0,1,273.9,657.8Z" transform="translate(-111.4 -464.39997)"/><path d="M148.9,499.3h-3V488.8h-1.5a10.5,10.5,0,0,1,0-21h46a10.5,10.5,0,0,1,0,21h-1.5v9.5h-3V485.8h4.5a7.5,7.5,0,0,0,0-15h-46a7.5,7.5,0,0,0,0,15h4.5Z" transform="translate(-111.4 -464.39997)"/><path d="M186.3,654.8H147.5a36.1481,36.1481,0,0,1-36.1-36.1v-.2l8-63.7a35.977,35.977,0,0,1,26.5-34.7V507.3h3v15.1l-1.1.3a33.06229,33.06229,0,0,0-25.4,32.2v.2l-8,63.7a33.18276,33.18276,0,0,0,33.1,33h38.8a33.11819,33.11819,0,0,0,33.1-33l-7-63.8A32.95572,32.95572,0,0,0,187,522.8l-1.1-.3V507.4h3v12.8a35.977,35.977,0,0,1,26.5,34.7l7,63.8A36.14809,36.14809,0,0,1,186.3,654.8Z" transform="translate(-111.4 -464.39997)"/><path d="M278.7,625.3a10.1,10.1,0,1,1,10.1-10.1A10.07206,10.07206,0,0,1,278.7,625.3Zm0-19.2a9.1,9.1,0,1,0,9.1,9.1A9.13321,9.13321,0,0,0,278.7,606.1Z" transform="translate(-111.4 -464.39997)"/><path d="M267.4,591.3a10.1,10.1,0,1,1,10.1-10.1A10.07206,10.07206,0,0,1,267.4,591.3Zm0-19.3a9.1,9.1,0,1,0,9.1,9.1A9.13321,9.13321,0,0,0,267.4,572Z" transform="translate(-111.4 -464.39997)"/><path d="M157.4,587.3a10.1,10.1,0,1,1,10.1-10.1A10.07206,10.07206,0,0,1,157.4,587.3Zm0-19.3a9.1,9.1,0,1,0,9.1,9.1A9.13321,9.13321,0,0,0,157.4,568Z" transform="translate(-111.4 -464.39997)"/><path d="M180.4,560.3a10.1,10.1,0,1,1,10.1-10.1A10.07206,10.07206,0,0,1,180.4,560.3Zm0-19.3a9.1,9.1,0,1,0,9.1,9.1A9.13321,9.13321,0,0,0,180.4,541Z" transform="translate(-111.4 -464.39997)"/><path d="M161.4,546.3a10.1,10.1,0,1,1,10.1-10.1A10.07206,10.07206,0,0,1,161.4,546.3Zm0-19.3a9.1,9.1,0,1,0,9.1,9.1A9.13321,9.13321,0,0,0,161.4,527Z" transform="translate(-111.4 -464.39997)"/><path d="M283.5,545.8a5.3,5.3,0,1,1,5.3-5.3A5.27081,5.27081,0,0,1,283.5,545.8Zm0-9.6a4.3,4.3,0,1,0,4.3,4.3A4.26818,4.26818,0,0,0,283.5,536.2Z" transform="translate(-111.4 -464.39997)"/><path d="M206.8,635.8a244.93667,244.93667,0,0,0-39.9-3,244.93692,244.93692,0,0,0-39.9,3l-.2-1a247.6405,247.6405,0,0,1,40.1-3,247.64108,247.64108,0,0,1,40.1,3Z" transform="translate(-111.4 -464.39997)"/><path d="M306.9,508.8h-169a5.5,5.5,0,0,1,0-11h169a5.54882,5.54882,0,0,1,5.5,5.5A5.484,5.484,0,0,1,306.9,508.8Zm-169-8a2.5,2.5,0,0,0,0,5h169a2.5,2.5,0,0,0,0-5Z" transform="translate(-111.4 -464.39997)"/></svg>