<svg id="Слой_1" data-name="Слой 1" xmlns="http://www.w3.org/2000/svg" viewBox="0 0 173.20044 135.1001"><defs><style>.cls-1{fill:#ffffff;}</style></defs><path class="cls-1" d="M3415.80005,6879.7002a9.82868,9.82868,0,0,1-4.3999-5.6001,8.1817,8.1817,0,0,1,2.2-8.1001,6.38891,6.38891,0,0,1,8.3999-.10009,7.4312,7.4312,0,0,1,1.8,7.2998,20.45907,20.45907,0,0,1-3.3,6.3999l-1.7-1.10009a18.35762,18.35762,0,0,0,3-5.7002,5.82367,5.82367,0,0,0-1.19995-5.3999,4.402,4.402,0,0,0-5.7.20019,6.06119,6.06119,0,0,0-1.6001,6.1001,7.52124,7.52124,0,0,0,3.3999,4.3999Z" transform="translate(-3334.19995 -6805.29981)"/><path class="cls-1" d="M3417.7,6876.89991c-.80005,0-2.30005-.39991-3.30005-3h0a5.3402,5.3402,0,0,1,.30005-4.79981,3.9788,3.9788,0,0,1,2.19995-1.6001,3.117,3.117,0,0,1,2.7.29981,4.52251,4.52251,0,0,1,1.69995,3.8999c-.10009,2.6001-1.5,4.79981-3.19995,5.1001A.75474.75474,0,0,1,3417.7,6876.89991Zm-1.3999-3.69971c.3999,1.1001,1,1.7998,1.5,1.7998.6001-.10009,1.5-1.3999,1.6001-3.20019,0-.3999,0-1.7002-.8-2.2002a1.11034,1.11034,0,0,0-1.1001-.10009,2.09828,2.09828,0,0,0-1.1001.7998A2.9185,2.9185,0,0,0,3416.30005,6873.2002Z" transform="translate(-3334.19995 -6805.29981)"/><path class="cls-1" d="M3421.7,6884.6001h-.6001l-7.3999-.2998c-.8999,0-2.8999-.1001-3.80005-1.7002a2.75279,2.75279,0,0,1-.19995-2.20019,3.96076,3.96076,0,0,1,1.8-2.2002,7.50746,7.50746,0,0,1,4.1001-.5l-.1001,2a5.02079,5.02079,0,0,0-3,.29981,1.5902,1.5902,0,0,0-.8,1,.63712.63712,0,0,0,0,.60009c.3.5,1.3.6001,2.19995.7002l7.3999.2998c.80005,0,1.6001,0,1.89991-.3999.30005-.2998.10009-1-.39991-1.3999a6.18327,6.18327,0,0,0-2.5-.8999l.39991-2a8.48658,8.48658,0,0,1,3.3999,1.2998,3.22833,3.22833,0,0,1,.69995,4.2002A3.75575,3.75575,0,0,1,3421.7,6884.6001Z" transform="translate(-3334.19995 -6805.29981)"/><path class="cls-1" d="M3418,6874.29981a238.75431,238.75431,0,0,1-83.8-67.7002l1.6001-1.20019a237.8935,237.8935,0,0,0,83.1001,67.20019Z" transform="translate(-3334.19995 -6805.29981)"/><path class="cls-1" d="M3423.6001,6874.29981l-.8999-1.79981a236.78039,236.78039,0,0,0,83.10009-67.20019l1.6001,1.20019A237.5142,237.5142,0,0,1,3423.6001,6874.29981Z" transform="translate(-3334.19995 -6805.29981)"/><path class="cls-1" d="M3417.3999,6940.39991a29.2002,29.2002,0,1,1,29.2-29.2002A29.23427,29.23427,0,0,1,3417.3999,6940.39991Zm0-56.39991a27.2002,27.2002,0,1,0,27.2,27.2002A27.22853,27.22853,0,0,0,3417.3999,6884Z" transform="translate(-3334.19995 -6805.29981)"/></svg>