<svg id="Режим_изоляции" data-name="Режим изоляции" xmlns="http://www.w3.org/2000/svg" viewBox="0 0 43.40004 42.02511"><defs><style>.cls-1{fill:#ef8993;}.cls-2{fill:none;}</style></defs><path class="cls-1" d="M219.3,555.3h0a.75836.75836,0,0,0,.4.2h.3a5.15119,5.15119,0,0,0,1.8-2,8.51152,8.51152,0,0,0,1.1-3v-.69995a2.41029,2.41029,0,0,0-.4-1.5l-.3-.3a10.47363,10.47363,0,0,0-1.1-.8c-.1-.1-.2-.1-.3-.2a.78277.78277,0,0,0-.8-.1c-.6.2-.9,1-1.4,1.9a8.26173,8.26173,0,0,1-.7,1.3,3.25542,3.25542,0,0,0-.4,1.4h0a7.84525,7.84525,0,0,0,.2,1.4A12.44851,12.44851,0,0,0,219.3,555.3Zm.3.1Zm.3-8.1-.1.1h0c0,.00006,0,.00006.1-.1Zm-.3,8.1Zm.3-8-.2.2.2-.2Zm-.3,7.9h.4a2.69992,2.69992,0,0,0,1.1-.9,2.70036,2.70036,0,0,1-1.1.9h-.4Zm3.3-5a.75609.75609,0,0,1-.1.4v-.89991A1.33745,1.33745,0,0,1,222.9,550.3Zm-1.8,4.1c-.1.1-.2.3-.3.4l-.2.2A3.81218,3.81218,0,0,0,221.1,554.4Zm1.8-4.1a8.099,8.099,0,0,1-1.1,2.9,4.48838,4.48838,0,0,1-1.8,2c-.2.1-.5.1-.6-.1a6.66228,6.66228,0,0,1-1.3-2.1,5.019,5.019,0,0,1-.2-1.2,2.00977,2.00977,0,0,1,.4-1.3c.2-.4.5-.9.7-1.3.5-.9.8-1.8,1.4-1.9h.3a1.68856,1.68856,0,0,1,.5.2c.1.1.2.1.3.2.4.3.8.5,1.1.7a1.96863,1.96863,0,0,1,.6,1.6C222.9,550,222.9,550.1,222.9,550.3Zm-2.4-3.1c.1,0,.2,0,.2.1h-.4a.9983.9983,0,0,0-.5.4,1.75625,1.75625,0,0,1,.5-.4c0-.1.1-.1.2-.1Zm-2.6,4v.4h0v0C217.8,551.6,217.8,551.4,217.9,551.2Zm1.4,4Zm1.5-.4.1-.1-.1.1c-.1.1-.2.2-.3.2C220.6,555,220.7,554.9,220.8,554.8Zm1.5-6.5-.2-.2a.21511.21511,0,0,1,.2.2Zm-1.8-1.2c.1,0,.2,0,.2.1a.30972.30972,0,0,0-.2-.1h0Zm-1.2,8.1h0c.1,0,.1.1,0,0,.1.1.1,0,0,0Zm1.5-.3.4-.4a1.69765,1.69765,0,0,1-.6.6C220.6,555,220.7,555,220.8,554.9Zm1.5-6.7-.2-.2c.1.1.2.1.2.2.1,0,.1.1,0,0C222.4,548.3,222.4,548.2,222.3,548.2Zm-1.8-1.1c.1,0,.2,0,.2.1a.30972.30972,0,0,0-.2-.1h0Zm-.7.30005-.1.1.3-.3C219.9,547.3,219.8,547.3,219.8,547.4Zm-.5,7.8Zm.7.2a.45428.45428,0,0,1-.5,0h.2c.2.1.2.1.3,0a2.7,2.7,0,0,0,1.1-.9A2.19661,2.19661,0,0,1,220,555.4Zm2.4-7.2h0c-.1-.1-.2-.2-.3-.2.1,0,.2.1.3.2Zm-2.2-1.2h.3c.1,0,.2,0,.2.1h-.3c-.1-.1-.1-.1-.2-.1a.99827.99827,0,0,0-.5.4A2.17977,2.17977,0,0,1,220.2,547Z" transform="translate(-190.69998 -540.07499)"/><path class="cls-1" d="M214.6,566.4c.2,0,.4,0,.5-.2.1-.1.2-.3.3-.4a2.66643,2.66643,0,0,0,.7-1.4v-.2a1.32932,1.32932,0,0,0-.3-.7,1.79409,1.79409,0,0,1-.5-.7,4.34934,4.34934,0,0,0-.6-.7.91363.91363,0,0,0-.5-.3H214c-.1,0-.1.1-.2.1a4.05128,4.05128,0,0,0-.8,1,2.35321,2.35321,0,0,0-.2.8v.19995a1.95209,1.95209,0,0,0,.1.7,2.32565,2.32565,0,0,0,.8,1.2A2.3614,2.3614,0,0,0,214.6,566.4Zm.7-.7a1.38084,1.38084,0,0,1-.3.4c-.1.1-.1.2-.2.2h-.2a.36746.36746,0,0,1-.3-.1c.1,0,.2.1.3.1h.1a.5194.5194,0,0,0,.4-.2.75791.75791,0,0,1,.2-.4,3.03893,3.03893,0,0,0,.5-.7A3.03893,3.03893,0,0,1,215.3,565.7Zm-1.2-3.7c.1,0,.1,0,.2.1-.1-.1-.1-.1-.2-.1Zm.5,4.2a.36743.36743,0,0,1-.3-.1c.1.1.1.1.3.1h0a.36742.36742,0,0,0,.3-.1h-.1c-.1.1-.1.1-.2.1Zm-.5-4.2c.1,0,.1,0,.2.1-.1-.1-.1-.1-.2-.1Zm.7,4.2c.1,0,.1-.1.2-.2s.2-.3.3-.4c.2-.2.3-.5.5-.7a1.79389,1.79389,0,0,1-.5.7,1.3807,1.3807,0,0,1-.3.4v.1C214.9,566.1,214.9,566.2,214.8,566.2Zm-.2,0a.36743.36743,0,0,1-.3-.1c.1-.00006.1.1.3.1a.51941.51941,0,0,0,.4-.2c.1-.1.2-.3.3-.4.2-.2.3-.5.5-.7a1.79389,1.79389,0,0,1-.5.7,1.3807,1.3807,0,0,1-.3.4c-.1.1-.1.2-.2.2Zm-.5-4.1c.1,0,.1,0,.2.1-.1-.1-.1-.1-.2-.1H214c-.1,0-.1.1-.2.1-.3.3-.5.6-.7.8a2.85274,2.85274,0,0,1,.7-.8.36741.36741,0,0,1,.3-.1Zm-.3.1c-.3.3-.5.6-.7.8a2.69581,2.69581,0,0,1,.7-.8h0l.1-.1C213.8,562.1,213.8,562.1,213.8,562.2Zm-.9,1.3v.5A.78077.78077,0,0,1,212.9,563.5Zm0,.4a2.544,2.544,0,0,1,.2-.7,2.72262,2.72262,0,0,1,.8-1c.1-.1.2-.2.4-.1.2,0,.3.1.5.3a1.79409,1.79409,0,0,1,.5.7c.2.2.3.5.5.7.1.2.2.3.2.5a.36734.36734,0,0,1-.1.3,2.83781,2.83781,0,0,1-.6.9,1.38084,1.38084,0,0,1-.3.4c-.1.1-.1.2-.2.2h-.2a1.45843,1.45843,0,0,1-.8-.5h0a2.589,2.589,0,0,1-.7-1.1A.73515.73515,0,0,1,212.9,563.9Zm3,.6v-.4h0v.1Q216.05,564.5,215.9,564.5Zm-.1-.8a1.38042,1.38042,0,0,1-.3-.4c0,.2.1.3.3.4Zm-1.2-1.3-.3-.3c.1.1.2.1.3.3l.3.3Zm-.8-.30005h0l-.4.4.4-.4h0l.1-.1Zm-.1,3.6a1.7561,1.7561,0,0,0,.5.4,1.7561,1.7561,0,0,1-.5-.4h0l-.2-.2Zm1.2.4h0a.09793.09793,0,0,1-.1.1C214.9,566.2,214.9,566.2,214.9,566.1Zm0,.1.1-.1c.1-.1.2-.3.3-.4a4.23439,4.23439,0,0,0,.5-.7,1.794,1.794,0,0,1-.5.7,2.73572,2.73572,0,0,0-.4.5.09792.09792,0,0,1-.1.1Zm.9-2.5a1.38042,1.38042,0,0,1-.3-.4c0,.1.1.2.3.4-.1-.1-.1,0,0,0Zm-1.2-1.4-.3-.3.3.3.3.3Zm-.8-.2h0a3.63188,3.63188,0,0,0-.7.9,2.17754,2.17754,0,0,1,.7-.9l.1-.1C213.8,562,213.8,562,213.8,562.1Zm-.1,3.6a1.7561,1.7561,0,0,0,.5.4c-.2-.00006-.3-.2-.5-.4h0l-.2-.2A.21512.21512,0,0,0,213.7,565.7Zm.8.6h0a.77407.77407,0,0,1-.3-.1C214.4,566.2,214.4,566.3,214.5,566.3Zm1.4-2.5Zm-.1-.1h0a1.38042,1.38042,0,0,1-.3-.4c0,.1.1.2.3.4Zm-.9-1.1-.3-.3-.3-.3c.1,0,.2.1.3.2S214.8,562.5,214.9,562.6Zm-1.2-.6c.1-.1.2-.2.4-.1.1,0,.1,0,.2.1h-.6a3.78266,3.78266,0,0,0-.7.8C213.3,562.5,213.5,562.2,213.7,562Zm-.2,3.5c.1.1.1.2.2.2a1.7561,1.7561,0,0,0,.5.4,1.75488,1.75488,0,0,1-.5-.4h0A.21512.21512,0,0,1,213.5,565.5Z" transform="translate(-190.69998 -540.07499)"/><path class="cls-1" d="M211.1,563.9a6.83011,6.83011,0,0,0,1.7,2.8l.3.3a3.94281,3.94281,0,0,0,2,1.2,1.26861,1.26861,0,0,0,.6-.1,1.75488,1.75488,0,0,0,.5-.4l.6-.9a11.5725,11.5725,0,0,0,1.4-2.4,4.40085,4.40085,0,0,0,.2-1v-.2a2.71556,2.71556,0,0,0-.6-1.7c-.2-.3-.5-.6-.7-.9-.6-.8-1.2-1.5-1.7-2.1l-.4-.4a3.74341,3.74341,0,0,0-1-.6,1.63424,1.63424,0,0,0-.7,0c-.1,0-.2.1-.3.1a4.18064,4.18064,0,0,0-1.8,2.3,5.07921,5.07921,0,0,0-.3,1.7v.2A4.8687,4.8687,0,0,0,211.1,563.9ZM210.8,562.1v0Zm7.5,1.2h0v0Zm-3.4-4.8a1.38042,1.38042,0,0,0,.4.3c.5.5,1.1,1.3,1.7,2,.2.3.5.6.7.9a2.45191,2.45191,0,0,1,.6,1.6,2.92071,2.92071,0,0,1-.2.9,9.45557,9.45557,0,0,1-1.4,2.4l-.6.9a.66443.66443,0,0,1-.5.4c-.2,0-.3.1-.5,0a3.72883,3.72883,0,0,1-1.9-1.2c-.1-.1-.2-.2-.2-.3a7.541,7.541,0,0,1-1.7-2.8,5.6627,5.6627,0,0,1-.3-1.8,4.808,4.808,0,0,1,2.1-3.9C213.5,557.7,214.2,557.8,214.9,558.5Zm.2,9.5a.74957.74957,0,0,0,.5-.1h.1a.30972.30972,0,0,0-.2.1h-.4Zm-1.4-10.2a.74948.74948,0,0,0-.5.1c-.1,0-.1.1-.2.1a1.42171,1.42171,0,0,1,.6-.2Zm1.4,10.3h0Zm-1.4-10.3h0Zm1.4,10.3h0Zm-1.4-10.4h0Zm1.9,10.4c-.1,0-.3.1-.5,0h.1c.2.1.3.1.4,0,.1,0,.1-.1.2-.1A.30973.30973,0,0,1,215.6,568.1Zm-1.9-10.4h-.2c-.2,0-.3,0-.4.1-.1,0-.1,0-.2.1A.88163.88163,0,0,1,213.7,557.7Z" transform="translate(-190.69998 -540.07499)"/><path class="cls-1" d="M210.4,563.6a9.84027,9.84027,0,0,0,2,3.4c.1.1.2.3.4.4a5.24274,5.24274,0,0,0,2.3,1.5,1.483,1.483,0,0,0,.7-.1,1.333,1.333,0,0,0,.6-.5c.2-.2.3-.5.5-.7a8.95814,8.95814,0,0,0,1.7-3,5.85238,5.85238,0,0,0,.2-1.3v-.2a3.16293,3.16293,0,0,0-.8-2.2c-.2-.2-.3-.5-.5-.7a24.4826,24.4826,0,0,0-2.3-2.9c-.9-.9-1.8-1.4-2.8-1.1-.1,0-.1,0-.2.1a3.05105,3.05105,0,0,0-1.3,1,4.02021,4.02021,0,0,0-.8,1.6,5.82221,5.82221,0,0,0-.3,1.9V561C210,561.8,210.1,562.7,210.4,563.6Zm-.1-4.4a5.977,5.977,0,0,1,.8-1.6,3.05085,3.05085,0,0,1,1.3-1c.1,0,.1,0,.2-.1,1-.3,1.8.2,2.7,1a17.07628,17.07628,0,0,1,2.2,2.8c.2.2.3.5.5.7a3.32159,3.32159,0,0,1,.7,2.1,5.01986,5.01986,0,0,1-.2,1.2,14.58692,14.58692,0,0,1-1.7,3c-.2.3-.4.5-.5.7a2.65009,2.65009,0,0,1-.6.5.63769.63769,0,0,1-.6,0,4.46238,4.46238,0,0,1-2.3-1.4l-.3-.3a9.84027,9.84027,0,0,1-2-3.4,7.26694,7.26694,0,0,1-.4-2.5A11.13768,11.13768,0,0,1,210.3,559.2Zm5.1,9.4Z" transform="translate(-190.69998 -540.07499)"/><path class="cls-2" d="M220.5,548.6h0Z" transform="translate(-190.69998 -540.07499)"/><path class="cls-2" d="M220.5,548.1h0c-.1,0-.1.1,0,0Z" transform="translate(-190.69998 -540.07499)"/><path class="cls-2" d="M220.5,548.2h-.2a.09793.09793,0,0,0-.1.1.09793.09793,0,0,0,.1-.1c.1.1.1,0,.2,0Z" transform="translate(-190.69998 -540.07499)"/><path class="cls-2" d="M220.5,548.2Z" transform="translate(-190.69998 -540.07499)"/><path class="cls-2" d="M218.6,552.2Z" transform="translate(-190.69998 -540.07499)"/><path class="cls-2" d="M220,554.8Z" transform="translate(-190.69998 -540.07499)"/><path class="cls-2" d="M219.9,555h.2c.1,0,.1-.1.2-.1-.1,0-.1.1-.2.1Z" transform="translate(-190.69998 -540.07499)"/><path class="cls-2" d="M220.4,548.1h-.2a.09794.09794,0,0,0-.1.1.09794.09794,0,0,0,.1-.1Z" transform="translate(-190.69998 -540.07499)"/><path class="cls-2" d="M218.3,552.1h0v0Z" transform="translate(-190.69998 -540.07499)"/><path class="cls-2" d="M219.9,554.9h0Z" transform="translate(-190.69998 -540.07499)"/><path class="cls-2" d="M220.5,548.7Z" transform="translate(-190.69998 -540.07499)"/><path class="cls-2" d="M220.5,548.7Z" transform="translate(-190.69998 -540.07499)"/><path class="cls-2" d="M220.4,548.8h0Z" transform="translate(-190.69998 -540.07499)"/><path class="cls-2" d="M220.9,549.5h0a.77407.77407,0,0,0-.3-.1h-.2c-.3.1-.5.6-.8,1.2-.1.3-.3.6-.4.9a1.48607,1.48607,0,0,0-.2.9c0,.3.1.5.1.7a3.29278,3.29278,0,0,0,.7,1.3h0c.1.1.1.1.2.1l-.1-.1a.09793.09793,0,0,1-.1-.1,4.12921,4.12921,0,0,1-.7-1.1,1.48273,1.48273,0,0,1-.1-.7v-.2a1.48629,1.48629,0,0,1,.2-.9c.1-.3.2-.5.3-.8.2-.5.4-1,.7-1.1a.60136.60136,0,0,1,.4.1h0a5.583,5.583,0,0,1,.8.5,1.246,1.246,0,0,1,.4,1.1v.69995a1.95209,1.95209,0,0,0,.1-.7v-.2a1.05314,1.05314,0,0,0-.4-1C221.4,549.8,221.2,549.7,220.9,549.5Z" transform="translate(-190.69998 -540.07499)"/><path class="cls-2" d="M221.5,550.5a4.23362,4.23362,0,0,0-.7-.5h0a.34913.34913,0,0,1-.2-.1h-.1c-.3.1-.4.5-.7,1-.1.3-.2.5-.3.8a2.35316,2.35316,0,0,0-.2.8,1.268,1.268,0,0,0,.1.6,1.70051,1.70051,0,0,0,.6,1h0a.34915.34915,0,0,0,.2.1h0l-.1-.1a2.29152,2.29152,0,0,1-.6-1.5V552.4a1.20243,1.20243,0,0,1,.2-.8,4.87753,4.87753,0,0,0,.3-.7c.2-.4.3-.8.6-.9h.4a1.53715,1.53715,0,0,1,.6.4,1.02521,1.02521,0,0,1,.3,1V551.9a1.26827,1.26827,0,0,0,.1-.6v-.2c-.2-.1-.3-.3-.5-.6Z" transform="translate(-190.69998 -540.07499)"/><path class="cls-2" d="M221,549a.09794.09794,0,0,1-.1-.1.3674.3674,0,0,0-.3-.1h-.2c-.4.1-.6.7-.9,1.4a4.67155,4.67155,0,0,1-.5,1,1.6893,1.6893,0,0,0-.3,1,4.06767,4.06767,0,0,0,1,2.3c.1.1.1.1.2.1a.09793.09793,0,0,1-.1-.1l-.1-.1a4.11,4.11,0,0,1-.8-1.3,1.94927,1.94927,0,0,1-.1-.8v-.2a3.5534,3.5534,0,0,1,.2-1,3.55071,3.55071,0,0,0,.4-.9c.3-.6.5-1.1.8-1.2a1.08758,1.08758,0,0,1,.5.1h.1a5.55085,5.55085,0,0,1,.8.6,1.46051,1.46051,0,0,1,.4,1.2V551.4a.36733.36733,0,0,1-.1.3,3.09066,3.09066,0,0,0,.2-.8v-.3a1.897,1.897,0,0,0-.4-1.2A2.74008,2.74008,0,0,1,221,549Z" transform="translate(-190.69998 -540.07499)"/><path class="cls-2" d="M222.5,550.4h0v0Z" transform="translate(-190.69998 -540.07499)"/><path class="cls-2" d="M221.3,550.9a5.92827,5.92827,0,0,0-.6-.4c-.1,0-.1-.1-.2-.1h-.1a1.23373,1.23373,0,0,0-.5.8,4.87753,4.87753,0,0,0-.3.7,1.42133,1.42133,0,0,0-.2.6,2.54122,2.54122,0,0,0,.5,1.3h0a.09794.09794,0,0,1,.1.1h0l-.1-.1a1.6119,1.6119,0,0,1-.4-.7v-.6a1.70167,1.70167,0,0,1,.1-.7,1.68972,1.68972,0,0,0,.2-.5c.1-.4.2-.6.4-.7h.3a2.18613,2.18613,0,0,1,.5.3.98433.98433,0,0,1,.3.8v.49993a1.08727,1.08727,0,0,0,.1-.5v-.1a.61581.61581,0,0,0-.1-.69989Z" transform="translate(-190.69998 -540.07499)"/><path class="cls-2" d="M219.9,554.9Z" transform="translate(-190.69998 -540.07499)"/><path class="cls-2" d="M220.4,552.5h0v-.1h0a.36736.36736,0,0,1-.1.3c0,.1-.1.3-.1.4s0,.2.1.2h0v-.79992C220.4,552.6,220.4,552.6,220.4,552.5Z" transform="translate(-190.69998 -540.07499)"/><path class="cls-2" d="M220.5,552.6v.59991a.3673.3673,0,0,0,.1-.3c0-.19989,0-.19989-.1-.29993Z" transform="translate(-190.69998 -540.07499)"/><path class="cls-2" d="M220.6,551h-.2c-.2.1-.3.3-.4.7-.1.2-.1.4-.2.6a1.08738,1.08738,0,0,0-.1.5,1.26759,1.26759,0,0,0,.4.9h.1a.09794.09794,0,0,1-.1-.1,1.13551,1.13551,0,0,1-.3-.8v-.2a1.2681,1.2681,0,0,1,.1-.6.60118.60118,0,0,0,.1-.4c.1-.3.1-.5.3-.5h.2c.1.1.3.1.4.3l.1.1c.1.1.1.3.1.6V552.4a.756.756,0,0,0,.1-.4v-.1a.84533.84533,0,0,0-.2-.6C221,551.2,220.8,551.1,220.6,551Z" transform="translate(-190.69998 -540.07499)"/><path class="cls-2" d="M219.9,555Z" transform="translate(-190.69998 -540.07499)"/><path class="cls-2" d="M220.6,552.1h0c-.1,0-.2.1-.2.3h.1c.1,0,.1,0,.2.1s.1.2.1.4v.1h0c0-.1.1-.2.1-.3h0c0-.1-.1-.2-.1-.3C220.7,552.1,220.6,552.1,220.6,552.1Z" transform="translate(-190.69998 -540.07499)"/><path class="cls-2" d="M220.6,551.5h-.2c-.1,0-.2.3-.2.5,0,.1-.1.3-.1.4a.75589.75589,0,0,0-.1.4,1.42106,1.42106,0,0,0,.2.6h0c-.1-.1-.1-.2-.1-.4v-.19995a1.08731,1.08731,0,0,1,.1-.5c0-.1.1-.2.1-.3,0-.2.1-.3.1-.4h.2c.1,0,.2.1.3.2a.76373.76373,0,0,1,.2.5V552.6c0-.1.1-.3.1-.4v-.1a.76383.76383,0,0,0-.2-.5C220.8,551.7,220.7,551.6,220.6,551.5Z" transform="translate(-190.69998 -540.07499)"/><path class="cls-1" d="M222.2,549.2c-.1-.1-.1-.2-.2-.2-.2-.3-.6-.4-1-.7-.1,0-.1-.1-.2-.1a.66117.66117,0,0,0-.6-.1c-.5.1-.8.8-1.1,1.6-.2.4-.3.7-.5,1.1a2.66272,2.66272,0,0,0-.3,1.2v.2a3.59486,3.59486,0,0,0,.2,1.1,3.85867,3.85867,0,0,0,1.1,1.7h0c.1.1.2.1.3.2h.3a4.32389,4.32389,0,0,0,1.5-1.7,7.188,7.188,0,0,0,.9-2.4v-.6A3.32331,3.32331,0,0,0,222.2,549.2Zm-3.9,2.8h0v.1h0Zm1.9-3.9h0c-.1,0-.1,0-.1.1A.0979.0979,0,0,0,220.2,548.1Zm.3.6Zm0,.1h0Zm0-.1Zm0-.1h0Zm-.2-.3a.09793.09793,0,0,0-.1.1.09793.09793,0,0,1,.1-.1h.3C220.4,548.2,220.4,548.3,220.3,548.3Zm.1-.1Zm0,0h0c0-.1.1-.1,0,0,.1-.1.1,0,0,0Zm-1.8,4Zm1.5,2.8c-.1,0-.2.1-.3,0h.3c.1,0,.1-.1.2-.1C220.3,555,220.2,555,220.1,555Zm-.1-.2Zm0,.1Zm-.1,0Zm0,.1Zm.4-2v.49994h0a.349.349,0,0,1-.1-.2.75606.75606,0,0,1,.1-.4.36731.36731,0,0,1,.1-.3h0v.3999C220.4,552.8,220.4,552.9,220.3,553Zm.2.1v-.59991h.1a.349.349,0,0,1,.1.2C220.6,552.9,220.6,553,220.5,553.1Zm.4-.6a.36734.36734,0,0,1-.1.3h0v-.1c0-.2-.1-.3-.1-.4s-.1-.1-.2-.1h-.1a.36734.36734,0,0,1,.1-.3h0c.1,0,.1.1.2.1.1.3.2.4.2.5Zm.2-.2a.60134.60134,0,0,1-.1.4v-.29993a.76383.76383,0,0,0-.2-.5c-.1-.1-.2-.1-.3-.2h-.2c-.1.1-.1.2-.1.4a.36732.36732,0,0,1-.1.3,1.08727,1.08727,0,0,0-.1.5v.2c0,.2,0,.3.1.4h0a.84523.84523,0,0,1-.2-.6.6013.6013,0,0,1,.1-.4.75592.75592,0,0,0,.1-.4c.1-.2.1-.4.2-.5h.2c.1.1.2.1.3.2a.46191.46191,0,0,1,.3.49994Zm.2-.3a.60139.60139,0,0,1-.1.4v-.29993a1.268,1.268,0,0,0-.1-.6l-.1-.1c-.1-.1-.3-.2-.4-.3h-.2a2.18558,2.18558,0,0,0-.3.5c0,.1-.1.3-.1.4a1.26834,1.26834,0,0,0-.1.6v.2a1.13551,1.13551,0,0,0,.3.8l.1.1h-.1a2.47041,2.47041,0,0,1-.4-.9.74932.74932,0,0,1,.1-.5,1.42133,1.42133,0,0,0,.2-.6c.1-.3.2-.6.4-.7h.2a1.38039,1.38039,0,0,1,.4.3,1.16507,1.16507,0,0,1,.2.69995Zm.2-.2c0,.2-.1.3-.1.5v-.49994a.98424.98424,0,0,0-.3-.8,2.18577,2.18577,0,0,0-.5-.3.18752.18752,0,0,0-.3,0c-.2.1-.3.4-.4.7-.1.2-.1.4-.2.5a1.48271,1.48271,0,0,0-.1.7v.6a1.61209,1.61209,0,0,0,.4.7l.1.1h0a.09794.09794,0,0,1-.1-.1h0a1.7275,1.7275,0,0,1-.5-1.3,1.42107,1.42107,0,0,1,.2-.6,4.87594,4.87594,0,0,0,.3-.7c.2-.4.3-.8.5-.8h.1c.1,0,.1,0,.2.1a2.09156,2.09156,0,0,1,.6.4l.1.1a1.44534,1.44534,0,0,1,.2.7C221.5,551.7,221.5,551.7,221.5,551.8Zm.3-.3c0,.2-.1.4-.1.6V551.6a1.493,1.493,0,0,0-.3-1,2.09222,2.09222,0,0,0-.6-.4c-.1-.1-.2-.1-.4,0a2.30643,2.30643,0,0,0-.6.9,4.87681,4.87681,0,0,0-.3.7,2.35342,2.35342,0,0,0-.2.8V552.8a2.29156,2.29156,0,0,0,.6,1.5l.1.1h0c-.1,0-.1,0-.2-.1h0a2.07474,2.07474,0,0,1-.6-1c0-.2-.1-.4-.1-.6a3.09138,3.09138,0,0,1,.2-.8c.1-.3.2-.5.3-.8.2-.5.4-.9.7-1h.1c.1,0,.1,0,.2.1h0a4.23288,4.23288,0,0,1,.7.5.09792.09792,0,0,0,.1.1,1.07747,1.07747,0,0,1,.2.8C221.8,551.4,221.8,551.5,221.8,551.5Zm.2-.2c0,.2-.1.4-.1.7v-.69995a1.24592,1.24592,0,0,0-.4-1.1,2.17686,2.17686,0,0,0-.8-.5h0a.75607.75607,0,0,0-.4-.1c-.3.1-.5.5-.7,1.1-.1.3-.2.5-.3.8a1.48613,1.48613,0,0,0-.2.9v.2a1.48285,1.48285,0,0,0,.1.7,2.5888,2.5888,0,0,0,.7,1.1l.1.1.1.1c-.1,0-.1,0-.2-.1h0a2.72841,2.72841,0,0,1-.7-1.3,1.48278,1.48278,0,0,1-.1-.7,2.92071,2.92071,0,0,1,.2-.9,3.551,3.551,0,0,0,.4-.9c.3-.6.5-1.1.8-1.2h.2a.36743.36743,0,0,1,.3.1h.1a5.58152,5.58152,0,0,1,.8.5,1.333,1.333,0,0,1,.4,1C222,551.1,222,551.2,222,551.3Zm.2-.3a3.09138,3.09138,0,0,1-.2.8.36733.36733,0,0,1,.1-.3v-.49993a1.69085,1.69085,0,0,0-.4-1.2,5.54191,5.54191,0,0,0-.8-.6h-.1a.90165.90165,0,0,0-.5-.1c-.3.1-.6.6-.8,1.2-.1.3-.3.6-.4.9a1.803,1.803,0,0,0-.2,1v.19995c0,.3.1.6.1.8a4.10982,4.10982,0,0,0,.8,1.3l.1.1.1.1c-.1,0-.2,0-.2-.1a3.5005,3.5005,0,0,1-1-2.3,1.9295,1.9295,0,0,1,.3-1c.2-.3.3-.7.5-1,.3-.7.6-1.3.9-1.4h.2a.36745.36745,0,0,1,.3.1l.1.1a5.55054,5.55054,0,0,1,.8.6,1.4605,1.4605,0,0,1,.4,1.2C222.2,550.8,222.2,550.9,222.2,551Zm.3-.2v-.49994h0V550.8Z" transform="translate(-190.69998 -540.07499)"/><path class="cls-1" d="M221,545.2a1.095,1.095,0,0,0-1.1-.1,3.18953,3.18953,0,0,0-1.3,1.3,12.28915,12.28915,0,0,0-1.1,2.3,2.9939,2.9939,0,0,1-.4.8,4.7109,4.7109,0,0,0-.4,1.7v.29992a3.92225,3.92225,0,0,0,.4,1.8,6.98449,6.98449,0,0,0,1.8,2.8h0a1.33176,1.33176,0,0,0,.5.3.6013.6013,0,0,0,.4-.1,5.92643,5.92643,0,0,0,2.4-2.7,10.89525,10.89525,0,0,0,1.4-3.9v-.9a3.08245,3.08245,0,0,0-.1-1,3.69625,3.69625,0,0,0-.5-1.1l-.3-.3A6.214,6.214,0,0,0,221,545.2Zm-3.8,4.3a2.9939,2.9939,0,0,1,.4-.8c.4-.8.7-1.6,1.1-2.3a2.6601,2.6601,0,0,1,1.3-1.3.90174.90174,0,0,1,.5-.1,1.42091,1.42091,0,0,1,.6.2,5.58208,5.58208,0,0,1,.8.5,5.9447,5.9447,0,0,0-.8-.4,2.54512,2.54512,0,0,0-.7-.2.60127.60127,0,0,0-.4.1,3.18945,3.18945,0,0,0-1.3,1.3,12.28882,12.28882,0,0,0-1.1,2.3,1.61179,1.61179,0,0,0-.4.7.36733.36733,0,0,0-.1.3A.36747.36747,0,0,1,217.2,549.5Zm6.1-2.4c0,.1.1.1.1.2v0A.34941.34941,0,0,0,223.3,547.1Zm-4.1,9.1a.36743.36743,0,0,0,.3.1h.1a.75608.75608,0,0,0,.4-.1c.1,0,.2-.1.3-.1-.1.1-.2.1-.3.2-.1,0-.2.1-.3.1C219.4,556.3,219.3,556.3,219.2,556.2Zm-1.4-1.7-.3-.6a.34925.34925,0,0,0-.1-.2.34925.34925,0,0,0,.1.2A1.62791,1.62791,0,0,0,217.8,554.5Zm5.5-7.4c0,.1.1.1.1.2v0C223.4,547.2,223.3,547.2,223.3,547.1Zm-3.4,9.1h0a4.61539,4.61539,0,0,0,1-.7,8.74,8.74,0,0,0,.8-1,8.74,8.74,0,0,1-.8,1A4.61753,4.61753,0,0,1,219.9,556.2Zm-.7-.1a.3674.3674,0,0,0,.3.1h.1a.756.756,0,0,0,.4-.1c.1,0,.2-.1.3-.1-.1.1-.2.1-.3.2-.1,0-.2.1-.3.1C219.4,556.2,219.3,556.2,219.2,556.1Zm-1.4-1.6-.3-.6a.34925.34925,0,0,0-.1-.2.34925.34925,0,0,0,.1.2Zm2.1-9.3h0a3.92029,3.92029,0,0,0-1.3,1.3,12.28945,12.28945,0,0,0-1.1,2.3,2.994,2.994,0,0,1-.4.8c0,.1-.1.2-.1.3,0-.1.1-.2.1-.3a2.99455,2.99455,0,0,1,.4-.8c.4-.8.7-1.6,1.1-2.3a5.54683,5.54683,0,0,1,.6-.8C219.5,545.5,219.7,545.3,219.9,545.2Zm3.5,2.1a.34925.34925,0,0,0,.1.2c-.1-.2-.1-.3-.2-.4A.349.349,0,0,0,223.4,547.3Zm.3,2.3a5.34887,5.34887,0,0,1-.4,1.6,4.43247,4.43247,0,0,0,.3-1.5v-1.6c0,.2.1.5.1.8A.84566.84566,0,0,1,223.7,549.6Zm-1.4,3.9c-.1.1-.1.2-.2.3.1-.1.2-.2.2-.3a7.21746,7.21746,0,0,0,.9-2c-.2.4-.3.9-.5,1.3A2.50629,2.50629,0,0,1,222.3,553.5Zm-2.4,2.6h0a6.12547,6.12547,0,0,0,2.4-2.6c.4-.7.7-1.4,1-2a10.01172,10.01172,0,0,1-1,2.1,7.789,7.789,0,0,1-1.4,1.9A3.7431,3.7431,0,0,1,219.9,556.1Zm-.7,0a.3674.3674,0,0,0,.3.1.60127.60127,0,0,0,.4-.1,5.92638,5.92638,0,0,0,2.4-2.7c.4-.7.7-1.4,1-2a10.01189,10.01189,0,0,1-1,2.1,6.53623,6.53623,0,0,1-2.4,2.7c-.1,0-.2.1-.3.1C219.4,556.2,219.3,556.2,219.2,556.1Zm4.4-8.1a3.08275,3.08275,0,0,1,.1,1v.6a10.89529,10.89529,0,0,1-1.4,3.9,6.53616,6.53616,0,0,1-2.4,2.7.76471.76471,0,0,1-.9-.2,9.53818,9.53818,0,0,1-1.8-2.8,11.62618,11.62618,0,0,1-.4-1.8v-.1a2.93443,2.93443,0,0,1,.4-1.6,2.994,2.994,0,0,1,.4-.8c.4-.8.7-1.6,1.1-2.3a2.6601,2.6601,0,0,1,1.3-1.3.90174.90174,0,0,1,.5-.1,1.42091,1.42091,0,0,1,.6.2,8.06113,8.06113,0,0,1,1.8,1.2l.3.3C223.3,547.2,223.5,547.6,223.6,548Zm-6.1,5.9c-.1-.2-.2-.5-.3-.7h0c.2.5.4.9.6,1.3Zm1.1-7.4h0a22.49833,22.49833,0,0,0-1.1,2.2,2.99449,2.99449,0,0,1-.4.8c0,.1-.1.2-.1.3,0-.1.1-.2.1-.3a2.9939,2.9939,0,0,1,.4-.8,10.0912,10.0912,0,0,1,.7-1.5A1.61222,1.61222,0,0,0,218.6,546.5Zm-1.8,4.7h0v.2a1.268,1.268,0,0,0,.1.6,1.9488,1.9488,0,0,1-.1-.79992h0a2.53676,2.53676,0,0,1,.2-1.2A5.019,5.019,0,0,0,216.8,551.2Zm4.3-5.8a1.095,1.095,0,0,0-1.1-.1,3.1896,3.1896,0,0,0-1.3,1.3,12.2882,12.2882,0,0,0-1.1,2.3,2.99455,2.99455,0,0,1-.4.8c0,.1-.1.2-.1.3,0-.1.1-.2.1-.3a2.994,2.994,0,0,1,.4-.8c.4-.8.7-1.6,1.1-2.3a2.6601,2.6601,0,0,1,1.3-1.3c.1,0,.2-.1.3-.1h.1a2.54,2.54,0,0,1,.7.2,5.94416,5.94416,0,0,0,.8.4A2.011,2.011,0,0,1,221.1,545.4Zm-2.9,1.8c-.2.5-.5,1-.7,1.6a2.99455,2.99455,0,0,1-.4.8c0,.1-.1.2-.1.3,0-.1.1-.2.1-.3a2.994,2.994,0,0,1,.4-.8c.4-.8.7-1.6,1.1-2.3h0A2.50713,2.50713,0,0,1,218.2,547.2Zm.7,8.7h0l.3.3c0-.1-.1-.1-.3-.3a4.54907,4.54907,0,0,1-.7-.9C218.5,555.4,218.8,555.7,218.9,555.9ZM222.3,553.6c.1-.3.3-.5.4-.8.2-.5.4-.9.6-1.4a13.82093,13.82093,0,0,1-1,2.2.34906.34906,0,0,0-.1.2C222.2,553.7,222.3,553.7,222.3,553.6Zm.8-6.69995-.3-.3a8.06056,8.06056,0,0,0-1.8-1.2.34912.34912,0,0,1-.2-.1c.1,0,.2.1.3.1a8.06079,8.06079,0,0,1,1.8,1.2,1.23653,1.23653,0,0,1,.2.3h0C223.2,547,223.2,546.9,223.1,546.9Zm-2-1.5a2.54476,2.54476,0,0,0-.7-.2.60132.60132,0,0,0-.4.1.34912.34912,0,0,0-.2.1.36741.36741,0,0,1,.3-.1c.1,0,.2-.1.3-.1h.1c.1-.1.3,0,.6.2a5.94416,5.94416,0,0,0,.8.4A5.88524,5.88524,0,0,0,221.1,545.4Zm-1.8.19995a2.18041,2.18041,0,0,0-.4.5,2.183,2.183,0,0,1,.4-.5c.2-.2.4-.4.6-.4h0A2.09364,2.09364,0,0,0,219.3,545.6Zm0,0a9.68591,9.68591,0,0,0-.7.9,12.2882,12.2882,0,0,0-1.1,2.3,2.99455,2.99455,0,0,1-.4.8c0,.1-.1.2-.1.3,0-.1.1-.2.1-.3a2.994,2.994,0,0,1,.4-.8c.4-.8.7-1.6,1.1-2.3a2.66,2.66,0,0,1,1.3-1.3h0C219.7,545.2,219.5,545.4,219.3,545.6Zm-.4,10.4h0l.3.3q0-.15-.3-.3a4.54855,4.54855,0,0,1-.7-.9C218.5,555.5,218.8,555.8,218.9,556Zm2-.5a11.54856,11.54856,0,0,0,1.5-2c.4-.7.7-1.4,1-2a10.01073,10.01073,0,0,1-1,2.1,6.53618,6.53618,0,0,1-2.4,2.7h0A5.7368,5.7368,0,0,0,220.9,555.5Zm2.2-8.6-.3-.3a8.06056,8.06056,0,0,0-1.8-1.2.34912.34912,0,0,1-.2-.1c.1,0,.2.1.3.1a8.06079,8.06079,0,0,1,1.8,1.2,1.23653,1.23653,0,0,1,.2.3c0-.1.1,0,0,0Zm-2-1.6a2.54512,2.54512,0,0,0-.7-.2.60127.60127,0,0,0-.4.1.34913.34913,0,0,0-.2.1.36744.36744,0,0,1,.3-.1c.1,0,.2-.1.3-.1h.1a3.93777,3.93777,0,0,1,.6.2,5.9441,5.9441,0,0,0,.8.4A2.01041,2.01041,0,0,1,221.1,545.3Zm-3.9,7.9h0a2.01015,2.01015,0,0,0,.4.8l.3.6A6.10872,6.10872,0,0,1,217.2,553.2Zm1.8,2.9a4.87157,4.87157,0,0,1-.8-1c.3.4.6.7.8,1-.1-.1,0-.1,0,0h0c.1.1.2.1.3.2C219.2,556.2,219.1,556.2,219,556.1Zm3.3-2.5a6.53618,6.53618,0,0,1-2.4,2.7.755.755,0,0,1-.8-.1.36743.36743,0,0,0,.3.1h.1a.75608.75608,0,0,0,.4-.1,5.55822,5.55822,0,0,0,2.4-2.6,19.99112,19.99112,0,0,0,1-2.1A10.01073,10.01073,0,0,1,222.3,553.6Zm1.3-6a.75842.75842,0,0,0-.2-.4c0-.1-.1-.1-.1-.2Q223.45,547.30006,223.6,547.6Zm-.5-.9.1.1c0,.1,0,0-.1-.1l-.2-.2a8.06113,8.06113,0,0,0-1.8-1.2.34913.34913,0,0,1-.2-.1c.1,0,.2.1.3.1a8.061,8.061,0,0,1,1.8,1.2C222.9,546.5,223,546.6,223.1,546.7Z" transform="translate(-190.69998 -540.07499)"/><path class="cls-1" d="M214.4,564.6a.34926.34926,0,0,0-.1-.2.30967.30967,0,0,1-.1-.2.09793.09793,0,0,0-.1-.1H214a.76373.76373,0,0,0-.2.5v.4a.75848.75848,0,0,0,.2.4c.1.1.1.1.2.1h.2c.1-.1.1-.1.1-.2V565C214.5,564.9,214.4,564.7,214.4,564.6Zm-.2-.19995a.3493.3493,0,0,0,.1.2c0,.1.1.1.1.2,0-.1,0-.1-.1-.2h0v-.1h0l-.1-.1a.09793.09793,0,0,0-.1-.1v-.1C214.2,564.2,214.2,564.3,214.2,564.4Zm0,.9a.09794.09794,0,0,1-.1-.1c0,.1,0,.1.1.1Zm0-1c0,.1.1.1.1.2a.09793.09793,0,0,0,.1.1v.1h0v-.1h0v-.1c-.2-.1-.2-.1-.2-.2s0-.1-.1-.1a.098.098,0,0,0,.1.1Zm0,1a.09794.09794,0,0,1-.1-.1l.1.1Zm-.3-1.1h0l-.1.1c.1,0,.1,0,.1-.1Zm.3.2c0,.1.1.1.1.2a.09793.09793,0,0,0,.1.1v.1h0v-.1h0v-.1c-.2-.1-.2-.2-.2-.2,0-.1,0-.1-.1-.1,0-.00006,0-.00006.1.1Zm-.3-.1h0a.34906.34906,0,0,0-.1.2c0-.1,0-.1.1-.2Zm.1-.1h0c.1.1,0,.1,0,0h0c-.1.1-.2.2-.2.3,0-.1.1-.2.2-.3Zm-.2.3h0c0-.1,0-.1.1-.1C213.8,564.4,213.8,564.4,213.8,564.5Zm0,.1h0v.1h0c0,.00006-.1.00006,0-.1v0Zm0,.2h0a.09793.09793,0,0,0,.1.1c0,.1,0,.00006-.1-.1Zm0,0v-.1a.75848.75848,0,0,1,.2-.4h.1a.34906.34906,0,0,1,.1.2,11181.56981,11181.56981,0,0,1,.2.4c0,.1-.1.1-.1.2h0v-.1a.34905.34905,0,0,1-.1-.2v-.3h0c-.1,0-.1.1-.1.2-.2-.00006-.2-.00006-.3.09991.1-.1.1,0,0,0,.1,0,.1.1.1.2h0C213.9,564.9,213.8,564.9,213.8,564.8Zm.4-.4c0,.1.1.1.1.2a.09793.09793,0,0,0,.1.1v.1c0-.1,0-.1-.1-.2,0,0-.1,0-.1-.19995a.09793.09793,0,0,0-.1-.1.09793.09793,0,0,0,.1.1ZM214,565.1h0l.1.1a.09794.09794,0,0,0-.1-.1Zm0-.6Zm.2.6h0c0-.1-.1-.1-.1-.2h0v-.1h0c0,.1.1.1.1.2C214.2,565,214.3,565,214.2,565.1Zm0,0Zm0,.1Zm0-.1Zm0,.1Zm-.1-.1Zm-.2-.3h0v0Zm.3.3Zm-.1-.1h0c.1,0,.1,0,.1.1h0l-.1-.1Zm-.2-.4Zm.1,0h0l-.1.1Zm-.1.1Zm.1,0h0v.2c0,.1,0,.1.1.1H214a.349.349,0,0,1-.1-.2v-.1Zm.1.1Zm0,.1Zm0-.1h0v-.1h0v.1Zm0,0a.09793.09793,0,0,0,.1.1v.1h0c-.1.00006-.1-.09991-.1-.2Zm.1.3Zm0,0Zm0-.1Zm0,0h0l-.1-.1h0A.098.098,0,0,0,214.2,565Zm-.1-.4Zm-.1,0Zm0,0Zm0,0Zm-.1,0Zm.1.30005Zm0,.1.1.1-.1-.1Zm.2.1Zm0,0Zm0,0Zm0,0Zm0-.1h0c0-.1-.1-.1,0,0l-.1-.1h0A.09792.09792,0,0,1,214.2,565Zm-.1-.4Zm-.1,0Zm0-.1Zm0,.1h0c-.1,0-.1-.1,0,0Zm-.1.2Zm.1.1Zm0,.19995.1.1c0-.1,0-.1-.1-.1Zm.2,0h0C214.1,565.1,214.1,565.2,214.2,565.1Zm0,.1Zm-.2-.7Zm0,0h0a.09793.09793,0,0,0-.1.1c0-.1,0-.1.1-.1Zm-.1.4h0v0Zm.1.1Zm.1.2Zm0,0h0Zm.1,0h0c.1-.1.1-.2.2-.2a.2151.2151,0,0,1-.2.2Zm-.3-.3h0l.1.1c0,.1,0,.1-.1-.1Zm.2.3Zm.2,0a.34905.34905,0,0,0,.1-.2c0,.1,0,.2-.1.2Zm.1-.1Zm0,0h0V564.9h0V565.1Zm0-.19995Zm-.3-.6Zm-.1-.1Zm-.2.2a.09792.09792,0,0,1-.1.1l.1-.1Zm0,.4h0C213.7,564.7,213.8,564.7,213.8,564.8Zm0,.1h0c0,.1,0,.1.1.1l-.1-.1Zm.1.1h0c.1.1.1.1.1.2l.1.1a.09794.09794,0,0,1-.1-.1C213.9,565.1,213.9,565.1,213.9,565Zm.4.3h0c0-.1.1-.1,0,0,.1-.1,0-.1,0,0Zm.1-.1Zm0-.4Zm-.3-.5Zm-.1-.1h0c0-.1.1,0,0,0Zm0-.1c0,.1-.1.1,0,0-.2.1-.2.2-.2.3,0-.1,0-.2.2-.3Zm-.2.7h0v0Zm0,.1h0c0,.1,0,.1.1.1,0,.1,0,0-.1-.1Zm.1.1.1.1c.1.1.1.1.2.1h0a.30972.30972,0,0,1-.2-.1C213.9,565.2,213.9,565.1,213.9,565Zm.4.3h0l.2-.2c-.1.1-.1.2-.2.2Zm-.2-1.2Zm-.2,0h0c-.1.1-.2.2-.2.3C213.8,564.3,213.8,564.2,213.9,564.1Zm-.1.80005h0c-.1-.1,0-.1,0,0a2827.50816,2827.50816,0,0,1,.2.19995C213.8,565.1,213.8,565,213.8,564.9Zm.2.3-.1-.1a.098.098,0,0,0,.1.1c.1,0,.1.1.2.1h0C214.1,565.3,214,565.3,214,565.2Zm.3.2h-.1a.09794.09794,0,0,1-.1-.1h.2v.1c.1-.1.1-.1.1-.2A.31.31,0,0,1,214.3,565.4Z" transform="translate(-190.69998 -540.07499)"/><path class="cls-1" d="M214.3,563.5c-.1-.1-.1-.1-.2-.1H214a.09794.09794,0,0,0-.1.1,1.34644,1.34644,0,0,0-.5.9V564.6a.756.756,0,0,0,.1.4c.1.2.2.5.4.6.1.1.3.3.4.3a.36742.36742,0,0,0,.3-.1v-.1a1.23453,1.23453,0,0,0,.4-.8v-.2a.60139.60139,0,0,0-.1-.4,1.37986,1.37986,0,0,1-.3-.4A1.38006,1.38006,0,0,0,214.3,563.5Zm-.1,0,.2.2c0-.1-.1-.1-.2-.2l-.1-.1A.09792.09792,0,0,1,214.2,563.5Zm.1,2.2c-.1,0-.1,0-.2-.1.1-.00006.1-.00006.2.1h.2c-.1-.1-.1-.1-.2,0Zm-.6-.6a.09793.09793,0,0,0-.1-.1v-.1h0C213.6,565,213.6,565,213.7,565.1Zm.5-1.6c-.1,0-.1-.1,0,0h-.1C214.1,563.4,214.1,563.4,214.2,563.5Zm.2,2.1h0l.1-.1v-.1l.1-.1c0,.1-.1.1-.2.2.1-.00007.1.09991,0,.09991Zm-.1,0c-.1,0-.1,0-.2-.1.1,0,.1.1.2.1Zm-.6-.6a.09792.09792,0,0,0-.1-.1v-.1h0C213.6,564.9,213.6,565,213.7,565Zm.2-1.5a.09794.09794,0,0,0,.1-.1.09794.09794,0,0,1-.1.1h0c-.1.1-.2.2-.2.3,0-.1.1-.2.2-.3Zm.3,0Zm.7,1Zm0,.2v.2h0v-.2h0v-.1h0Zm-.5.9h0l.1-.1a2.18442,2.18442,0,0,0,.3-.5h0a2.18442,2.18442,0,0,1-.3.5l-.1.1Zm-.1,0c-.1,0-.1,0-.2-.1.1,0,.1,0,.2.1.1,0,.1,0,.2-.1v-.1a2.18487,2.18487,0,0,0,.3-.5h0a2.18487,2.18487,0,0,1-.3.5v.1a.30972.30972,0,0,0-.2.1Zm.6-.6h0a.3097.3097,0,0,0-.1.2C214.8,565.1,214.8,565,214.9,565Zm0-.3v.2a2.18487,2.18487,0,0,1-.3.5v.1l-.1.1h-.1a.75789.75789,0,0,1-.4-.2,2.09267,2.09267,0,0,1-.4-.6.36733.36733,0,0,0-.1-.3,1.039,1.039,0,0,1,.4-.8c.1-.1.1-.1.2-.1s.1,0,.1.1a1.37986,1.37986,0,0,1,.3.4c.1.1.2.3.3.4A.34843.34843,0,0,1,214.9,564.7Zm-1.3.2a.09793.09793,0,0,0-.1-.1h0c0,.1.1.2.1.3Zm.3-1.30005a.09794.09794,0,0,0,.1-.1.09794.09794,0,0,0-.1.1.85017.85017,0,0,0-.3.5c0-.19995.1-.3.3-.5Zm.3,0c-.1,0-.1-.1,0,0H214a.09794.09794,0,0,0-.1.1,2.18,2.18,0,0,0-.4.5,2.09132,2.09132,0,0,1,.4-.6l.1-.1C214.1,563.5,214.1,563.5,214.2,563.6Zm-.7.4h0a.09794.09794,0,0,1,.1-.1Zm0,.4h0V564.6c-.1-.1-.1-.19995,0-.19995v0Zm.8-.80005a.09793.09793,0,0,0-.1-.1.09793.09793,0,0,0,.1.1.34905.34905,0,0,1,.1.2C214.4,563.7,214.3,563.7,214.3,563.6Zm-.8.30005a.349.349,0,0,0-.1.2.30978.30978,0,0,0,.1-.2Zm.4,1.4.3.3-.3-.3c-.1,0-.1-.1-.2-.2Zm.9-.2c0-.1.1-.1.1-.2h0c0,.1-.1.2-.1.3Zm.1-.5Zm0-.1Zm-.2-.2h0c.1.1.1.1.1.2A.3493.3493,0,0,0,214.7,564.3Zm-.4-.7a.09793.09793,0,0,0-.1-.1l.1.1a.34905.34905,0,0,1,.1.2A.34941.34941,0,0,0,214.3,563.6Zm-.4-.1-.1.1a2.18521,2.18521,0,0,0-.3.5.91834.91834,0,0,1,.4-.6h0C214,563.4,213.9,563.4,213.9,563.5Zm-.4,1.3Zm.4.5.3.3q-.15,0-.3-.3c-.1,0-.1-.1-.2-.2C213.8,565.2,213.8,565.3,213.9,565.3Zm.6.3h0l.1-.1a2.18514,2.18514,0,0,0,.3-.5h0a2.09121,2.09121,0,0,1-.4.6c.1-.1.1,0,0,0Zm.4-1.1Zm0,0Zm-.2-.3h0c.1.1.1.1.1.2C214.8,564.3,214.7,564.3,214.7,564.2Zm-.8-.8c.1-.1.1-.1.2-.1a.09794.09794,0,0,1,.1.1h-.3a1.275,1.275,0,0,0-.4.6A1.27482,1.27482,0,0,1,213.9,563.4Zm-.4,1.4h0c0,.1.1.1.1.2s0,.1.1.2C213.6,565,213.5,564.9,213.5,564.8Zm.2.4.2.2.3.3c-.1,0-.2-.1-.3-.2S213.8,565.3,213.7,565.2Zm1.2-.1a2.18487,2.18487,0,0,1-.3.5v.1l-.1.1h-.1c-.1,0-.1,0-.2-.1.1,0,.1.1.2.1h.1c.1,0,.2,0,.2-.1v-.1a.7642.7642,0,0,1,.2-.5Zm0-.6h0c-.1-.1-.1-.1-.1-.2C214.9,564.4,214.9,564.4,214.9,564.5Zm-.1-.2c0-.1-.1-.1-.1-.2,0,.1,0,.1.1.2Z" transform="translate(-190.69998 -540.07499)"/><path class="cls-1" d="M214.1,560.4h-.2c-.1,0-.2.1-.3.2a4.17749,4.17749,0,0,0-1.1,1.5,2.53674,2.53674,0,0,0-.2,1.2V563.5a1.97787,1.97787,0,0,0,.2,1,5.85455,5.85455,0,0,0,1,1.7l.1.1c.5.5.9.8,1.3.8a.90779.90779,0,0,0,.7-.3,3.27755,3.27755,0,0,1,.6-.8,6.70641,6.70641,0,0,0,.9-1.4,1.26836,1.26836,0,0,0,.1-.6v-.19995a1.2217,1.2217,0,0,0-.4-.9,8.74177,8.74177,0,0,1-.8-1,9.0144,9.0144,0,0,0-.9-1A1.86506,1.86506,0,0,0,214.1,560.4Zm1.1.8-.2-.2-.3-.3.3.3Zm-.4,5.7a.36742.36742,0,0,1-.3-.1.36742.36742,0,0,0,.3.1Zm.5-.1h0c.1-.1,0-.1,0,0Zm-.5.1a.36742.36742,0,0,1-.3-.1c.1-.00006.2.1.3.1Zm-1.1-6.2h0l-.1.1h0c-.1.1-.2.2-.2.3,0-.1.1-.19995.3-.4Zm.6-.1H214C214.2,560.5,214.3,560.6,214.3,560.6Zm1,6.1.1-.1-.1.1Zm-.5.1a.36745.36745,0,0,1-.3-.1.36745.36745,0,0,0,.3.1.86427.86427,0,0,0,.6-.3c-.1.1-.2.2-.3.2-.1.1-.1.1-.3.1Zm1.2-1c-.1.1-.1.2-.2.3.1-.19995.1-.3.2-.3l.3-.3Zm0-.1c-.1.1-.1.2-.2.3.1-.1.1-.2.2-.3l.3-.3Zm1-1.6v-.4h0v.4Zm-.1.2a6.70711,6.70711,0,0,1-.9,1.4c-.2.3-.4.5-.6.8-.1.2-.2.3-.4.3h-.3a1.90612,1.90612,0,0,1-1.2-.7l-.1-.1a4.2477,4.2477,0,0,1-1-1.7c-.1-.3-.1-.6-.2-.9a2.95855,2.95855,0,0,1,.2-1,5.82647,5.82647,0,0,1,1.1-1.5.5505.5505,0,0,1,.5-.2c.3,0,.5.2.8.5s.5.6.8.9.5.7.8,1a2.01,2.01,0,0,1,.4.8C217,564,216.9,564.1,216.9,564.3Zm-3.2-3.6c0,.1-.1.1,0,0a5.00781,5.00781,0,0,0-.7.8,5.00781,5.00781,0,0,1,.7-.8C213.6,560.8,213.7,560.8,213.7,560.7Zm.6-.1h-.4c-.1,0-.2.1-.3.2a4.3513,4.3513,0,0,0-.6.7,4.34979,4.34979,0,0,1,.6-.7.5505.5505,0,0,1,.5-.2Zm-2,2.30005v.6A.62918.62918,0,0,1,212.3,562.9ZM215,561.1l-.3-.3.3.3.2.2C215.2,561.2,215.1,561.2,215,561.1ZM213.4,565.9l.1.1.4.4c-.1-.1-.3-.2-.4-.3a.30954.30954,0,0,0-.1-.2Zm3.2-3ZM215,561.1l-.3-.3q.15,0,.3.3l.2.2A.2151.2151,0,0,0,215,561.1Zm-.8-.6Zm-.6.2h0l-.7.7a4.62126,4.62126,0,0,0,.7-.7Zm-.2,5.3.1.1.4.4c-.1-.1-.3-.2-.4-.3,0-.1,0-.1-.1-.2Zm2,.8h0c0-.1-.1,0,0,0Zm.7-1c.1-.1.2-.2.2-.3-.1.1-.2.2-.2.3-.1.1-.2.2-.2.3C215.9,566,216,565.9,216.1,565.8Zm.5-2.9Zm-3-2.2a.55048.55048,0,0,1,.5-.2c.1,0,.2,0,.2.1h-.5c0-.1-.1,0-.2.1-.2.2-.4.5-.6.7A4.34674,4.34674,0,0,1,213.6,560.7Zm-.1,5.4-.1-.1.1.1h0a1.75606,1.75606,0,0,0,.5.4,1.755,1.755,0,0,1-.5-.4Zm1.6.9h-.3a.36745.36745,0,0,1-.3-.1c.1,0,.2,0,.2.1h.1a.76365.76365,0,0,0,.5-.2Zm.9-1.1c-.1.1-.1.2-.2.3a1.23648,1.23648,0,0,1,.2-.3l.3-.3Zm.6-3Z" transform="translate(-190.69998 -540.07499)"/><path class="cls-1" d="M213.3,559.3a4.81482,4.81482,0,0,0-1.5,2,3.52956,3.52956,0,0,0-.3,1.4v.2a5.90276,5.90276,0,0,0,.2,1.4,5.12253,5.12253,0,0,0,1.4,2.3l.2.2a3.74552,3.74552,0,0,0,1.7,1.1.9747.9747,0,0,0,.9-.4,5.49815,5.49815,0,0,1,.7-.9,12.22631,12.22631,0,0,0,1.2-1.9,2.48474,2.48474,0,0,0,.1-.8V563.7a2.07767,2.07767,0,0,0-.5-1.2c-.3-.4-.6-.7-.9-1.1a17.41614,17.41614,0,0,0-1.2-1.4,2.80384,2.80384,0,0,0-1.2-.8h-.4C213.5,559.1,213.4,559.2,213.3,559.3Zm1.7,8.2h0Zm1.4-6.2c.3.4.6.7.9,1.1a1.82324,1.82324,0,0,1,.5,1.1c0,.2-.1.4-.1.7a6.66642,6.66642,0,0,1-1.2,1.9c-.3.3-.5.7-.7.9a.99861.99861,0,0,1-.5.4h-.4a2.849,2.849,0,0,1-1.6-1l-.1-.1a8.98381,8.98381,0,0,1-1.4-2.2,5.85238,5.85238,0,0,1-.2-1.3,2.768,2.768,0,0,1,.3-1.3,4.53968,4.53968,0,0,1,1.5-1.9.66287.66287,0,0,1,.7-.2c.4,0,.7.3,1.1.7A4.52484,4.52484,0,0,1,216.4,561.3Zm-1.1,6.1h-.4a.84371.84371,0,0,0,.7-.2C215.5,567.3,215.4,567.4,215.3,567.4Zm-.4.1h0Zm-3.3-5.2v.6A1.14605,1.14605,0,0,1,211.6,562.3Zm6.2,1.5v0Zm-3.8-4.6h-.3a.75778.75778,0,0,0-.4.2l-.1.1.1-.1a1.44488,1.44488,0,0,1,.7-.2Zm0-.1h.1c0,.1,0,.1-.1,0Zm0,0h0Zm1,8.5h.1a1.421,1.421,0,0,0,.6-.2c-.1.1-.2.1-.3.2Zm-1-8.6h.1c0,.1,0,.1-.1,0h-.4a.7578.7578,0,0,0-.4.2l-.1.1.1-.1A3.08968,3.08968,0,0,1,214,559Z" transform="translate(-190.69998 -540.07499)"/><path class="cls-1" d="M218.4,560.5c-.1-.1-.2-.3-.3-.4a30.27139,30.27139,0,0,0-2.8-3.6l-.2-.2a4.36661,4.36661,0,0,0-1.5-1,2.20826,2.20826,0,0,0-1.6,0,3.0723,3.0723,0,0,0-1.5,1,5.076,5.076,0,0,0-.9,1.8,4.713,4.713,0,0,0-.2,2.1v.49993a7.51127,7.51127,0,0,0,.5,2.6,9.485,9.485,0,0,0,2.3,3.8c.1.2.3.3.4.4a4.98492,4.98492,0,0,0,2.6,1.6,1.94982,1.94982,0,0,0,.8-.1,1.4697,1.4697,0,0,0,.6-.5c.1-.2.3-.4.4-.6,1-1.4,2.3-3.1,2.3-5V562.7A4.97713,4.97713,0,0,0,218.4,560.5Zm-8.6-2.1a5.07585,5.07585,0,0,1,.9-1.8,3.07221,3.07221,0,0,1,1.5-1,2.91245,2.91245,0,0,1,3,1l.2.2a26.63045,26.63045,0,0,1,2.7,3.5c.1.1.2.3.3.4a4.57681,4.57681,0,0,1,.8,2.4v.00006a4.32134,4.32134,0,0,0-.8-2.5,1.7557,1.7557,0,0,0-.4-.5,25.23431,25.23431,0,0,0-2.7-3.4l-.2-.2a3.26511,3.26511,0,0,0-1.4-.9,1.94991,1.94991,0,0,0-1.5,0h-.1a3.316,3.316,0,0,0-1.4,1,7.569,7.569,0,0,0-.9,1.79993,14.91936,14.91936,0,0,0-.2,2.1v.2a14.52232,14.52232,0,0,0,.4,2.8v-.1a13.178,13.178,0,0,1-.5-2.6v-.3A6.648,6.648,0,0,1,209.8,558.4Zm.1.3a3.93185,3.93185,0,0,1,.9-1.7,3.316,3.316,0,0,1,1.4-1h.1a2.77116,2.77116,0,0,1,2.8.9l.2.2a25.35815,25.35815,0,0,1,2.6,3.3,1.75579,1.75579,0,0,0,.4.5,4.00641,4.00641,0,0,1,.8,2.3,5.85248,5.85248,0,0,1-.2,1.3,13.50053,13.50053,0,0,1-1.9,3.3,2.09246,2.09246,0,0,0-.4.6,2.65034,2.65034,0,0,1-.6.5.84585.84585,0,0,1-.7,0,4.97111,4.97111,0,0,1-2.4-1.5,1.37993,1.37993,0,0,1-.3-.4,10.10585,10.10585,0,0,1-2.2-3.7,12.81667,12.81667,0,0,1-.5-2.7A4.06089,4.06089,0,0,1,209.9,558.7Z" transform="translate(-190.69998 -540.07499)"/><path class="cls-1" d="M220.7,543.6a2.34009,2.34009,0,0,0-2.1.4,6.66118,6.66118,0,0,0-1.8,2.2,8.60022,8.60022,0,0,0-.9,3v.79992a9.70164,9.70164,0,0,0,.1,1.7,6.63689,6.63689,0,0,0,.6,2,11.012,11.012,0,0,0,2,3.1l.2.2a.90775.90775,0,0,0,.7.3,1.26876,1.26876,0,0,0,.6-.1,4.15171,4.15171,0,0,0,1.4-1.1,7.0325,7.0325,0,0,0,1.3-1.9,12.75347,12.75347,0,0,0,1.5-4.4v-1.1a6.31766,6.31766,0,0,0-.8-3.2,2.69584,2.69584,0,0,0-.7-.8A5.198,5.198,0,0,0,220.7,543.6Zm-2,.4a2.51822,2.51822,0,0,1,1.6-.5.90165.90165,0,0,1,.5.1,1.42161,1.42161,0,0,0,.6.2,1.42161,1.42161,0,0,0-.6-.2,1.483,1.483,0,0,0-.7-.1,2.38951,2.38951,0,0,0-1.4.5,4.97775,4.97775,0,0,0-1.5,1.7A4.97817,4.97817,0,0,1,218.7,544Zm.5,13c.1,0,.2.1.3.1h.1a.74951.74951,0,0,0,.5-.1H220a.90166.90166,0,0,1-.5.1A.3674.3674,0,0,1,219.2,557Zm0,0c.1,0,.2.1.3.1h.1a.74951.74951,0,0,0,.5-.1H220a.90166.90166,0,0,1-.5.1C219.4,557.1,219.3,557,219.2,557Zm-.5-12.9.1-.1c0,.1,0,.1-.1.1a6.46141,6.46141,0,0,0-1.5,1.7q.45-.6.9-1.2C218.3,544.4,218.5,544.3,218.7,544.1ZM219.2,556.9c.1,0,.2.1.3.1a1.26876,1.26876,0,0,0,.6-.1,4.15158,4.15158,0,0,0,1.4-1.1,17.10419,17.10419,0,0,0,1.1-1.4,5.82682,5.82682,0,0,1-1.1,1.5,4.49594,4.49594,0,0,1-1.4,1.1.90168.90168,0,0,1-.5.1C219.4,557,219.3,557,219.2,556.9Zm2.2-1a17.104,17.104,0,0,0,1.1-1.4,17.09744,17.09744,0,0,1-1.1,1.4c-.1.1-.2.2-.2.3-.2.2-.5.4-.7.6A7.637,7.637,0,0,0,221.4,555.9ZM224.3,549.6a5.16,5.16,0,0,1-.2,1.1c.1-.4.1-.7.2-1v-1.8c0,.3.1.6.1,1A1.70181,1.70181,0,0,0,224.3,549.6Zm0-.8v.7a12.10435,12.10435,0,0,1-1.5,4.4,15.61632,15.61632,0,0,1-1.3,1.9,4.496,4.496,0,0,1-1.4,1.1,1.0326,1.0326,0,0,1-1.2-.2l-.1-.1a8.52573,8.52573,0,0,1-1.9-3,7.61975,7.61975,0,0,1-.6-2,8.0828,8.0828,0,0,1-.1-1.6v-.5a8.60041,8.60041,0,0,1,.9-3,5.09893,5.09893,0,0,1,1.8-2.2,2.51824,2.51824,0,0,1,1.6-.5.90166.90166,0,0,1,.5.1,5.61254,5.61254,0,0,1,2,1.2c.2.2.4.5.6.7A10.19821,10.19821,0,0,1,224.3,548.8Zm-8.3.4v.79992a3.74889,3.74889,0,0,0,.1,1.1c0-.4-.1-.8-.1-1.2v-.5a5.02,5.02,0,0,1,.2-1.2A3.555,3.555,0,0,0,216,549.2Zm4.8-5.4a2.34008,2.34008,0,0,0-2.1.4,4.97772,4.97772,0,0,0-1.5,1.7,6.29946,6.29946,0,0,1,1.5-1.7,2.654,2.654,0,0,1,1.4-.5h.1a1.26868,1.26868,0,0,1,.6.1,1.421,1.421,0,0,1,.6.2A1.42184,1.42184,0,0,0,220.8,543.8Zm-2.2,12.8.2.2.2.2a.215.215,0,0,1-.2-.2c-.1-.1-.1-.2-.2-.2a2.18015,2.18015,0,0,1-.4-.5A2.18385,2.18385,0,0,1,218.6,556.6Zm2.6-.4.3-.3c0-.1.1-.1.1-.2-.1.1-.1.2-.2.2a.7696.7696,0,0,1-.2.3,3.19032,3.19032,0,0,1-.7.6A4.34886,4.34886,0,0,1,221.2,556.2Zm1.6-11.2a5.49773,5.49773,0,0,0-.9-.7,2.17785,2.17785,0,0,1,.9.7c.1.1.2.2.2.3C223,545.1,222.9,545,222.8,545Zm-2-1.3a1.483,1.483,0,0,0-.7-.1,2.91889,2.91889,0,0,0-.9.2,2.92087,2.92087,0,0,1,.9-.2h.1a1.26707,1.26707,0,0,1,.6.1,1.42087,1.42087,0,0,1,.6.2A1.42087,1.42087,0,0,1,220.8,543.7Zm-2.1.4c-.2.2-.4.3-.7.6a1.37986,1.37986,0,0,0-.3.4c.1-.1.2-.3.3-.4a3.19358,3.19358,0,0,1,.7-.6.09793.09793,0,0,0,.1-.1Zm-.6.5a6.23176,6.23176,0,0,0-.9,1.2,6.29963,6.29963,0,0,1,1.5-1.7l.1-.1a.09794.09794,0,0,0-.1.1A1.3333,1.3333,0,0,0,218.1,544.6Zm.5,12,.2.2.2.2a.215.215,0,0,1-.2-.2l-.2-.2a2.18015,2.18015,0,0,1-.4-.5A2.18015,2.18015,0,0,0,218.6,556.6Zm2.6-.4.3-.3a17.10613,17.10613,0,0,0,1.1-1.4,5.82647,5.82647,0,0,1-1.1,1.5,4.06389,4.06389,0,0,1-1,.9Zm1.6-11.3a5.49718,5.49718,0,0,0-.9-.7,2.17729,2.17729,0,0,1,.9.7c.1.1.2.2.2.3C223,545.1,222.9,545,222.8,544.9Zm-2-1.2a1.483,1.483,0,0,0-.7-.1,2.91889,2.91889,0,0,0-.9.2,2.92087,2.92087,0,0,1,.9-.2h.1a1.26707,1.26707,0,0,1,.6.1,1.42087,1.42087,0,0,1,.6.2A1.42087,1.42087,0,0,0,220.8,543.7Zm-2,13.1-.1-.1-.5-.5c.1.2.3.3.4.5a.34917.34917,0,0,1,.2.1c.1.1.2.1.2.2Zm2.7-.8a4.496,4.496,0,0,1-1.4,1.1,1.37889,1.37889,0,0,1-.9,0c.1,0,.2.1.3.1h.1a.74948.74948,0,0,0,.5-.1,6.0261,6.0261,0,0,0,1.4-1.1,9.73588,9.73588,0,0,0,1.1-1.5C222.2,555.1,221.8,555.6,221.5,556Zm1.6-10.9c-.1-.1-.2-.2-.2-.3a5.49761,5.49761,0,0,0-.9-.7,5.49634,5.49634,0,0,1,.9.7C222.9,544.9,223,545,223.1,545.1Z" transform="translate(-190.69998 -540.07499)"/><path class="cls-1" d="M222.9,543.3a2.65009,2.65009,0,0,0-.6-.5,4.55142,4.55142,0,0,0-1.9-.8,3.309,3.309,0,0,0-1.9.3,6.77917,6.77917,0,0,0-1.8,1.3,8.51756,8.51756,0,0,0-1.7,2.5,5.22242,5.22242,0,0,0-.4,2.1v.19995a2.76889,2.76889,0,0,0,.1.9c.7,3.6,1.5,6.3,3.5,8.2l.4.4c.3.2.5.4.8.4a2.48589,2.48589,0,0,0,.8-.1,6.59135,6.59135,0,0,0,2.9-3.2,12.66766,12.66766,0,0,0,1.6-5v-1.1a13.55363,13.55363,0,0,0-.2-2,7.88593,7.88593,0,0,0-.9-2.3A1.56064,1.56064,0,0,0,222.9,543.3Zm-2.7-1.2h.3c.1,0,.3.1.4.1-.1,0-.2-.1-.3-.1a3.30887,3.30887,0,0,0-1.9.3,6.77937,6.77937,0,0,0-1.8,1.3h0a6.77937,6.77937,0,0,1,1.8-1.3,3.529,3.529,0,0,1,1.4-.3ZM214.8,547.4v0Zm0,.8a5.08575,5.08575,0,0,1,.4-2,8.21322,8.21322,0,0,1,1.6-2.5,6.77937,6.77937,0,0,1,1.8-1.3,4.97262,4.97262,0,0,1,1.6-.3h.3a4.55211,4.55211,0,0,1,1.9.8,2.65073,2.65073,0,0,1,.6.5,4.44045,4.44045,0,0,1,.8,1.1,7.88681,7.88681,0,0,1,.9,2.3,11.07484,11.07484,0,0,1,.2,1.9v.8a13.18746,13.18746,0,0,1-1.6,5,7.84433,7.84433,0,0,1-1.4,2,3.96058,3.96058,0,0,1-1.5,1.2,1.53971,1.53971,0,0,1-1.6-.2,1.38039,1.38039,0,0,0-.4-.3c-1.9-1.9-2.7-4.6-3.4-8.1A1.64453,1.64453,0,0,1,214.8,548.2Zm10,1.4a1.26816,1.26816,0,0,1-.1.6.74929.74929,0,0,1,.1-.5v-.1Zm-5.6,8.2h.2a2.486,2.486,0,0,0,.8-.1,4.18512,4.18512,0,0,0,1.2-.8,2.80388,2.80388,0,0,1-1.2.8,1.2687,1.2687,0,0,1-.6.1C219.5,557.9,219.4,557.8,219.2,557.8Zm3.7-14.4Zm-2.7-1.4h.3c.1,0,.3.1.4.1-.1,0-.2-.1-.3-.1h-.5a2.20226,2.20226,0,0,0-.8.1,2.48565,2.48565,0,0,1,.8-.1Zm-1.9,15.2Zm.9.7h.3a.60127.60127,0,0,0,.4-.1c-.1,0-.3.1-.4.1Zm3.7-14.6Zm-2.7-1.3h.3c.1,0,.3.1.4.1-.1,0-.2-.1-.3-.1h-.5a2.20226,2.20226,0,0,0-.8.1,2.48565,2.48565,0,0,1,.8-.1Zm-3.4,1.5Zm1.5,13.7Zm.9.7h.3a.60127.60127,0,0,0,.4-.1c-.1,0-.3.1-.4.1C219.5,558,219.4,557.9,219.2,557.9Zm3.7-14.6Zm-4.3-1.1a4.97235,4.97235,0,0,1,1.6-.3h.3c.1,0,.3.1.4.1-.1,0-.2-.1-.3-.1h-.5a3.65281,3.65281,0,0,0-1.5.3,6.77931,6.77931,0,0,0-1.8,1.3h0A6.779,6.779,0,0,1,218.6,542.2Zm-.3,15Zm2,.7a1.80249,1.80249,0,0,1-1,.1h.3a1.95279,1.95279,0,0,0,.7-.1,8.34254,8.34254,0,0,0,1.2-.8C221,557.4,220.6,557.7,220.3,557.9Z" transform="translate(-190.69998 -540.07499)"/><path class="cls-1" d="M225.9,548.3a19.42211,19.42211,0,0,0-.2-2.4,12.37378,12.37378,0,0,0-1-2.9,4.42824,4.42824,0,0,0-1.2-1.5,2.65013,2.65013,0,0,0-.6-.5,4.69043,4.69043,0,0,0-2.2-.9,4.47685,4.47685,0,0,0-2.8.8,9.56445,9.56445,0,0,0-2.6,2.3,7.0699,7.0699,0,0,0-1.3,2.6,2.76913,2.76913,0,0,0-.1,1.3v.19995a4.01256,4.01256,0,0,0,.3,1.5c.3.9.6,1.7.9,2.5a25.58586,25.58586,0,0,0,1.6,4,8.32177,8.32177,0,0,0,1.9,2.6c.2.2.4.3.6.5a1.7969,1.7969,0,0,0,.9.4h.1a1.97771,1.97771,0,0,0,1-.2c1.1-.4,2.2-1.7,3.2-3.4a13.43063,13.43063,0,0,0,1.7-5.5v-1.1c-.2-.19977-.2-.19977-.2-.29981Zm-12-1.2v0Zm12,.9v0Zm-11.7.4a3.5294,3.5294,0,0,1-.3-1.4c0-.4.1-.7.1-1.1a5.48846,5.48846,0,0,1,1.3-2.5,9.56339,9.56339,0,0,1,2.6-2.3,5.46934,5.46934,0,0,1,2.8-.8,4.68986,4.68986,0,0,1,2.2.9,2.65073,2.65073,0,0,1,.6.5,5.82668,5.82668,0,0,1,1.1,1.5,8.27855,8.27855,0,0,1,1,2.9,17.85031,17.85031,0,0,1,.2,2.3v1a14.0598,14.0598,0,0,1-1.7,5.5c-1,1.7-2.1,3-3.2,3.4a1.65452,1.65452,0,0,1-1.9-.3l-.5-.5a9.425,9.425,0,0,1-1.8-2.5,41.497,41.497,0,0,1-1.6-4C214.8,550.2,214.5,549.3,214.2,548.4Zm6.7,9.9a2.354,2.354,0,0,1-.8.2H220a3.709,3.709,0,0,0,.9-.2.34913.34913,0,0,0,.2-.1C221,558.2,221,558.2,220.9,558.3Zm-1,.2h0Zm.8-18.3h0a3.885,3.885,0,0,0-2.4.6,4.49711,4.49711,0,0,1,2.1-.6Zm0,0h0Zm-.8,18.3h0Zm.8-18.4h0Zm0,0h-.3a4.86738,4.86738,0,0,0-2.2.6A4.02152,4.02152,0,0,1,220.7,540.1ZM220.9,558.4a1.97769,1.97769,0,0,1-1,.2h.2a1.88515,1.88515,0,0,0,.8-.2.34912.34912,0,0,0,.2-.1C221.1,558.4,221,558.4,220.9,558.4Z" transform="translate(-190.69998 -540.07499)"/><path class="cls-1" d="M196.6,579.6h-1.1l-.1-.5-.1-.1-.1.1a2.27088,2.27088,0,0,1-1.6.6,2.9,2.9,0,0,1,0-5.80005,2.27117,2.27117,0,0,1,1.6.6l.1.1.1-.1v-3.9h1.2ZM193.8,574.9a1.80293,1.80293,0,0,0,0,3.6,1.80293,1.80293,0,0,0,0-3.6Z" transform="translate(-190.69998 -540.07499)"/><path class="cls-1" d="M198.1,574h1.1l.1.5.1.1.1-.1a1.4856,1.4856,0,0,1,1.3-.6,2.20485,2.20485,0,0,1,2.3,2.3v3.5h-1.2v-3.5a1.06067,1.06067,0,0,0-1.2-1.2,1.32371,1.32371,0,0,0-1.3,1.3v3.4h-1.2Z" transform="translate(-190.69998 -540.07499)"/><path class="cls-1" d="M209.6,579.6h-1.1l-.1-.5-.1-.1-.1.1a2.27088,2.27088,0,0,1-1.6.6,2.9,2.9,0,0,1,0-5.80005,1.88668,1.88668,0,0,1,1.5.6l.1.1.1-.1.1-.5h1.1ZM206.8,574.9a1.80293,1.80293,0,0,0,0,3.6,1.80293,1.80293,0,0,0,0-3.6Z" transform="translate(-190.69998 -540.07499)"/><path class="cls-1" d="M216.4,579.6h-1.1l-.1-.5-.1-.1-.1.1a2.27089,2.27089,0,0,1-1.6.6,2.9,2.9,0,0,1,0-5.80005,1.88665,1.88665,0,0,1,1.5.6l.1.1.1-.1v-3.9h1.2ZM213.6,574.9a1.80293,1.80293,0,0,0,0,3.6,1.71033,1.71033,0,0,0,1.7-1.8A1.77128,1.77128,0,0,0,213.6,574.9Z" transform="translate(-190.69998 -540.07499)"/><path class="cls-1" d="M217.9,574H219l.1.6.1.1.1-.1a1.574,1.574,0,0,1,1.3-.7,1.26874,1.26874,0,0,1,.6.1v1.1h-.7a1.3237,1.3237,0,0,0-1.3,1.3v3.3H218Z" transform="translate(-190.69998 -540.07499)"/><path class="cls-1" d="M224.2,573.9a2.84,2.84,0,0,1,2.9,2.9,2.90092,2.90092,0,0,1-2.9,2.9,2.84,2.84,0,0,1-2.9-2.9A2.90088,2.90088,0,0,1,224.2,573.9Zm0,4.8a1.65335,1.65335,0,0,0,1.7-1.8,1.79186,1.79186,0,0,0-1.7-1.9,1.65335,1.65335,0,0,0-1.7,1.8A1.79187,1.79187,0,0,0,224.2,578.7Z" transform="translate(-190.69998 -540.07499)"/><path class="cls-1" d="M228.2,574h1.1l.1.5.1.1.1-.1a2.2709,2.2709,0,0,1,1.6-.6,2.9,2.9,0,0,1,0,5.8,1.88663,1.88663,0,0,1-1.5-.6l-.1-.1-.1.1v3h-1.2Zm2.8,4.7a1.65335,1.65335,0,0,0,1.7-1.8A1.79187,1.79187,0,0,0,231,575a1.71034,1.71034,0,0,0-1.7,1.8A1.79863,1.79863,0,0,0,231,578.7Z" transform="translate(-190.69998 -540.07499)"/></svg>