<svg fill="#293c54" id="Режим_изоляции" data-name="Режим изоляции" xmlns="http://www.w3.org/2000/svg" viewBox="0 0 148.12389 168.39996"><path d="M172.4,574.6l-.4-2a40.93156,40.93156,0,0,0,25.3-64l1.6-1.2a42.94554,42.94554,0,0,1-26.5,67.2Z" transform="translate(-138.73696 -476.90003)"/><path d="M258.5,645.3a378.29876,378.29876,0,0,0-86.7-70.7l1-1.7a382.61742,382.61742,0,0,1,87.2,71.1Z" transform="translate(-138.73696 -476.90003)"/><path d="M281.7,563.7c-10,0-20-6.9-25.5-17.6-5-9.8-6-21.3-6.6-31.3-.4-7-.5-13.8,2.2-20.1,3.3-7.7,10.5-13.2,16.2-17.7l1.2,1.6c-5.9,4.5-12.5,9.6-15.6,16.9-2.5,5.9-2.4,12.4-2,19.2.5,9.8,1.5,21,6.3,30.5,5.2,10.2,14.6,16.6,24,16.5v2Z" transform="translate(-138.73696 -476.90003)"/><path d="M259.9,644.9l-1.7-1a305.60155,305.60155,0,0,0,21.5-44.2c2.2-5.5,4.5-12,5.1-18.7.6-7-.8-13.5-4.2-18.1l1.6-1.2c3.6,5.1,5.2,12,4.5,19.5-.6,6.9-3.1,13.6-5.3,19.2A289.2775,289.2775,0,0,1,259.9,644.9Z" transform="translate(-138.73696 -476.90003)"/><path d="M248.3,581.2c-4.2,0-8.4-1.6-12.4-3.4a178.865,178.865,0,0,1-36.3-21.9l1.2-1.6a179.24352,179.24352,0,0,0,35.9,21.6c5,2.3,10.3,4.2,15.1,2.7,4-1.2,7.4-4.7,9.2-9.4,1.7-4.7,1.7-9.9,1.5-14l2-.1c.2,4.2.3,9.8-1.6,14.8-2,5.3-5.9,9.3-10.5,10.7A15.0689,15.0689,0,0,1,248.3,581.2Z" transform="translate(-138.73696 -476.90003)"/><path d="M253.6,585a3.59378,3.59378,0,0,1-1.1-.2,3.29778,3.29778,0,0,1-2-2,3.6543,3.6543,0,0,1,0-2.9l1.8.8a1.47915,1.47915,0,0,0,0,1.3,2.36084,2.36084,0,0,0,.8.9,1.67277,1.67277,0,0,0,1.2-.1,1.50252,1.50252,0,0,0,.7-.9,1.30186,1.30186,0,0,0-.5-1.3,1.40975,1.40975,0,0,0-1.4-.1l-.9-1.8a3.19409,3.19409,0,0,1,3.5.3,3.46984,3.46984,0,0,1,1.3,3.3,3.55357,3.55357,0,0,1-1.7,2.3A4.7108,4.7108,0,0,1,253.6,585Z" transform="translate(-138.73696 -476.90003)"/><path d="M256.3,597.3a5.0786,5.0786,0,0,1-1.7-.3,6.32126,6.32126,0,0,1-4.2-6.2c.1-2.7,2.2-6.9,5.4-7.3a5.20047,5.20047,0,0,1,3.8,1.3,8.10261,8.10261,0,0,1,2.9,5.1,6.76189,6.76189,0,0,1-2,5.6A5.92266,5.92266,0,0,1,256.3,597.3Zm-.1-11.7H256c-1.9.2-3.5,3.4-3.6,5.3a4.419,4.419,0,0,0,2.8,4.2,4.0447,4.0447,0,0,0,3.9-1,5.19863,5.19863,0,0,0,1.4-4h0a6.02357,6.02357,0,0,0-2.2-3.8A4.35822,4.35822,0,0,0,256.2,585.6Z" transform="translate(-138.73696 -476.90003)"/><path d="M202.8,533.2c-3.6-7.9-5.4-17.3-5.5-28,0-9.5,1.3-19.1,2.5-28.3l2,.3c-1.3,9.2-2.6,18.7-2.5,28,.1,10.4,1.8,19.6,5.3,27.2Z" transform="translate(-138.73696 -476.90003)"/><path d="M150.1,573.1l-1.3-1.5c7.7-6.9,10.8-18.5,7.3-28.2-1.5-4.4-4.1-8.1-6.9-12.1-1.6-2.3-3.3-4.8-4.7-7.3a47.53326,47.53326,0,0,1-.2-45l1.8,1a45.42369,45.42369,0,0,0,.2,43.1c1.4,2.4,3,4.8,4.6,7.1,2.7,3.9,5.5,8,7.1,12.6A28.7433,28.7433,0,0,1,150.1,573.1Z" transform="translate(-138.73696 -476.90003)"/><path d="M169.2,574.6l-.7-.3a43.87633,43.87633,0,0,0,.4-36,86.4144,86.4144,0,0,0-7.7-13.1c-4.4-6.6-8.9-13.4-10.2-21.4a28.4328,28.4328,0,0,1,10.2-26.2l.5.6a27.63957,27.63957,0,0,0-9.9,25.5c1.2,7.8,5.7,14.5,10.1,21.1a97.35393,97.35393,0,0,1,7.8,13.2A45.28913,45.28913,0,0,1,169.2,574.6Z" transform="translate(-138.73696 -476.90003)"/><path d="M217.1,491.8a24.51626,24.51626,0,0,1-2.7-.2c-3.7-.7-6.7-3.1-7.6-6.2l.7-.2c.8,2.8,3.6,5,7,5.6a21.91206,21.91206,0,0,0,9.6-.9,72.92658,72.92658,0,0,0,23.8-11.5l.4.6a74.15509,74.15509,0,0,1-24,11.6A26.43069,26.43069,0,0,1,217.1,491.8Z" transform="translate(-138.73696 -476.90003)"/><path d="M205,570.6a3.16617,3.16617,0,0,1-1.6-.4,4.05994,4.05994,0,0,1-2.2-2.6,6.74712,6.74712,0,0,1,1.3-5.8,16.70208,16.70208,0,0,1,2.8-3.1,11.98126,11.98126,0,0,1,1.2-1.1c7.3-7.6,10.2-19.8,7.6-31.8-2.1-9.6-7.5-19.3-16.4-29.6l.6-.5c9,10.4,14.5,20.2,16.6,30,2.7,12.3-.3,24.7-7.8,32.5q-.6.6-1.2,1.2a15.28566,15.28566,0,0,0-2.7,3,6.44323,6.44323,0,0,0-1.2,5.2,4.06856,4.06856,0,0,0,1.9,2.2,2.6264,2.6264,0,0,0,2.1.2l.3.7A3.141,3.141,0,0,0,205,570.6Z" transform="translate(-138.73696 -476.90003)"/><path d="M246,573.7a4.71238,4.71238,0,0,1-4.5-4.1l.7-.1a3.8401,3.8401,0,0,0,4,3.4,3.90632,3.90632,0,0,0,3.5-3.9h.7a4.67835,4.67835,0,0,1-4.2,4.7Z" transform="translate(-138.73696 -476.90003)" /></svg>