<svg fill="#293c54" id="Режим_изоляции" data-name="Режим изоляции" xmlns="http://www.w3.org/2000/svg" viewBox="0 0 204.95151 186.92543"><path d="M226.3,557l-1.1-1.6a26.55768,26.55768,0,0,1,28.3-1.1l-1,1.7A25.19323,25.19323,0,0,0,226.3,557Z" transform="translate(-109.933 -467.57457)"/><path d="M163.9,560.3l-1.4-1.4c3-2.9,7.5-4.5,12.6-4.4,4.3.1,8.3,1.2,12.9,2.6l-.6,1.9c-4.4-1.3-8.3-2.4-12.3-2.5C170.4,556.4,166.5,557.7,163.9,560.3Z" transform="translate(-109.933 -467.57457)"/><path d="M220,598.4a8.56636,8.56636,0,0,1-4.1-1l.9-1.8a6.84,6.84,0,0,0,5.6.3l.7,1.9A7.79081,7.79081,0,0,1,220,598.4Z" transform="translate(-109.933 -467.57457)"/><path d="M211.9,599.2h0a7.49246,7.49246,0,0,1-5.3-2.2l1.4-1.4a5.46406,5.46406,0,0,0,3.8,1.6h0a5.46407,5.46407,0,0,0,3.8-1.6L217,597A6.71443,6.71443,0,0,1,211.9,599.2Z" transform="translate(-109.933 -467.57457)"/><path d="M202.7,598.9a8.02569,8.02569,0,0,1-3-.6l.8-1.8a5.72,5.72,0,0,0,6.1-1.1l1.4,1.4A7.74643,7.74643,0,0,1,202.7,598.9Z" transform="translate(-109.933 -467.57457)"/><path d="M211.6,621.9h-.2a17.96238,17.96238,0,0,1-11.1-4l1.3-1.5a16.24011,16.24011,0,0,0,9.9,3.6h.1a15.9732,15.9732,0,0,0,9.8-3.4l1.2,1.6A18.00591,18.00591,0,0,1,211.6,621.9Z" transform="translate(-109.933 -467.57457)"/><path d="M226.3,616.6l-7.1-1.8a11.79641,11.79641,0,0,0-3.7-.5,3.41865,3.41865,0,0,0-2.6,1.4l-1.8-.9a5.13206,5.13206,0,0,1,4.2-2.5,13.01253,13.01253,0,0,1,4.4.6l7.1,1.8Z" transform="translate(-109.933 -467.57457)"/><path d="M197.9,617.9l-1-1.8a23.45223,23.45223,0,0,1,7.4-3,10.52889,10.52889,0,0,1,8.1,1.4l-1.1,1.7a8.55884,8.55884,0,0,0-6.6-1A19.39276,19.39276,0,0,0,197.9,617.9Z" transform="translate(-109.933 -467.57457)"/><path d="M225.3,571.2l-2-.4c1-5,6.5-9.1,13-9.5a22.34088,22.34088,0,0,1,15.8,5.9l-1.3,1.5a20.69874,20.69874,0,0,0-14.3-5.4C231,563.7,226.1,567.1,225.3,571.2Z" transform="translate(-109.933 -467.57457)"/><path d="M195.6,573.1A13.58832,13.58832,0,0,0,171.9,570.9l-1.7-1.1a15.78061,15.78061,0,0,1,14.3-6.8,15.47229,15.47229,0,0,1,12.8,9.3Z" transform="translate(-109.933 -467.57457)"/><path d="M216.3,580.9a23.23006,23.23006,0,0,1,1.4-16.6l.7.3a22.39113,22.39113,0,0,0-1.3,16.1Z" transform="translate(-109.933 -467.57457)"/><path d="M238.3,521.5c-3.9-7.3-13.5-8.9-17.4-9.2a88.13674,88.13674,0,0,0-8.9-.2,67.66082,67.66082,0,0,1-12.7-.7c-6.6-1.2-14.9-5.4-16.7-13.4l2-.4c1.6,7,9.2,10.8,15.1,11.8a71.9394,71.9394,0,0,0,12.3.7c3,0,6.1,0,9.1.2,9,.8,15.9,4.5,19,10.3Z" transform="translate(-109.933 -467.57457)"/><path d="M269.3,589.1a5.01814,5.01814,0,0,1-1.2-.2l.8-1.8a1.76162,1.76162,0,0,0,1.9-.6,7.939,7.939,0,0,0,1.3-2.6l5.1-14.2c1.5-4.1,3-8.2,3-12.6,0-1.8-.3-3-1.1-3.7-1-.8-2.7-.5-3.8.2a11.52712,11.52712,0,0,0-3.1,3.8l-1.7-1.1a13.81144,13.81144,0,0,1,3.7-4.4c1.7-1.1,4.3-1.6,6.2,0,1.3,1.1,1.9,2.8,1.8,5.2-.1,4.6-1.6,9-3.1,13.2l-5.1,14.2a8.29175,8.29175,0,0,1-1.8,3.3A4.34491,4.34491,0,0,1,269.3,589.1Z" transform="translate(-109.933 -467.57457)"/><path d="M156.2,589c-2.8-1.2-4.4-3.9-5.8-6.7a130.15836,130.15836,0,0,1-7.5-19.7c-.6-2-1.1-4.1-.3-6.1a4.1348,4.1348,0,0,1,3.2-2.5,3.32316,3.32316,0,0,1,2.9.9l-1.5,1.3a1.4315,1.4315,0,0,0-1.1-.3,2.50476,2.50476,0,0,0-1.7,1.3c-.6,1.4-.1,3.1.3,4.7a137.46922,137.46922,0,0,0,7.4,19.4c1.1,2.3,2.4,4.8,4.7,5.7Z" transform="translate(-109.933 -467.57457)"/><path d="M148.1,557.2c-1.5-11.6-3-23.7-2-35.6.8-9.4,3.6-22.8,12.6-33.3,6.9-8,17.4-14.1,30.3-17.6a94.15156,94.15156,0,0,1,40.9-1.6l-.4,2a91.53623,91.53623,0,0,0-40,1.6c-12.6,3.4-22.7,9.2-29.3,16.9-8.6,10.1-11.3,23-12.1,32.1-1,11.7.5,23.7,2,35.2Z" transform="translate(-109.933 -467.57457)"/><path d="M273.6,551l-2-.1c1.2-16,.3-28.6-2.9-39.7-3.9-13.9-11.6-25.3-21.7-32.3a44.96847,44.96847,0,0,0-16.5-7.1l.4-2a49.61932,49.61932,0,0,1,17.2,7.4c10.5,7.2,18.4,19.1,22.5,33.4C273.9,521.9,274.8,534.7,273.6,551Z" transform="translate(-109.933 -467.57457)"/><path d="M213.5,637.2a23.99674,23.99674,0,0,1-15.4-5.7l1.3-1.5a21.53413,21.53413,0,0,0,29.6-1.4l1.4,1.4a23.76574,23.76574,0,0,1-15.9,7.2C214.2,637.2,213.9,637.2,213.5,637.2Z" transform="translate(-109.933 -467.57457)"/><path d="M234.7,626.7l-.6-1.9A45.12164,45.12164,0,0,0,265,590.9l2,.4A47.21972,47.21972,0,0,1,234.7,626.7Z" transform="translate(-109.933 -467.57457)"/><path d="M193.8,630.3a45.37338,45.37338,0,0,1-23.4-13.6,44.71376,44.71376,0,0,1-11.3-24.6l2-.2a42.87021,42.87021,0,0,0,33.1,36.5Z" transform="translate(-109.933 -467.57457)"/><path d="M110,654.5c-.7-11.5,4.1-23,13.7-32.5,9.5-9.4,23.4-16.5,39.2-20.1l.4,1.9c-15.5,3.5-29.1,10.5-38.3,19.6-9.1,9-13.8,20-13.1,30.9Z" transform="translate(-109.933 -467.57457)"/><path d="M314.8,654.5l-2-.1c.7-10.9-4-21.9-13.1-30.9-9.2-9.1-22.8-16.1-38.3-19.6l.4-1.9c15.8,3.6,29.8,10.8,39.2,20.1C310.7,631.5,315.6,643,314.8,654.5Z" transform="translate(-109.933 -467.57457)"/><path d="M226.3,506.8a57.10231,57.10231,0,0,0-11.7-.8h-4c-4.6-.1-10.6-.6-15.4-3.8-4.3-2.8-7.7-8.5-5.9-14l.7.2c-1.7,5.1,1.5,10.5,5.6,13.1,4.6,3,10.4,3.6,15,3.7h4a58.56682,58.56682,0,0,1,11.8.8Z" transform="translate(-109.933 -467.57457)"/><path d="M255.6,523.8a15.20952,15.20952,0,0,0-8.8-9.1l.3-.7a15.71675,15.71675,0,0,1,9.2,9.5Z" transform="translate(-109.933 -467.57457)"/><path d="M150.5,541.8c-.8-5.6-1.7-11.4-1.3-17.1.3-4.5,1.6-11,5.9-16l.6.5c-4.2,4.9-5.5,11.1-5.8,15.6-.4,5.7.4,11.4,1.3,17Z" transform="translate(-109.933 -467.57457)"/><path d="M236.3,563.5a4.18766,4.18766,0,0,0-2.7.9,2.725,2.725,0,0,1,1.7,2.5,2.79508,2.79508,0,0,1-2.8,2.8,1.26865,1.26865,0,0,1-.6-.1,4.74375,4.74375,0,0,0,4.5,3.3,4.69454,4.69454,0,0,0,4.7-4.7A4.7808,4.7808,0,0,0,236.3,563.5Z" transform="translate(-109.933 -467.57457)"/><path d="M184.5,565a4.88774,4.88774,0,0,0-3.1,1.1,2.70484,2.70484,0,0,1,2,2.7,2.86161,2.86161,0,0,1-2.8,2.8h-.5a4.74024,4.74024,0,1,0,4.4-6.6Z" transform="translate(-109.933 -467.57457)"/></svg>