<svg fill="#293c54" id="Режим_изоляции" data-name="Режим изоляции" xmlns="http://www.w3.org/2000/svg" viewBox="0 0 234.78978 161.79999"><path d="M227.8,579.1l-.4-2a36.30456,36.30456,0,0,0,22.4-56.8l1.6-1.2a38.4289,38.4289,0,0,1-23.6,60Z" transform="translate(-95.04 -480.20002)"/><path d="M304.3,642a338.32216,338.32216,0,0,0-77.1-62.9l1-1.7a337.87339,337.87339,0,0,1,77.6,63.3Z" transform="translate(-95.04 -480.20002)"/><path d="M325,569.5c-9,0-17.9-6.1-22.8-15.7-4.5-8.7-5.4-19-5.8-27.9-.3-6.3-.4-12.3,1.9-17.9,2.9-6.9,9.3-11.8,14.5-15.8l1.2,1.6c-5.2,4-11.1,8.6-13.9,15-2.2,5.2-2.1,11-1.8,17.1.5,8.7,1.3,18.7,5.6,27.1,4.6,9,12.9,14.7,21.2,14.6v2C325.2,569.5,325.1,569.5,325,569.5Z" transform="translate(-95.04 -480.20002)"/><path d="M305.7,641.6l-1.7-1a263.901,263.901,0,0,0,19.1-39.3c1.9-4.9,4-10.7,4.6-16.6.6-6.2-.7-11.9-3.7-16.1l1.6-1.2c3.2,4.5,4.7,10.7,4.1,17.4-.6,6.2-2.7,12.1-4.7,17.1A279.992,279.992,0,0,1,305.7,641.6Z" transform="translate(-95.04 -480.20002)"/><path d="M295.2,585c-3.7,0-7.5-1.4-11-3a163.30379,163.30379,0,0,1-32.3-19.5l1.2-1.6A159.043,159.043,0,0,0,285,580.1c4.4,2,9.1,3.7,13.4,2.4,3.5-1,6.6-4.2,8.1-8.3,1.5-4.2,1.5-8.8,1.3-12.4l2-.1c.2,3.8.2,8.7-1.4,13.2-1.8,4.8-5.3,8.3-9.4,9.6A16.52189,16.52189,0,0,1,295.2,585Z" transform="translate(-95.04 -480.20002)"/><path d="M300,588.4a2.95777,2.95777,0,0,1-1-.2,3.18725,3.18725,0,0,1-1.8-1.8,2.96458,2.96458,0,0,1,0-2.6l1.8.8a2.04487,2.04487,0,0,0,0,1.1,1.20814,1.20814,0,0,0,.7.7,1.18356,1.18356,0,0,0,1-.1,1.87429,1.87429,0,0,0,.6-.7,1.18968,1.18968,0,0,0-.4-1.1,1.26221,1.26221,0,0,0-1.2-.1l-.9-1.8a3.14714,3.14714,0,0,1,4.5,3.4,3.05443,3.05443,0,0,1-1.6,2.1A12.23549,12.23549,0,0,1,300,588.4Z" transform="translate(-95.04 -480.20002)"/><path d="M302.3,599.4a7.71686,7.71686,0,0,1-1.5-.2,5.65543,5.65543,0,0,1-3.8-5.6c0-2.5,2-6.3,4.9-6.6a5.21,5.21,0,0,1,3.5,1.1,7.008,7.008,0,0,1,2.6,4.6h0a6.34231,6.34231,0,0,1-1.8,5.1A5.89392,5.89392,0,0,1,302.3,599.4Zm0-10.5h-.2c-1.6.2-3,2.9-3.1,4.6a3.98662,3.98662,0,0,0,2.4,3.7,3.33908,3.33908,0,0,0,3.3-.8,4.22838,4.22838,0,0,0,1.2-3.4,5.36662,5.36662,0,0,0-1.9-3.3A2.49089,2.49089,0,0,0,302.3,588.9Z" transform="translate(-95.04 -480.20002)"/><path d="M254.6,542.2c-3.2-7-4.8-15.4-4.9-25,0-8.5,1.1-17,2.2-25.2l2,.3c-1.1,8.2-2.3,16.6-2.2,24.9,0,9.3,1.6,17.4,4.7,24.1Z" transform="translate(-95.04 -480.20002)"/><path d="M208,577.8l-1.3-1.5a23.69748,23.69748,0,0,0,6.5-25c-1.4-3.9-3.7-7.2-6.1-10.8-1.4-2.1-2.9-4.2-4.2-6.5a42.51413,42.51413,0,0,1-.2-40.1l1.8,1a40.40137,40.40137,0,0,0,.1,38.2,68.10334,68.10334,0,0,0,4.1,6.3c2.4,3.5,4.9,7.1,6.3,11.2A25.848,25.848,0,0,1,208,577.8Z" transform="translate(-95.04 -480.20002)"/><path d="M224.9,579l-.7-.3a38.8277,38.8277,0,0,0,.3-32,81.559,81.559,0,0,0-6.9-11.7c-3.9-5.9-8-12-9.1-19a25.28926,25.28926,0,0,1,9.1-23.4l.5.6a24.31937,24.31937,0,0,0-8.8,22.7c1.1,6.9,5.1,12.9,9,18.7a77.40607,77.40607,0,0,1,6.9,11.8A39.44636,39.44636,0,0,1,224.9,579Z" transform="translate(-95.04 -480.20002)"/><path d="M267.5,505.4a19.4186,19.4186,0,0,1-2.4-.2c-3.3-.6-6-2.8-6.8-5.5l.7-.2c.7,2.5,3.2,4.4,6.2,5a20.09359,20.09359,0,0,0,8.5-.8,64.48216,64.48216,0,0,0,21.1-10.2l.4.6a66.20308,66.20308,0,0,1-21.4,10.3A23.75454,23.75454,0,0,1,267.5,505.4Z" transform="translate(-95.04 -480.20002)"/><path d="M256.7,575.5a2.82156,2.82156,0,0,1-1.5-.4,3.95253,3.95253,0,0,1-2-2.4,6.09264,6.09264,0,0,1,1.2-5.2,21.79832,21.79832,0,0,1,2.5-2.8l1-1c6.5-6.7,9.1-17.6,6.7-28.3-1.9-8.6-6.7-17.2-14.6-26.3l.6-.5c8,9.3,12.9,18,14.8,26.7,2.4,10.9-.3,22-6.9,28.9a9.4253,9.4253,0,0,1-1,1,12.24683,12.24683,0,0,0-2.4,2.7,5.05806,5.05806,0,0,0-1,4.6,3.333,3.333,0,0,0,1.6,1.9,2.53906,2.53906,0,0,0,1.9.2l.3.7A2.97331,2.97331,0,0,1,256.7,575.5Z" transform="translate(-95.04 -480.20002)"/><path d="M293.2,578.3a4.105,4.105,0,0,1-4-3.7l.7-.1a3.39305,3.39305,0,0,0,3.5,3,3.55987,3.55987,0,0,0,3.1-3.5h.7a4.14666,4.14666,0,0,1-3.7,4.2A.36754.36754,0,0,1,293.2,578.3Z" transform="translate(-95.04 -480.20002)"/><path d="M120.5,622.4l-1.9-.6c2.8-9,8.2-18,16.2-26.7,7-7.7,15.2-14.4,23.2-20.9l38.9-31.7c-1.9-1-4.3-2.1-6.6-3.2-2.9-1.4-5.8-2.8-8-4l.9-1.8c2.1,1.1,5.1,2.6,7.9,3.9,2.9,1.4,5.8,2.8,8,4l1.3.7-41.3,33.6c-7.9,6.4-16,13-23,20.7C128.5,604.9,123.2,613.6,120.5,622.4Z" transform="translate(-95.04 -480.20002)"/><path d="M138.3,553.2a15.78831,15.78831,0,0,1-7.5-11.5c-2.1,1.4-4.4,3.5-4.5,4.6l-2-.1c.1-2.9,5.4-6.3,6.8-7.1l1.3-.7.1,1.5a14.18109,14.18109,0,0,0,6.8,11.5Z" transform="translate(-95.04 -480.20002)"/><path d="M138.9,553.8l-.3-2a90.34877,90.34877,0,0,0,46.3-20.9l1.3,1.5A91.88361,91.88361,0,0,1,138.9,553.8Z" transform="translate(-95.04 -480.20002)"/><rect x="182.80353" y="519.11237" width="2" height="12.99999" transform="translate(-225.56849 -414.20432) rotate(-15.09381)"/><path d="M132.4,540.4l-.1-2c19-.7,34.6-7,49.3-19.9l1.3,1.5C167.9,533.1,151.9,539.6,132.4,540.4Z" transform="translate(-95.04 -480.20002)"/><path d="M124.2,546.2a23.2154,23.2154,0,0,1-2.2-4.1,35.78043,35.78043,0,0,0-2.1-3.9l1.7-1.1a33.02505,33.02505,0,0,1,2.3,4.1,35.78043,35.78043,0,0,0,2.1,3.9Z" transform="translate(-95.04 -480.20002)"/><path d="M112,547.9l-.7-1.9c2.8-1,7-6.1,7.7-9.2l2,.4C120.1,540.9,115.4,546.6,112,547.9Z" transform="translate(-95.04 -480.20002)"/><path d="M119.8,538.2c-3.9-6.3-2.6-16.8,2.5-22l1.4,1.4c-4.5,4.6-5.6,14.1-2.3,19.6Z" transform="translate(-95.04 -480.20002)"/><path d="M110.9,547.7c-3-2.8-4.2-7.4-3.3-12.6a25.95227,25.95227,0,0,1,15-19.1l.8,1.8a24.08933,24.08933,0,0,0-13.8,17.6c-.8,4.5.2,8.6,2.7,10.9Z" transform="translate(-95.04 -480.20002)"/><rect x="102.65436" y="526.36664" width="2.00002" height="11.90012" transform="translate(-524.11616 153.62275) rotate(-89.76886)"/><path d="M118.6,622.2,102.7,578c-2.6-7.2-5.3-14.7-6.7-22.4-1.6-8.8-1.2-16.7,1.2-23.5l1.9.7c-2.2,6.5-2.6,14-1.1,22.5,1.3,7.6,4,15,6.6,22.1l15.9,44.2Z" transform="translate(-95.04 -480.20002)"/><path d="M118.8,621a138.47639,138.47639,0,0,1,5.5-74.9l1.9.7a135.44842,135.44842,0,0,0-5.4,73.8Z" transform="translate(-95.04 -480.20002)"/><path d="M120,524.6l-.6-1.9a4.06613,4.06613,0,0,0,2.8-4.4,7.42766,7.42766,0,0,0-1-2.7,5.93763,5.93763,0,0,0-.4-.8,19.45359,19.45359,0,0,1-1.1-11.9l1.9.5a17.17256,17.17256,0,0,0,1,10.7,2.9934,2.9934,0,0,0,.4.8,9.19155,9.19155,0,0,1,1.1,3.3A5.87414,5.87414,0,0,1,120,524.6Z" transform="translate(-95.04 -480.20002)"/><path d="M104.6,502.6a14.83259,14.83259,0,0,1-8.2-2.4l-.5-.3,2.3-19.7,2,.2L98,498.8a13.26643,13.26643,0,0,0,14.2-.6l1.2,1.6A14.64033,14.64033,0,0,1,104.6,502.6Z" transform="translate(-95.04 -480.20002)"/><path d="M117,504a14.87441,14.87441,0,0,1-4.7-.7l-.8-.2.4-4.1,2,.2-.2,2.4a14.68687,14.68687,0,0,0,14.5-4.6l1.5,1.3A16.97361,16.97361,0,0,1,117,504Z" transform="translate(-95.04 -480.20002)"/><path d="M131,501.5a17.85049,17.85049,0,0,1-2.3-.2l-.8-.1v-3.7h2v1.9a13.52357,13.52357,0,0,0,11.4-4.8l1.6,1.2A15.30776,15.30776,0,0,1,131,501.5Z" transform="translate(-95.04 -480.20002)"/><path d="M142.9,499.6a1.26827,1.26827,0,0,1-.6-.1,2.41,2.41,0,0,1-1.6-2.3,4.68812,4.68812,0,0,1,.6-2.1l1.8.8a3.37343,3.37343,0,0,0-.4,1.2c0,.2.1.4.2.4a1.46263,1.46263,0,0,0,.8-.3l6.7-4,1,1.7-6.7,4A2.97891,2.97891,0,0,1,142.9,499.6Z" transform="translate(-95.04 -480.20002)"/><path d="M149.6,498.9l.1-5.1,2,.1-.1,2.1a21.51578,21.51578,0,0,0,9.6-8.8l1.7,1a23.29644,23.29644,0,0,1-12,10.3Z" transform="translate(-95.04 -480.20002)"/><path d="M160.9,492.2v-4.6h2v1.3a10.24636,10.24636,0,0,0,4.1-7.1l2,.2a11.65146,11.65146,0,0,1-6.6,9.6Z" transform="translate(-95.04 -480.20002)"/><path d="M176.9,496a22.33911,22.33911,0,0,1-.6-15.7l1.9.7a19.85788,19.85788,0,0,0,.5,14.2Z" transform="translate(-95.04 -480.20002)"/><path d="M181.2,506.6a46.84853,46.84853,0,0,1-1.2-11.8l-1.3,1.2-1.3-1.5,5-4.4-.2,2.5a47.786,47.786,0,0,0,1,13.6Z" transform="translate(-95.04 -480.20002)"/><path d="M182.3,506.9l-1.2-1.6a36.49038,36.49038,0,0,0,12.8-17.4l1.9.7A38.97638,38.97638,0,0,1,182.3,506.9Z" transform="translate(-95.04 -480.20002)"/><path d="M179,520.7a50.60975,50.60975,0,0,1,1.1-16.9l1.9.5a46.5526,46.5526,0,0,0-1.1,16.2Z" transform="translate(-95.04 -480.20002)"/><path d="M128.1,515.7l-.7-.1a4.93186,4.93186,0,0,0-1.2-4.2c-.4,1-1,1.5-1.7,1.5-.6,0-1.1-.5-1.5-1.4a13.0666,13.0666,0,0,1-1.3-5.5h.8a11.66906,11.66906,0,0,0,1.2,5.2,1.79475,1.79475,0,0,0,.9,1c.7.1,1-1.2,1.1-1.6l.1-.6.5.4A5.85986,5.85986,0,0,1,128.1,515.7Z" transform="translate(-95.04 -480.20002)"/><path d="M129,557.3a2.984,2.984,0,0,1-2.6-1.5,3.06289,3.06289,0,0,1,.8-3.7l.4.6a2.299,2.299,0,0,0-.6,2.8,2.34724,2.34724,0,0,0,2.5,1.1,2.43562,2.43562,0,0,0,.2-2.2,2.36687,2.36687,0,0,0-1.8-1.4l.1-.7a3.028,3.028,0,0,1,2.4,1.8,3.17406,3.17406,0,0,1-.3,3l-.1.1h-.1A2.76415,2.76415,0,0,1,129,557.3Z" transform="translate(-95.04 -480.20002)"/><path d="M165.5,525.4h-.7a187.98793,187.98793,0,0,1,6.2-38.8l.7.2A185.0382,185.0382,0,0,0,165.5,525.4Z" transform="translate(-95.04 -480.20002)"/></svg>