<svg fill="#293c54" id="Режим_изоляции" data-name="Режим изоляции" xmlns="http://www.w3.org/2000/svg" viewBox="0 0 117.59704 170.10001"><path d="M173.2,646.1a31.83012,31.83012,0,0,1-8.1-.8,10.61908,10.61908,0,0,1-6.7-5.2c-1.7-3.5-.6-7.2.4-10.8.3-1.1.6-2.3.9-3.5,1.1-5.8-.4-11.7-1.9-17.5-.4-1.7-.9-3.5-1.3-5.3-5.4-24.8,4.1-52.2,23.8-68.3,3.3-2.7,10.7-7.3,14.6-9.8l.6-.4,1.1,1.7-.6.4c-3.9,2.5-11.2,7.1-14.4,9.7-19.1,15.6-28.4,42.2-23.1,66.3.4,1.7.8,3.5,1.3,5.2,1.6,6,3.2,12.2,1.9,18.4-.2,1.2-.6,2.4-.9,3.6-.9,3.4-1.8,6.6-.5,9.4a8.74442,8.74442,0,0,0,5.4,4.2,31.62647,31.62647,0,0,0,7.6.8Z" transform="translate(-155.00296 -475.99997)"/><path d="M202.4,574l-2-.1c.3-4.6-1.8-8.9-4.1-13.4-.9-1.8-1.8-3.6-2.6-5.4a36.63356,36.63356,0,0,1,3.8-33.8l1.6,1.1a34.20244,34.20244,0,0,0-3.6,31.9,51.25023,51.25023,0,0,0,2.5,5.3C200.4,564.2,202.8,568.9,202.4,574Z" transform="translate(-155.00296 -475.99997)"/><path d="M238.5,645.6l-1.7-1c.9-1.7.2-4-.8-5.5a19.934,19.934,0,0,0-1.9-2.4,35.52937,35.52937,0,0,1-2.3-3.1c-2.8-4.9-1.8-10.5-.9-13.4a48.41824,48.41824,0,0,1,4.5-9.8q.6-1.05,1.2-2.1a109.80647,109.80647,0,0,0,12.1-61.6l2-.2a113.13983,113.13983,0,0,1-12.3,62.8c-.4.7-.8,1.4-1.2,2.2a53.25021,53.25021,0,0,0-4.3,9.4c-.8,2.6-1.7,7.6.7,11.8a26.39514,26.39514,0,0,0,2.1,2.9,25.6042,25.6042,0,0,1,2,2.6C239.4,640.7,239.7,643.6,238.5,645.6Z" transform="translate(-155.00296 -475.99997)"/><path d="M263.6,646a13.406,13.406,0,0,1-2-.1l-23.5-1.3.1-2,23.5,1.3c2.7.1,5.5.2,7.2-1.5,1.6-1.5,1.8-4.2,1.8-6.3,0-2.6-.3-6.3-2.4-8.9a6.07776,6.07776,0,0,0-4.4-2.2,4.04769,4.04769,0,0,0-3,1l-1.4-1.4A5.95585,5.95585,0,0,1,264,623a8.17084,8.17084,0,0,1,5.8,2.9c2.5,3,2.8,7.2,2.8,10.1,0,2.5-.3,5.7-2.4,7.8C268.5,645.7,266,646,263.6,646Z" transform="translate(-155.00296 -475.99997)"/><path d="M254.6,639.9c-3.5,0-6.8-1.4-9.9-2.8l-1.2-.5c-3.2-1.4-6.9-2.7-10.3-1.7l-.5-1.9c4-1.1,8.1.3,11.6,1.8l1.2.5c3,1.3,6,2.6,9.1,2.6h0V639.9Z" transform="translate(-155.00296 -475.99997)"/><path d="M247,518.3l-1.9-.5a20.049,20.049,0,0,0-2.5-16l-.4-.5.4-.5a17.62139,17.62139,0,0,0-1.8-20.7l-8.7,10.2-1.5-1.3,10.1-11.9.8.7c6.2,5.9,7.5,16.1,3.2,23.5A21.95753,21.95753,0,0,1,247,518.3Z" transform="translate(-155.00296 -475.99997)"/><path d="M197.9,511.4l-2-.3,1.4-10.6a23.71874,23.71874,0,0,0,.3-4.6c-.1-.9-.3-1.7-.5-2.7a5.01878,5.01878,0,0,1-.2-1.2,27.32323,27.32323,0,0,1,1.3-14.7l.5-1.3,13.8,11.7-1.3,1.5-11.6-9.8a24.46,24.46,0,0,0-.7,12.3,5.01862,5.01862,0,0,1,.2,1.2,24.99731,24.99731,0,0,1,.5,2.9,29.1062,29.1062,0,0,1-.3,5.1Z" transform="translate(-155.00296 -475.99997)"/><rect x="238.59271" y="493.70133" width="3.59981" height="0.79994" transform="translate(-464.00551 8.63235) rotate(-63.06851)"/><rect x="201.52925" y="489.49585" width="0.70001" height="3.90008" transform="translate(-413.70916 -249.38485) rotate(-37.76946)"/><path d="M214.8,519.3a6.99249,6.99249,0,0,1-2.7-3.4l-.2-.5h6.6l-.2.5a5.12585,5.12585,0,0,1-2.8,2.8l-.3-.7a5.09761,5.09761,0,0,0,2.2-1.9H213a5.304,5.304,0,0,0,2.2,2.5Z" transform="translate(-155.00296 -475.99997)"/><path d="M234.7,521.6a13.96807,13.96807,0,0,1-2.9-.9,25.82764,25.82764,0,0,0-2.6-.8,10.18234,10.18234,0,0,0-5.5,0l-.3-.7a9.73784,9.73784,0,0,1,5.9-.1,27.59089,27.59089,0,0,1,2.7.8,24.54872,24.54872,0,0,0,2.9.8Z" transform="translate(-155.00296 -475.99997)"/><path d="M236.7,528.1l-9.7-4.7c-1.4-.7-2.9-1.3-4.2-.8l-.3-.7c1.6-.6,3.3.1,4.8.8l9.7,4.7Z" transform="translate(-155.00296 -475.99997)"/><path d="M235.1,583.3l-.6-.4a66.27382,66.27382,0,0,0,8.7-35.4h.7A66.837,66.837,0,0,1,235.1,583.3Z" transform="translate(-155.00296 -475.99997)"/><path d="M222.7,640.8c-2.8-3.4-3.8-8.4-3.1-15.2.1-1.2.3-2.4.4-3.6.5-3.9,1-8,.2-11.9l.7-.1c.8,4,.3,8.1-.2,12.1-.1,1.2-.3,2.4-.4,3.6-.6,6.6.3,11.4,3,14.7Z" transform="translate(-155.00296 -475.99997)"/><path d="M177.4,593.5l-.5-.6a5.20136,5.20136,0,0,0,.8-5.8c-.8-2-2.4-3.5-4.2-5.1l-.2-.2a16.88948,16.88948,0,0,1-4.3-4.9c-2.1-4-1-8.9,0-12.3a67.03128,67.03128,0,0,1,14.6-26l.6.5a66.71187,66.71187,0,0,0-14.4,25.7c-1,3.5-2,8,0,11.7a18.6821,18.6821,0,0,0,4.2,4.7l.2.2c1.8,1.6,3.5,3.2,4.3,5.3S179.3,591.8,177.4,593.5Z" transform="translate(-155.00296 -475.99997)"/></svg>